{"glyphs":{"0":{"ha":676,"x_min":17,"x_max":659,"o":"m 131 -35 q 44 135 72 31 q 18 351 17 239 q 46 570 19 463 q 128 754 74 678 q 238 852 174 820 q 367 881 302 883 q 489 845 431 880 q 583 746 546 811 q 644 554 630 665 q 646 329 659 443 q 594 113 633 215 q 496 -50 556 11 q 408 -108 457 -91 q 309 -122 359 -126 q 213 -96 259 -119 q 131 -35 167 -74 m 330 43 q 372 73 354 44 q 404 150 391 102 q 424 260 417 198 q 433 391 431 322 q 428 499 435 443 q 406 602 420 556 q 374 679 393 648 q 333 709 356 709 q 300 681 315 709 q 274 603 285 652 q 256 491 263 554 q 248 361 250 428 q 251 251 246 307 q 266 147 256 194 q 292 70 276 100 q 330 43 307 41 z "},"1":{"ha":450,"x_min":15,"x_max":431,"o":"m 426 -93 q 389 -113 426 -104 q 307 -120 352 -122 q 225 -100 263 -119 q 185 -39 187 -81 q 186 43 185 -6 q 191 179 187 91 q 199 406 194 267 q 209 761 204 546 q 118 732 161 739 q 52 746 74 726 q 26 783 33 763 q 17 820 19 804 q 18 848 15 837 q 20 859 20 859 q 70 852 43 850 q 129 861 98 854 q 191 876 159 869 q 252 885 222 883 q 368 858 333 889 q 422 774 402 828 q 431 676 431 752 q 426 500 430 600 q 423 483 424 491 q 422 467 422 476 q 419 306 420 394 q 419 135 419 217 q 420 -10 419 54 q 426 -93 422 -74 z "},"2":{"ha":744,"x_min":17,"x_max":728,"o":"m 454 550 q 490 612 478 578 q 499 674 502 646 q 479 720 496 702 q 426 737 461 739 q 348 708 383 733 q 309 630 313 683 q 316 591 307 607 q 335 561 324 574 q 356 538 346 548 q 369 522 367 528 q 297 464 344 483 q 209 457 250 444 q 128 528 152 474 q 119 657 104 581 q 193 796 135 744 q 324 867 250 848 q 477 872 398 885 q 615 817 556 859 q 701 703 674 774 q 698 537 728 631 q 686 506 693 522 q 665 469 680 491 q 622 414 650 446 q 550 332 594 381 q 439 216 506 283 q 280 54 372 148 q 363 53 315 54 q 458 53 411 52 q 544 57 506 54 q 604 70 583 61 q 639 56 628 83 q 646 -10 650 28 q 626 -82 643 -48 q 578 -117 609 -117 q 484 -117 544 -117 q 357 -116 424 -117 q 227 -115 291 -115 q 124 -115 163 -115 q 89 -113 107 -115 q 54 -99 70 -111 q 27 -61 37 -87 q 17 11 17 -35 q 27 67 17 39 q 51 118 37 94 q 81 160 65 141 q 106 193 96 180 l 456 548 l 454 550 z "},"3":{"ha":656,"x_min":17,"x_max":639,"o":"m 313 467 q 383 510 357 472 q 415 594 409 548 q 403 680 420 641 q 339 728 385 719 q 277 720 302 733 q 238 682 252 707 q 220 623 224 657 q 226 554 217 589 q 222 551 226 552 q 215 548 219 550 q 109 549 156 531 q 59 611 63 567 q 79 730 54 678 q 150 816 104 781 q 255 867 196 850 q 374 878 313 883 q 554 809 489 867 q 628 663 619 752 q 619 574 633 617 q 581 496 606 531 q 529 438 557 461 q 474 409 500 415 q 591 328 550 380 q 635 189 631 276 q 609 56 639 117 q 528 -44 580 -4 q 407 -103 476 -83 q 263 -113 339 -122 q 149 -83 196 -106 q 72 -31 102 -61 q 30 35 43 0 q 19 104 17 70 q 39 156 20 133 q 79 193 57 180 q 118 206 100 206 q 135 193 135 207 q 155 114 133 146 q 209 65 176 81 q 281 47 243 48 q 355 62 320 46 q 411 111 389 78 q 431 196 433 144 q 400 295 430 269 q 326 337 370 322 q 309 338 322 337 q 282 340 296 339 q 256 342 269 341 q 239 343 243 343 q 212 363 219 344 q 206 404 206 381 q 217 444 207 426 q 241 463 226 463 q 258 464 246 463 q 282 465 270 465 q 304 466 294 465 q 313 467 313 467 z "},"4":{"ha":737,"x_min":17,"x_max":720,"o":"m 594 419 q 666 394 637 419 q 707 342 694 370 q 716 287 720 313 q 687 259 711 261 q 679 262 683 259 q 665 269 674 265 q 639 275 656 272 q 596 278 622 278 q 586 277 593 278 q 576 276 580 276 q 565 106 565 189 q 580 -46 565 9 l 585 -65 q 586 -72 585 -67 q 593 -81 587 -78 l 591 -81 q 592 -87 591 -85 q 593 -91 593 -89 q 567 -112 593 -109 q 511 -115 541 -115 q 456 -106 485 -115 q 403 -76 428 -98 q 361 -14 378 -54 q 344 91 344 26 q 347 176 344 137 q 354 252 350 215 q 286 247 315 252 q 224 243 257 243 q 70 260 124 243 q 17 341 17 278 q 27 482 17 394 q 37 670 37 570 q 35 710 37 683 q 31 767 33 737 q 29 821 30 796 q 30 856 28 846 q 41 870 31 865 q 63 878 50 876 q 88 880 76 880 q 107 880 100 880 q 180 860 152 880 q 223 804 207 841 q 244 714 239 767 q 248 596 248 661 q 247 523 246 565 q 241 435 248 481 l 237 411 l 374 411 q 381 601 380 500 q 383 791 383 702 q 382 809 383 798 q 381 833 381 820 q 392 871 381 863 q 417 880 402 880 q 555 841 511 880 q 598 709 598 802 q 598 621 598 672 q 596 513 598 570 l 594 419 z "},"5":{"ha":656,"x_min":19,"x_max":639,"o":"m 637 259 q 624 135 639 204 q 566 8 609 67 q 448 -87 522 -50 q 257 -117 374 -124 q 166 -95 209 -115 q 89 -44 122 -76 q 37 32 56 -11 q 19 126 19 76 q 56 256 20 217 q 128 304 93 296 q 181 295 150 309 q 235 262 213 281 q 264 224 257 243 q 246 198 270 206 q 213 176 228 193 q 198 117 198 159 q 204 100 200 111 q 218 77 207 89 q 244 56 228 65 q 287 46 259 46 q 351 58 319 46 q 409 97 383 70 q 449 165 435 124 q 456 261 463 206 q 414 351 448 320 q 331 396 380 381 q 230 417 283 411 q 131 430 176 422 q 56 453 85 437 q 26 506 26 469 l 52 744 q 61 824 57 796 q 74 864 65 852 q 100 877 83 876 q 150 876 117 878 q 275 871 206 872 q 407 870 344 870 q 519 873 470 870 q 580 880 567 876 q 606 867 594 885 q 613 823 617 848 q 587 773 609 798 q 513 741 565 748 q 452 735 487 737 q 381 733 417 733 q 310 734 344 733 q 254 737 276 735 l 244 552 q 398 533 328 550 q 520 482 469 517 q 603 394 572 448 q 637 259 633 339 z "},"6":{"ha":685,"x_min":17,"x_max":669,"o":"m 400 880 q 480 875 437 881 q 560 850 522 869 q 623 801 598 831 q 650 724 648 770 q 633 672 650 704 q 594 617 617 641 q 553 584 572 593 q 528 600 533 576 q 510 657 522 630 q 481 703 498 685 q 437 725 463 720 q 378 713 411 730 q 344 685 363 706 q 306 631 326 665 q 271 549 287 596 q 248 444 256 502 q 321 467 283 459 q 396 474 359 474 q 478 465 435 474 q 618 376 567 444 q 669 224 669 307 q 631 54 669 120 q 542 -52 593 -13 q 436 -106 491 -91 q 348 -120 381 -120 q 242 -99 300 -120 q 133 -27 183 -78 q 50 111 83 24 q 19 330 17 198 q 44 531 20 435 q 114 703 67 628 q 231 826 161 778 q 400 880 302 874 m 333 6 q 376 21 356 6 q 412 63 396 37 q 437 122 428 89 q 446 193 446 156 q 420 303 446 254 q 352 352 394 352 q 309 338 330 352 q 272 299 289 324 q 245 241 256 274 q 235 170 235 207 q 261 56 235 106 q 333 6 287 6 z "},"7":{"ha":626,"x_min":39,"x_max":607,"o":"m 576 430 q 600 385 591 407 q 597 345 607 359 q 567 324 587 331 q 519 315 546 317 q 470 313 493 313 q 460 182 465 248 q 452 60 456 117 q 447 -37 448 4 q 446 -93 446 -78 q 408 -113 446 -104 q 326 -120 370 -122 q 245 -100 281 -119 q 211 -39 209 -81 q 215 11 213 -17 q 221 79 217 39 q 232 175 226 119 q 246 311 239 231 q 225 314 231 313 q 215 315 219 315 q 185 308 194 315 q 161 302 176 302 l 156 309 q 148 405 139 376 q 204 433 157 433 l 259 431 q 275 577 267 498 q 294 754 283 656 q 226 735 261 743 q 158 726 191 728 q 100 730 126 724 q 63 750 74 735 q 43 789 46 769 q 43 828 39 809 q 51 857 46 846 q 56 869 56 869 q 119 858 78 859 q 205 861 159 857 q 295 870 250 865 q 370 880 341 876 q 426 876 404 883 q 465 853 448 869 q 492 817 481 837 q 509 774 502 796 q 511 676 519 752 q 493 500 504 600 q 489 483 491 491 q 487 467 487 476 q 484 448 485 457 q 483 430 483 439 l 576 430 z "},"8":{"ha":713,"x_min":17,"x_max":696,"o":"m 531 433 q 638 351 600 402 q 686 241 676 300 q 680 120 696 181 q 623 9 663 59 q 520 -75 583 -41 q 376 -115 457 -109 q 216 -95 285 -120 q 101 -25 146 -70 q 36 80 56 20 q 27 202 17 139 q 79 325 37 265 q 196 431 120 385 q 149 469 169 444 q 118 519 130 493 q 100 575 106 546 q 96 630 94 604 q 119 721 98 678 q 171 799 139 765 q 247 855 204 833 q 341 880 291 876 q 447 865 398 881 q 532 818 496 848 q 591 744 569 787 q 619 654 613 702 q 618 595 620 626 q 605 535 615 565 q 576 479 594 506 q 531 433 557 452 m 298 650 q 296 624 296 643 q 309 558 296 591 q 370 526 322 526 q 427 556 409 526 q 444 621 444 585 q 424 687 443 657 q 372 717 406 717 q 327 694 346 717 q 298 650 307 670 m 333 22 q 387 40 363 22 q 429 87 411 57 q 456 154 446 117 q 465 228 465 191 q 425 348 465 307 q 337 389 385 389 q 295 378 317 389 q 256 344 274 367 q 225 286 237 320 q 213 207 213 252 q 218 159 213 191 q 234 97 222 128 q 270 44 246 67 q 333 22 294 22 z "},"9":{"ha":694,"x_min":17,"x_max":678,"o":"m 298 -115 q 218 -110 261 -117 q 135 -86 174 -104 q 69 -37 96 -69 q 37 41 43 -6 q 51 93 35 61 q 87 148 67 124 q 127 181 107 172 q 154 165 146 189 q 204 72 169 106 q 309 52 239 39 q 348 75 324 54 q 394 131 372 96 q 429 216 415 167 q 439 324 443 265 q 375 301 406 309 q 307 293 344 293 q 226 302 269 293 q 144 334 181 311 q 78 390 106 357 q 34 461 50 422 q 19 543 19 500 q 54 716 17 650 q 144 818 91 781 q 252 867 196 854 q 344 880 307 880 q 459 859 402 880 q 564 789 517 839 q 642 654 611 739 q 676 437 672 569 q 656 236 678 333 q 586 63 633 139 q 467 -61 539 -13 q 298 -115 394 -109 m 341 761 q 299 745 319 761 q 266 704 280 730 q 244 644 252 678 q 241 574 237 611 q 251 514 243 543 q 273 463 259 485 q 305 428 287 441 q 344 415 322 415 q 386 429 367 415 q 420 468 406 443 q 443 526 435 493 q 448 596 450 559 q 416 711 444 661 q 341 761 387 761 z "},"A":{"ha":778,"x_min":-139,"x_max":956,"o":"m 263 720 q 320 796 293 765 q 380 846 348 828 q 448 873 411 865 q 530 881 485 881 q 608 876 569 881 q 680 854 648 870 q 731 808 711 837 q 752 735 752 780 q 750 609 752 663 q 746 496 748 556 q 743 358 744 437 q 741 156 741 280 q 759 -38 741 17 q 804 -98 778 -93 q 855 -79 830 -104 q 894 -33 880 -54 q 911 -29 900 -24 q 931 -46 922 -33 q 948 -76 941 -59 q 956 -107 956 -93 q 940 -156 956 -137 q 904 -188 924 -176 q 865 -206 883 -200 q 841 -211 846 -211 q 822 -213 831 -213 q 804 -213 813 -213 q 653 -166 709 -213 q 567 -46 596 -119 q 528 112 537 26 q 519 274 519 198 q 519 308 519 291 q 520 341 520 326 q 436 322 478 331 q 350 304 394 313 q 341 254 344 278 q 335 206 337 230 q 339 132 335 174 q 348 59 343 91 l 357 31 q 369 2 361 7 q 341 -19 367 -13 q 283 -24 315 -24 q 217 -12 246 -24 q 166 29 187 0 q 132 106 144 57 q 120 231 120 156 l 120 276 q 81 276 100 276 q 43 280 63 276 q -44 300 -11 285 q -98 334 -78 315 q -127 374 -119 354 q -137 411 -135 394 q -131 458 -139 433 q -106 503 -124 483 q -62 533 -89 522 q 4 541 -35 544 q 9 537 7 539 q 13 533 11 535 q 17 511 13 524 q 31 484 20 498 q 67 457 43 470 q 133 435 91 444 q 144 433 137 433 q 195 592 165 517 q 263 720 226 667 m 543 678 q 540 728 543 709 q 528 746 537 746 q 499 722 517 746 q 462 657 481 698 q 422 563 443 617 q 383 448 402 509 l 528 467 q 537 577 531 519 q 543 678 543 635 z "},"B":{"ha":859,"x_min":28,"x_max":819,"o":"m 774 667 q 765 579 780 620 q 725 504 750 537 q 670 448 700 470 q 613 420 641 426 q 769 315 722 380 q 817 183 815 248 q 786 64 819 119 q 695 -31 754 9 q 565 -94 637 -72 q 381 -117 476 -120 q 210 -86 287 -113 q 86 -14 133 -59 q 44 91 39 31 q 59 132 46 113 q 88 160 72 152 q 118 163 104 169 q 137 130 131 157 q 199 54 144 89 q 343 19 254 19 q 417 30 378 19 q 488 61 456 41 q 541 113 520 81 q 561 187 561 144 q 545 251 561 220 q 506 304 530 281 q 454 339 481 326 q 404 352 426 352 q 398 250 398 302 q 409 148 398 189 l 415 130 q 419 119 415 122 l 422 111 q 399 81 422 87 q 335 76 376 76 q 278 84 307 76 q 225 116 248 93 q 186 178 202 139 q 170 278 170 217 q 171 306 170 289 q 175 363 172 322 q 184 481 178 404 q 200 689 191 557 q 201 692 200 691 q 202 694 202 693 l 200 694 q 197 695 198 694 q 194 696 196 696 q 171 669 183 685 q 151 636 159 654 q 138 601 143 619 q 135 570 133 583 q 131 569 135 569 q 124 569 128 569 q 57 587 87 565 q 33 657 28 609 q 66 741 39 702 q 137 810 93 780 q 242 860 181 841 q 374 885 302 880 q 527 878 456 891 q 651 835 598 865 q 736 762 704 806 q 774 667 769 719 m 550 656 q 504 706 539 693 q 420 702 469 720 q 408 597 411 650 q 406 491 406 544 q 409 464 406 476 q 430 454 413 452 q 486 473 459 457 q 531 515 513 489 q 556 576 550 541 q 550 656 563 611 z "},"C":{"ha":661,"x_min":-31,"x_max":652,"o":"m 278 -113 q 130 -54 191 -102 q 32 64 69 -6 q -18 219 -4 133 q -23 394 -31 306 q 14 569 -15 483 q 91 721 43 654 q 204 833 139 789 q 350 885 269 878 q 481 873 428 893 q 567 818 533 854 q 616 734 600 781 q 631 637 631 687 q 599 493 630 541 q 520 435 569 444 q 478 436 502 431 q 434 456 454 441 q 406 495 415 470 q 407 559 396 520 q 463 549 437 541 q 502 580 489 557 q 517 639 520 613 q 498 684 513 665 q 459 714 483 704 q 413 724 435 724 q 335 686 372 724 q 267 594 298 648 q 225 499 241 550 q 202 404 209 448 q 196 249 191 324 q 228 122 202 174 q 303 54 252 74 q 409 40 354 33 q 515 80 465 46 q 587 174 565 113 q 605 202 594 198 q 624 194 615 206 q 640 162 633 183 q 648 113 646 141 q 628 26 652 70 q 556 -54 604 -19 q 437 -106 507 -89 q 278 -113 367 -124 z "},"D":{"ha":872,"x_min":-20,"x_max":859,"o":"m 859 433 q 830 229 859 326 q 736 56 800 131 q 570 -67 672 -20 q 324 -117 469 -113 q 199 -101 256 -119 q 101 -56 143 -83 q 35 1 59 -30 q 7 54 11 31 q 12 106 2 81 q 36 143 22 130 q 66 155 50 156 q 87 135 81 154 q 154 50 102 89 q 313 11 206 11 q 455 46 391 11 q 561 142 519 81 q 623 280 604 202 q 635 441 643 357 q 566 630 624 557 q 406 702 507 702 q 405 695 404 698 q 406 689 406 693 q 387 470 394 570 q 380 296 380 370 q 394 148 380 204 l 400 133 l 400 130 q 402 128 400 128 q 406 118 402 124 q 411 107 409 111 q 381 83 409 91 q 322 76 354 76 q 231 100 276 76 q 167 193 187 124 q 156 266 157 230 q 157 339 156 302 q 158 352 157 343 q 162 396 159 361 q 170 505 165 431 q 185 709 176 578 l 161 698 q 133 664 146 687 q 111 617 120 641 q 96 571 102 593 q 91 539 91 550 q 87 537 91 537 q 80 537 83 537 q 11 564 43 535 q -15 641 -20 593 q 26 744 -9 698 q 114 819 61 789 q 231 867 167 850 q 363 883 296 883 q 559 852 469 883 q 717 761 650 820 q 821 619 783 702 q 859 433 859 535 z "},"E":{"ha":711,"x_min":0,"x_max":674,"o":"m 381 454 q 394 453 383 454 q 417 452 404 452 q 442 451 430 452 q 459 450 454 450 q 484 437 474 450 q 495 409 494 424 q 488 381 496 394 q 457 367 480 369 q 444 365 454 367 q 421 361 433 363 q 399 357 409 359 q 385 356 389 356 q 292 299 333 341 q 244 204 250 257 q 260 115 239 150 q 317 63 281 80 q 396 46 352 46 q 481 63 441 46 q 549 114 520 80 q 585 198 578 148 q 601 216 587 215 q 631 205 615 217 q 658 167 646 193 q 670 104 670 141 q 653 35 670 70 q 601 -31 635 0 q 513 -83 567 -61 q 387 -113 459 -106 q 232 -103 304 -122 q 108 -42 161 -83 q 28 60 56 0 q 6 196 0 120 q 64 341 13 291 q 198 420 115 391 q 142 450 170 426 q 90 509 113 474 q 56 589 67 544 q 54 680 44 633 q 147 828 72 770 q 348 889 222 885 q 468 879 406 893 q 577 832 530 865 q 649 749 624 800 q 661 626 674 698 q 619 569 652 580 q 552 572 585 557 q 544 574 548 572 q 541 578 541 576 q 540 648 552 620 q 504 691 528 676 q 450 708 480 706 q 394 704 420 711 q 319 652 344 691 q 292 571 293 613 q 313 494 291 530 q 381 454 335 459 z "},"F":{"ha":700,"x_min":-109,"x_max":931,"o":"m 87 891 q 215 887 157 891 q 327 879 272 883 q 438 870 381 874 q 563 867 494 867 q 684 881 641 867 q 748 916 728 896 q 773 954 769 935 q 778 981 778 972 q 791 987 778 985 q 813 989 804 989 q 867 978 844 989 q 904 949 889 967 q 925 910 919 931 q 931 867 931 889 q 918 822 931 850 q 868 769 904 794 q 769 726 831 744 q 609 707 706 707 q 509 712 559 707 q 409 726 459 717 q 408 675 409 694 q 406 637 407 656 q 402 595 404 619 q 398 535 400 572 q 480 548 431 541 q 576 556 528 556 q 647 548 613 556 q 702 520 681 541 l 709 507 q 719 454 719 483 q 714 417 719 435 q 700 398 709 398 q 669 403 687 398 q 624 407 650 407 q 556 406 593 407 q 486 401 520 404 q 424 396 452 398 q 385 393 396 394 q 379 348 381 381 q 374 272 376 315 q 371 183 372 230 q 370 96 370 137 q 376 9 370 50 q 396 -63 381 -31 q 402 -78 400 -72 q 404 -89 404 -83 q 393 -103 404 -98 q 367 -110 381 -107 q 338 -114 352 -113 q 317 -115 324 -115 q 265 -106 293 -115 q 213 -77 237 -98 q 173 -19 189 -56 q 157 78 157 19 q 159 158 157 111 q 164 257 161 206 q 169 360 167 309 q 174 452 172 411 q 184 630 178 552 q 191 757 191 707 l 191 761 q 131 768 159 765 q 76 770 102 770 q 23 767 44 770 q -14 756 2 763 q -42 742 -30 750 q -69 724 -54 733 q -83 719 -78 719 q -109 756 -109 719 q -90 819 -109 793 q -41 860 -70 844 q 23 883 -11 876 q 87 891 57 891 z "},"G":{"ha":759,"x_min":-2,"x_max":717,"o":"m 302 -50 q 139 1 202 -48 q 43 126 76 50 q 4 295 9 202 q 13 478 -2 389 q 54 624 26 554 q 126 749 81 694 q 231 839 170 804 q 374 881 293 874 q 475 869 431 887 q 550 819 519 852 q 599 744 581 787 q 620 657 617 702 q 599 487 630 552 q 506 398 569 422 q 460 392 487 391 q 413 405 433 393 q 384 441 393 417 q 396 504 376 465 q 448 501 424 489 q 487 538 472 513 q 506 595 502 563 q 503 656 511 628 q 471 699 494 683 q 407 709 448 715 q 335 678 367 704 q 281 618 304 652 q 244 546 259 583 q 224 481 230 509 q 206 339 207 411 q 219 209 204 267 q 269 119 233 152 q 365 94 306 85 q 436 130 404 100 q 494 200 469 159 q 535 288 519 241 q 557 378 552 335 q 563 402 559 389 q 572 427 567 415 q 587 447 578 439 q 607 456 596 456 q 667 435 633 456 q 707 378 700 415 q 715 321 713 352 q 717 261 717 291 q 711 144 717 204 q 696 41 706 83 q 566 -200 665 -115 q 294 -276 467 -285 q 196 -260 233 -274 q 140 -229 159 -246 q 113 -192 120 -211 q 106 -157 106 -172 q 125 -81 102 -115 q 202 -39 148 -48 q 285 -108 233 -91 q 390 -112 337 -126 q 484 -53 443 -98 q 535 67 526 -7 q 440 -22 496 7 q 302 -50 383 -52 z "},"H":{"ha":763,"x_min":-154,"x_max":976,"o":"m 122 883 q 258 831 220 880 q 300 687 296 783 q 299 646 300 667 q 298 600 298 626 l 294 439 q 320 442 307 441 q 348 446 333 443 l 513 467 q 514 544 513 500 q 516 633 515 587 q 518 722 517 680 q 517 796 519 765 q 509 866 513 848 q 515 883 506 883 q 620 875 578 883 q 688 847 663 867 q 724 794 713 828 q 737 709 735 761 q 736 577 741 654 q 728 413 731 500 q 721 298 724 363 q 720 169 719 233 q 732 46 722 104 q 765 -44 743 -11 q 805 -80 783 -72 q 847 -82 826 -87 q 888 -63 869 -78 q 922 -30 907 -48 q 941 -21 931 -19 q 956 -36 950 -24 q 969 -66 963 -48 q 974 -98 974 -83 q 954 -151 976 -131 q 904 -181 931 -170 q 852 -194 876 -191 q 822 -196 828 -196 q 652 -157 715 -196 q 556 -63 589 -119 q 515 55 524 -7 q 504 165 506 117 l 504 204 l 506 341 q 399 319 454 331 q 287 294 344 306 q 286 231 287 261 q 287 174 285 200 q 289 128 287 152 q 294 81 291 104 q 303 42 296 59 q 319 17 309 24 l 322 11 q 298 -18 324 -11 q 233 -24 272 -24 q 179 -16 207 -24 q 125 15 150 -7 q 82 74 100 37 q 63 169 65 111 q 63 210 61 189 q 63 256 65 231 l 63 276 l 28 280 q -59 300 -26 285 q -113 334 -93 315 q -142 374 -133 354 q -152 411 -150 394 q -146 458 -154 433 q -121 503 -139 483 q -77 533 -104 522 q -11 541 -50 544 q -6 537 -7 539 q -2 533 -4 535 q 9 494 0 519 q 67 450 19 470 l 74 728 q 72 750 76 731 q 44 747 61 759 q 12 715 28 735 q -15 671 -4 694 q -28 637 -26 648 q -31 636 -28 635 q -39 637 -35 637 q -98 673 -74 644 q -106 746 -122 702 q -12 854 -76 824 q 122 883 52 883 z "},"I":{"ha":463,"x_min":2,"x_max":443,"o":"m 198 748 q 170 747 187 759 q 138 714 154 735 q 110 669 122 693 q 96 635 98 646 q 93 634 96 633 q 85 635 89 635 q 26 671 50 643 q 19 744 2 700 q 81 833 39 796 q 196 881 122 870 q 364 849 309 898 q 424 687 419 800 q 423 646 424 667 q 422 600 422 626 q 410 259 417 389 q 406 81 404 130 q 407 35 406 59 q 412 -11 409 11 q 421 -51 415 -33 q 437 -76 428 -69 l 441 -81 q 417 -110 443 -104 q 352 -117 391 -117 q 297 -108 326 -117 q 244 -78 269 -100 q 201 -19 219 -56 q 181 76 183 19 q 181 163 180 117 l 198 728 q 198 748 202 733 z "},"J":{"ha":596,"x_min":-100,"x_max":685,"o":"m 217 -181 q 119 -166 156 -180 q 62 -134 81 -152 q 35 -97 43 -117 q 28 -63 28 -78 q 47 13 24 -20 q 124 56 70 46 q 196 -12 150 11 q 287 -11 243 -35 q 305 12 298 -6 q 314 52 311 30 q 318 99 317 74 q 319 146 319 124 q 318 205 319 170 q 315 292 317 239 q 309 419 313 344 q 304 600 306 494 q 302 657 304 626 q 300 709 300 689 q 271 744 300 724 q 167 770 243 763 q 88 754 113 767 q 51 726 63 741 q 35 698 39 711 q 24 683 31 685 q -70 723 -41 687 q -100 802 -100 759 q -94 843 -100 817 q -63 893 -87 869 q 7 931 -39 917 q 133 939 54 946 q 251 916 202 933 q 346 880 300 898 q 442 847 393 861 q 557 833 491 833 q 612 846 591 833 q 661 859 633 859 q 685 824 685 859 q 641 738 685 772 q 531 704 596 704 l 528 704 q 537 422 533 528 q 542 257 541 317 q 543 175 543 198 q 543 141 543 152 q 456 -103 535 -19 q 217 -181 376 -187 z "},"K":{"ha":761,"x_min":4,"x_max":1094,"o":"m 178 752 q 147 733 163 752 q 118 693 131 715 q 94 652 104 670 q 85 633 85 633 q 29 657 54 633 q 4 713 4 681 q 21 777 4 746 q 69 831 39 807 q 140 869 100 856 q 224 883 180 883 q 361 822 313 883 q 409 659 409 761 q 408 643 409 650 q 407 628 407 635 q 406 626 406 628 l 407 626 l 407 619 q 409 624 409 620 q 407 626 409 626 q 498 703 454 656 q 577 797 543 750 q 632 880 611 844 q 654 920 654 915 q 674 933 656 933 q 709 923 689 933 q 749 895 730 913 q 781 854 769 878 q 794 800 794 830 q 771 717 794 756 q 709 638 748 678 q 620 555 670 598 q 517 457 570 511 q 557 391 535 430 q 601 311 580 352 q 642 231 622 270 q 676 161 661 191 q 760 17 717 78 q 844 -82 804 -44 q 919 -137 885 -120 q 972 -148 952 -154 q 997 -124 993 -144 q 1002 -85 1002 -104 q 1016 -65 1002 -69 q 1046 -67 1030 -61 q 1078 -87 1063 -72 q 1093 -120 1093 -102 q 1073 -210 1094 -176 q 1020 -262 1052 -244 q 950 -284 989 -280 q 876 -285 911 -289 q 733 -235 796 -276 q 626 -148 670 -194 q 557 -65 581 -102 q 533 -26 533 -28 q 465 108 493 43 q 404 237 437 174 l 398 185 q 395 139 394 159 q 394 104 396 119 q 395 55 394 81 q 400 2 396 28 q 410 -45 404 -24 q 428 -76 417 -67 l 431 -81 q 406 -110 431 -104 q 343 -117 381 -117 q 282 -106 313 -117 q 227 -69 252 -96 q 186 3 202 -43 q 170 119 170 48 q 171 137 170 124 q 175 188 172 150 q 181 295 178 226 q 191 481 185 365 q 192 518 191 481 q 194 599 193 554 q 194 685 194 644 q 191 735 194 726 q 186 748 187 744 q 178 752 185 752 m 407 626 l 407 628 l 407 626 z "},"L":{"ha":391,"x_min":-2,"x_max":1028,"o":"m 35 600 q 38 708 35 657 q 57 796 41 759 q 109 856 74 833 q 211 883 144 880 q 329 863 276 887 q 413 769 381 839 q 406 696 431 726 q 346 659 381 667 q 339 658 343 659 q 335 659 335 657 q 326 690 333 670 q 307 726 319 709 q 283 751 296 743 q 259 748 270 759 q 259 728 256 733 q 267 473 263 578 q 272 297 270 369 q 274 181 274 226 q 274 109 274 137 q 273 65 274 81 q 270 31 272 48 q 346 7 311 20 q 415 -19 381 -6 q 481 -47 448 -33 q 552 -74 515 -61 q 678 -113 619 -96 q 774 -130 737 -130 q 856 -116 826 -130 q 906 -85 887 -102 q 932 -55 924 -69 q 946 -41 941 -41 q 991 -61 972 -41 q 1019 -110 1009 -81 q 1028 -170 1028 -139 q 1019 -224 1028 -202 q 1000 -256 1013 -239 q 965 -286 987 -272 q 906 -309 943 -300 q 819 -317 870 -319 q 649 -284 730 -315 q 494 -214 569 -254 q 352 -135 420 -174 q 217 -74 283 -96 q 173 -100 200 -89 q 118 -117 146 -111 q 62 -118 89 -122 q 19 -93 35 -113 q 2 -44 6 -78 q 30 22 -2 -9 l 50 39 q 52 60 52 50 q 52 81 52 70 q 47 259 54 130 q 35 600 41 389 m 120 -20 q 95 -16 111 -13 q 80 -26 80 -19 q 96 -37 80 -31 q 122 -35 113 -43 q 120 -20 130 -28 z "},"M":{"ha":1226,"x_min":0,"x_max":1224,"o":"m 174 754 q 144 735 159 754 q 114 694 128 717 q 91 654 100 672 q 81 635 81 635 q 25 658 50 635 q 0 713 0 681 q 14 771 0 743 q 53 824 28 800 q 111 864 78 848 q 183 883 144 880 q 351 849 291 893 q 411 709 411 806 q 411 689 411 700 q 409 669 411 678 l 415 674 q 450 736 428 694 q 509 815 472 778 q 582 863 543 848 q 656 871 622 878 q 717 838 691 865 q 752 765 743 811 q 758 693 757 733 q 759 594 759 652 q 800 676 781 631 q 839 746 819 720 q 948 857 898 828 q 1059 887 998 887 q 1102 882 1078 887 q 1146 861 1126 878 q 1181 814 1167 844 q 1196 733 1196 783 q 1191 618 1196 680 q 1180 494 1185 556 q 1169 379 1174 433 q 1165 287 1165 324 q 1163 203 1165 254 q 1164 100 1161 152 q 1177 3 1167 48 q 1209 -63 1187 -43 q 1208 -92 1224 -76 q 1160 -115 1193 -107 q 1085 -116 1128 -122 q 1006 -80 1043 -109 q 965 -19 978 -57 q 947 60 952 19 q 943 140 943 102 q 943 200 943 178 q 946 307 943 246 q 955 428 950 369 q 964 539 959 487 q 969 622 969 591 q 959 681 969 670 q 937 680 950 691 q 911 646 924 669 q 891 609 898 624 q 819 466 856 546 q 778 274 781 385 q 777 194 776 237 q 800 111 778 150 q 794 90 806 100 q 757 73 781 80 q 703 67 733 67 q 644 77 672 67 q 592 110 615 87 q 559 172 569 133 q 550 270 550 213 q 555 386 550 328 q 565 497 559 444 q 570 583 570 550 q 559 650 570 641 q 534 644 548 659 q 506 603 520 630 q 483 561 491 576 q 446 479 465 524 q 412 381 428 433 q 387 270 396 328 q 378 156 378 213 q 380 116 378 137 q 384 75 381 94 q 392 40 387 56 q 404 17 396 24 l 407 11 q 381 -18 407 -11 q 317 -24 354 -24 q 262 -16 291 -24 q 209 14 233 -7 q 169 72 185 35 q 154 165 154 109 q 156 207 154 178 q 159 270 157 237 q 163 335 161 304 q 167 381 165 367 q 176 512 172 448 q 181 628 180 576 q 181 713 181 680 q 174 754 180 746 z "},"N":{"ha":831,"x_min":-6,"x_max":846,"o":"m 478 570 q 406 381 441 491 q 372 156 372 272 q 374 116 372 137 q 379 75 376 94 q 386 40 381 56 q 398 17 391 24 l 402 11 q 375 -18 402 -11 q 311 -24 348 -24 q 256 -16 285 -24 q 204 14 228 -7 q 164 72 180 35 q 148 165 148 109 q 150 207 148 178 q 154 270 152 237 q 157 335 156 304 q 161 381 159 367 q 170 512 167 448 q 175 628 174 576 q 175 713 176 680 q 169 754 174 746 q 138 735 154 754 q 108 694 122 717 q 85 654 94 672 q 76 635 76 635 q 19 658 44 635 q -6 713 -6 681 q 8 771 -6 743 q 47 824 22 800 q 106 864 72 848 q 178 883 139 880 q 345 849 285 893 q 406 709 406 806 q 406 689 406 700 q 404 669 406 678 l 409 674 q 411 676 409 676 q 442 732 426 707 q 474 781 457 757 q 568 867 520 846 q 669 887 615 887 q 711 882 687 887 q 756 861 735 878 q 791 814 776 844 q 806 733 806 783 q 802 618 806 680 q 794 495 798 556 q 785 381 789 435 q 781 291 781 328 q 781 206 781 257 q 783 101 780 154 q 798 3 787 48 q 831 -63 809 -43 q 831 -92 846 -76 q 782 -115 815 -107 q 707 -116 750 -122 q 628 -80 665 -109 q 585 -20 600 -57 q 563 57 570 17 q 554 136 556 98 q 552 196 552 174 q 556 352 552 285 q 565 469 559 419 q 574 555 570 519 q 578 622 578 591 q 569 681 578 670 q 546 680 559 691 q 520 646 533 669 q 500 609 507 624 l 478 570 z "},"O":{"ha":767,"x_min":13,"x_max":739,"o":"m 450 791 q 456 735 456 763 q 454 683 457 707 q 409 623 444 635 q 341 624 374 611 q 331 630 331 630 q 336 673 335 643 q 333 731 337 704 q 325 764 330 756 q 316 770 320 772 q 306 757 311 769 q 293 731 300 746 q 268 644 280 707 q 247 502 256 581 q 239 334 239 422 q 252 174 239 246 q 293 55 265 102 q 369 7 320 7 q 459 61 424 7 q 512 196 494 115 q 532 376 530 278 q 527 565 535 474 q 501 725 519 656 q 463 819 483 794 q 444 842 454 830 q 431 863 435 854 q 430 879 426 872 q 450 885 433 885 q 580 843 522 881 q 680 719 637 804 q 722 569 706 665 q 739 365 739 474 q 709 144 739 233 q 634 0 680 56 q 531 -81 589 -56 q 417 -113 474 -107 q 223 -87 300 -122 q 101 7 146 -52 q 37 141 56 67 q 17 281 19 215 q 27 481 13 374 q 79 679 41 589 q 181 825 117 769 q 341 876 244 881 q 411 858 383 872 q 450 791 439 844 z "},"P":{"ha":672,"x_min":-39,"x_max":774,"o":"m 406 167 q 406 120 406 141 q 407 80 407 100 q 366 -65 404 -17 q 230 -117 328 -113 q 187 -113 215 -117 q 152 -98 159 -109 l 148 -96 q 158 -70 152 -98 q 169 35 165 -43 q 172 250 172 113 q 165 604 172 387 q 165 644 167 624 q 163 683 163 663 q 133 656 150 672 q 102 626 117 641 q 77 596 87 611 q 69 570 67 581 q 65 569 69 569 q 57 569 61 569 q -9 587 20 565 q -33 657 -39 609 q 12 752 -28 709 q 109 823 52 794 q 232 869 167 852 q 357 887 298 885 q 640 836 544 894 q 757 667 735 778 q 754 513 774 585 q 685 388 733 441 q 564 307 637 335 q 402 287 491 280 q 403 229 402 259 q 406 167 404 198 m 398 413 q 422 413 406 411 q 478 439 452 417 q 520 494 504 461 q 542 569 537 528 q 533 656 546 611 q 482 710 522 693 q 394 709 443 728 q 389 635 387 665 q 391 581 391 606 l 398 413 z "},"Q":{"ha":765,"x_min":9,"x_max":952,"o":"m 446 794 q 450 693 459 737 q 406 636 441 648 q 337 637 370 624 q 330 638 333 637 q 328 641 326 639 q 332 683 331 654 q 330 739 333 713 q 312 776 320 783 q 289 739 304 769 q 264 656 276 717 q 244 519 252 596 q 235 359 235 443 q 248 206 235 276 q 289 92 261 137 q 365 46 317 46 q 459 102 420 46 q 417 156 441 130 q 356 213 393 183 q 306 234 330 231 q 259 252 281 237 q 251 271 250 259 q 261 294 252 283 q 302 329 278 317 q 353 343 326 341 q 406 335 380 344 q 456 302 433 326 l 511 241 q 529 411 528 319 q 521 587 530 504 q 496 734 513 670 q 459 822 480 798 q 427 864 439 843 q 446 885 415 885 q 576 844 519 881 q 676 726 633 807 q 719 584 702 676 q 735 389 735 493 q 714 207 733 283 q 659 78 694 131 q 766 -5 720 19 q 843 -32 811 -28 q 894 -29 874 -37 q 924 -15 913 -20 q 943 -120 952 -69 q 893 -197 933 -172 q 785 -211 852 -222 q 631 -128 719 -200 q 539 -31 574 -78 q 413 -69 481 -63 q 219 -44 296 -78 q 97 46 143 -11 q 33 174 52 104 q 13 309 15 244 q 23 500 9 398 q 75 688 37 602 q 177 828 113 774 q 337 876 241 881 q 407 859 380 872 q 446 794 435 846 z "},"R":{"ha":761,"x_min":-39,"x_max":954,"o":"m 935 -30 q 940 -109 954 -63 q 885 -184 926 -156 q 779 -207 844 -213 q 628 -130 713 -202 q 543 -41 581 -91 q 475 56 504 9 q 428 138 446 102 q 404 185 409 174 q 405 175 404 180 q 406 167 406 170 q 406 120 406 141 q 407 80 407 100 q 366 -65 404 -17 q 230 -117 328 -113 q 187 -113 215 -117 q 152 -98 159 -109 l 148 -96 q 158 -70 152 -98 q 169 35 165 -43 q 172 250 172 113 q 165 604 172 387 q 165 644 167 624 q 163 683 163 663 q 133 656 150 672 q 102 626 117 641 q 77 596 87 611 q 69 570 67 581 q 65 569 69 569 q 57 569 61 569 q -9 587 20 565 q -33 657 -39 609 q 18 752 -28 709 q 124 824 63 794 q 250 870 185 854 q 357 887 315 887 q 631 829 522 891 q 767 661 741 767 q 767 534 781 596 q 714 421 752 472 q 620 336 676 370 q 498 291 565 302 q 577 190 528 250 q 685 77 626 130 q 809 -8 744 24 q 935 -30 874 -41 m 398 413 q 422 413 406 411 q 478 439 452 417 q 520 494 504 461 q 542 569 537 528 q 533 656 546 611 q 482 710 522 693 q 394 709 443 728 q 389 635 387 665 q 391 581 391 606 l 398 413 z "},"S":{"ha":733,"x_min":-11,"x_max":698,"o":"m 309 -109 q 126 -56 206 -104 q 15 67 46 -7 q -2 193 -11 131 q 44 296 7 254 q 139 357 80 339 q 272 356 198 376 q 321 321 302 346 q 345 272 341 296 q 337 234 350 248 q 289 237 324 220 q 233 246 257 252 q 194 223 209 241 q 172 179 178 206 q 172 124 167 152 q 210 58 180 80 q 279 34 241 37 q 356 47 317 31 q 423 94 396 63 q 458 169 450 124 q 443 269 467 213 q 356 385 417 330 q 213 517 296 441 q 138 645 154 580 q 146 767 122 711 q 231 858 170 822 q 385 898 293 894 q 478 892 430 900 q 568 864 526 883 q 636 813 609 844 q 667 737 663 781 q 638 668 669 696 q 571 626 607 639 q 506 619 535 613 q 480 652 476 624 q 469 713 485 696 q 429 727 452 730 q 386 707 406 724 q 369 672 367 691 q 380 643 370 657 q 415 613 389 628 q 537 525 485 567 q 624 439 589 483 q 680 329 661 389 q 697 207 698 269 q 674 90 696 146 q 607 -11 652 33 q 472 -90 552 -65 q 309 -109 393 -115 z "},"T":{"ha":617,"x_min":-20,"x_max":1017,"o":"m 170 891 q 299 887 241 891 q 412 879 357 883 q 523 870 467 874 q 648 867 580 867 q 769 881 726 867 q 832 916 813 896 q 856 954 852 935 q 859 981 859 972 q 872 987 859 985 q 894 989 885 989 q 948 978 926 989 q 986 949 970 967 q 1009 910 1002 931 q 1017 867 1017 889 q 1003 822 1017 850 q 954 769 989 794 q 856 726 919 744 q 696 707 793 707 q 634 709 667 707 q 572 715 602 711 q 564 473 569 617 q 563 172 559 330 q 570 42 565 102 q 602 -63 576 -19 q 607 -78 606 -72 q 609 -91 609 -83 q 599 -103 609 -98 q 575 -110 589 -107 q 547 -114 561 -113 q 526 -115 533 -115 q 474 -106 504 -115 q 419 -77 444 -98 q 376 -19 394 -56 q 357 78 357 19 l 352 193 q 350 365 350 291 q 351 502 350 439 q 353 623 352 565 q 356 748 354 681 q 256 764 304 757 q 167 770 209 770 q 112 767 133 770 q 75 756 91 763 q 46 742 59 750 q 19 724 33 733 q 4 719 9 719 q -20 756 -20 719 q -2 819 -20 793 q 44 860 17 844 q 106 883 72 876 q 170 891 141 891 z "},"U":{"ha":852,"x_min":-9,"x_max":861,"o":"m 187 748 q 159 747 176 759 q 127 714 143 735 q 99 669 111 693 q 85 633 87 644 q 81 632 85 631 q 74 633 78 633 q 15 669 39 641 q 7 744 -9 698 q 99 857 39 828 q 233 887 159 887 q 371 831 331 883 q 411 685 411 780 q 401 464 411 567 q 391 256 391 361 q 401 213 391 230 q 426 196 411 196 q 476 241 448 196 q 531 358 504 285 q 581 527 559 431 q 609 724 602 622 q 618 786 613 748 q 613 857 622 824 q 625 878 609 870 q 666 885 641 885 q 721 878 691 885 q 778 855 752 870 q 820 815 804 839 q 835 757 837 791 q 823 543 831 650 q 809 337 815 435 q 804 155 804 239 q 819 11 804 70 q 837 -34 826 -22 q 855 -50 848 -46 q 860 -57 861 -54 q 843 -80 859 -61 q 794 -108 822 -100 q 735 -117 765 -117 q 680 -108 706 -117 q 641 -89 654 -100 q 589 -19 604 -57 q 571 61 574 20 q 572 140 569 102 q 580 209 576 178 q 533 124 556 167 q 480 50 511 81 q 379 -3 433 2 q 277 19 324 -7 q 198 97 230 46 q 167 209 167 148 q 167 219 167 215 q 168 240 167 224 q 169 285 169 256 q 172 371 170 315 q 178 514 174 428 q 187 728 181 600 q 187 748 191 733 z "},"V":{"ha":917,"x_min":72,"x_max":907,"o":"m 765 35 q 707 -41 735 -9 q 648 -91 680 -72 q 580 -118 617 -109 q 498 -126 543 -126 q 422 -119 459 -126 q 355 -97 385 -113 q 304 -53 324 -81 q 276 20 283 -24 q 265 137 267 78 q 265 257 263 196 q 268 382 267 319 q 265 513 269 446 q 242 701 257 648 q 207 757 226 754 q 169 736 189 761 q 137 691 150 711 q 119 684 131 681 q 97 700 107 687 q 80 734 87 713 q 76 783 72 756 q 94 832 78 813 q 131 864 111 852 q 168 881 150 876 q 191 887 185 887 q 209 889 200 889 q 228 889 219 889 q 379 844 322 889 q 465 732 435 800 q 501 582 494 665 q 504 424 507 500 q 499 335 500 372 q 496 262 498 298 q 493 184 494 226 q 487 85 491 143 q 488 31 485 54 q 500 9 491 9 q 546 61 517 9 q 606 193 576 113 q 659 368 635 272 q 693 550 683 463 q 689 623 693 581 q 680 696 685 665 l 670 724 q 665 744 667 739 q 659 754 663 750 q 687 774 661 769 q 744 780 713 780 q 810 768 780 780 q 862 727 841 756 q 895 648 883 698 q 907 524 907 598 q 895 385 907 454 q 864 253 883 317 q 819 133 844 189 q 765 35 793 78 z "},"W":{"ha":1148,"x_min":-70,"x_max":1143,"o":"m 337 -126 q 264 -119 300 -126 q 199 -97 228 -113 q 150 -53 170 -81 q 122 20 130 -24 q 112 256 106 137 q 113 507 119 374 q 92 698 107 643 q 57 763 76 754 q 20 750 39 772 q -11 707 2 728 q -27 703 -17 698 q -47 720 -37 707 q -64 750 -57 733 q -70 781 -70 767 q -55 831 -70 811 q -19 862 -39 850 q 18 880 0 874 q 41 885 35 885 q 58 887 50 887 q 76 887 67 887 q 223 844 169 887 q 307 732 278 800 q 345 582 337 665 q 354 424 354 500 q 353 368 354 402 q 350 296 352 333 q 346 221 348 259 q 344 156 344 183 q 350 73 343 106 q 372 37 357 41 q 407 63 387 33 q 452 167 428 93 q 481 258 469 215 q 501 346 493 302 q 516 441 509 391 q 526 554 522 491 q 522 624 526 585 q 513 694 519 663 q 500 739 504 730 q 493 752 496 748 q 577 777 535 774 q 653 759 619 780 q 708 693 687 739 q 731 569 730 646 q 739 360 737 467 q 741 157 741 254 q 746 55 741 93 q 765 10 752 17 q 796 31 778 4 q 843 124 815 59 q 875 217 859 165 q 903 325 891 269 q 922 438 915 381 q 930 548 930 494 q 929 621 930 580 q 922 694 928 663 l 913 722 q 908 743 909 737 q 904 752 907 748 q 930 772 906 767 q 985 778 954 778 q 1049 766 1020 778 q 1098 725 1078 754 q 1131 646 1119 696 q 1143 522 1143 596 q 1131 385 1143 454 q 1101 253 1120 317 q 1056 133 1081 189 q 1006 35 1031 78 q 950 -41 978 -9 q 892 -91 922 -72 q 826 -118 861 -109 q 746 -126 791 -126 q 683 -119 715 -126 q 625 -94 652 -113 q 578 -42 598 -76 q 548 46 557 -7 q 452 -86 498 -46 q 337 -126 406 -126 z "},"X":{"ha":1069,"x_min":156,"x_max":1244,"o":"m 1024 152 q 1080 1 1087 69 q 969 -119 1072 -67 q 953 -123 957 -124 q 944 -113 948 -122 q 930 -86 939 -104 q 900 -43 920 -69 q 771 111 833 41 q 667 237 709 181 q 599 159 637 200 q 521 82 561 119 q 443 21 481 46 q 372 -7 404 -4 q 307 -8 341 -11 q 244 6 274 -6 q 193 41 215 19 q 161 96 170 63 q 159 136 156 119 q 170 166 163 154 q 186 182 178 178 q 196 181 194 187 q 233 151 207 156 q 296 165 259 146 q 380 228 333 183 q 480 344 426 272 l 552 431 q 473 536 515 478 q 406 653 431 594 q 379 763 380 711 q 422 848 378 815 q 457 872 439 861 q 493 889 476 883 q 520 893 509 894 q 533 880 531 891 q 537 865 535 870 q 543 843 539 859 q 565 801 548 828 q 604 742 581 774 q 653 674 626 709 q 704 609 680 639 q 780 700 737 652 q 870 790 822 748 q 975 859 919 831 q 1093 887 1031 887 q 1151 880 1122 887 q 1204 846 1180 872 q 1230 812 1219 831 q 1243 783 1241 793 q 1229 769 1244 772 q 1185 759 1213 765 q 1104 717 1154 752 q 1002 634 1054 681 q 906 536 950 587 q 844 448 863 485 l 828 428 q 914 298 872 361 q 983 204 956 235 l 1024 152 z "},"Y":{"ha":837,"x_min":11,"x_max":865,"o":"m 207 748 q 180 747 196 759 q 147 714 163 735 q 119 669 131 693 q 106 633 107 644 q 102 632 106 631 q 94 633 98 633 q 35 669 59 641 q 28 744 11 698 q 119 857 59 828 q 254 887 180 887 q 392 831 352 883 q 431 685 431 780 q 421 464 431 567 q 411 256 411 361 q 421 213 411 230 q 446 196 431 196 q 496 241 469 196 q 550 358 524 285 q 595 527 576 431 q 619 724 615 622 q 623 786 620 748 q 617 857 626 824 q 645 882 611 876 q 724 878 680 889 q 806 837 769 867 q 843 757 843 807 q 839 597 843 685 q 831 414 835 509 q 822 223 826 319 q 816 44 819 128 q 815 -109 813 -41 q 824 -217 817 -178 q 840 -262 830 -250 q 857 -278 850 -274 q 864 -285 865 -281 q 844 -307 863 -289 q 794 -337 824 -328 q 734 -344 765 -346 q 676 -329 704 -343 q 631 -291 648 -315 q 597 -181 606 -252 q 591 -32 589 -109 q 599 111 593 44 q 607 209 606 178 q 537 95 576 146 q 444 19 498 44 q 413 0 437 4 q 357 -4 389 -4 q 339 -3 348 -4 q 320 0 330 -2 q 274 15 298 4 q 231 48 250 26 q 198 106 211 70 q 185 191 185 141 q 185 203 185 196 q 186 226 185 209 q 189 276 187 243 q 193 367 191 309 q 198 512 194 424 q 207 728 202 600 q 207 748 211 733 z "},"Z":{"ha":720,"x_min":11,"x_max":911,"o":"m 863 -24 q 902 -33 893 -9 q 900 -93 911 -57 q 858 -161 889 -128 q 778 -198 828 -194 q 684 -192 730 -202 q 580 -169 639 -181 q 405 -125 494 -152 q 237 -69 315 -98 q 103 -10 159 -39 q 28 41 46 19 q 15 66 19 50 q 11 96 11 81 q 14 130 11 115 q 28 170 17 144 l 26 170 l 231 380 q 303 454 261 411 q 390 544 344 496 q 481 638 435 591 q 567 724 526 685 q 504 719 539 722 q 431 715 469 717 q 358 711 394 713 q 294 709 322 709 q 183 742 215 709 q 149 811 152 774 q 162 876 146 848 q 193 896 178 904 q 243 870 213 885 q 343 856 272 856 q 426 862 378 856 q 527 875 474 869 q 630 885 580 881 q 717 883 680 889 q 792 856 763 878 q 824 772 820 835 q 793 684 826 735 q 710 578 759 633 q 607 467 661 522 q 515 365 554 411 l 263 109 q 325 80 280 96 q 431 45 370 63 q 558 11 491 28 q 687 -17 626 -6 q 795 -31 748 -28 q 863 -24 843 -33 z "},"a":{"ha":611,"x_min":19,"x_max":593,"o":"m 326 109 q 265 23 300 56 q 165 0 230 -9 q 65 65 102 9 q 24 202 28 120 q 45 387 19 311 q 119 511 72 463 q 187 559 150 544 q 259 573 224 574 q 321 559 294 572 q 359 526 348 546 q 361 518 363 520 q 363 520 359 515 q 407 567 380 557 q 463 570 435 576 q 515 550 491 565 q 550 522 539 535 q 566 493 563 507 q 567 461 569 478 q 559 347 563 419 q 556 211 556 276 q 562 109 556 157 q 583 30 569 61 q 564 3 593 9 q 493 -4 535 -4 q 387 26 433 -4 q 326 109 341 56 m 294 200 q 311 225 306 202 q 319 280 317 248 q 320 344 320 311 q 319 398 320 378 q 306 424 317 420 q 281 411 294 428 q 258 327 263 378 q 263 241 254 276 q 294 200 272 194 z "},"b":{"ha":552,"x_min":19,"x_max":537,"o":"m 244 494 q 256 510 248 500 q 279 531 265 520 q 314 548 293 541 q 367 556 335 556 q 440 532 409 556 q 490 475 470 509 q 519 401 509 441 q 533 328 530 361 q 532 221 537 280 q 506 112 528 163 q 444 28 485 61 q 337 0 404 -6 q 271 34 298 4 q 252 109 244 65 q 249 100 250 109 q 247 79 248 91 q 247 53 246 67 q 250 30 248 39 q 214 6 250 17 q 134 5 178 -4 q 55 47 91 13 q 19 159 19 81 q 23 339 19 243 q 31 532 28 435 q 34 723 35 630 q 24 894 33 817 q 89 924 48 919 q 168 911 130 930 q 232 849 206 893 q 256 733 259 806 l 244 494 m 272 202 q 286 214 280 202 q 298 245 293 226 q 306 288 304 265 q 309 331 309 311 q 298 396 307 369 q 263 428 289 424 l 256 315 q 255 287 256 306 q 255 249 254 269 q 259 216 256 230 q 272 202 263 202 z "},"c":{"ha":554,"x_min":17,"x_max":535,"o":"m 337 326 q 369 379 363 352 q 354 415 374 406 q 265 391 306 433 q 221 287 224 348 q 251 194 219 226 q 343 163 283 161 q 424 186 396 167 q 481 230 452 206 q 491 235 487 235 q 519 212 506 235 q 533 156 533 189 q 511 86 533 115 q 456 38 489 57 q 381 9 422 19 q 304 0 341 0 q 94 70 170 0 q 17 269 17 141 q 40 395 17 337 q 105 494 63 454 q 206 556 146 535 q 337 570 265 576 q 430 545 389 567 q 494 492 470 524 q 527 421 519 459 q 524 346 535 383 q 499 305 517 324 q 458 273 481 285 q 406 258 435 261 q 350 269 378 256 q 320 296 320 281 q 337 326 320 311 z "},"d":{"ha":593,"x_min":17,"x_max":574,"o":"m 320 109 q 262 28 294 56 q 159 0 230 0 q 102 17 128 0 q 58 61 76 33 q 30 125 41 89 q 19 202 19 161 q 42 381 17 298 q 113 511 67 463 q 170 554 139 539 q 231 571 202 569 q 288 568 261 574 q 333 548 315 561 q 340 719 339 652 q 341 824 341 785 q 341 879 341 863 q 344 894 341 894 q 507 880 450 919 q 559 735 565 841 l 556 669 q 550 525 552 585 q 547 415 548 465 q 546 321 546 365 q 548 228 546 278 q 551 167 548 193 q 556 119 554 141 q 563 78 559 98 q 570 31 567 57 q 552 6 574 13 q 487 0 530 0 q 381 28 428 0 q 320 109 335 56 m 276 202 q 299 235 289 202 q 317 309 309 269 q 327 384 324 350 q 330 420 330 419 q 297 392 311 411 q 273 347 283 372 q 258 296 263 322 q 254 250 254 270 q 276 202 254 202 z "},"e":{"ha":550,"x_min":17,"x_max":533,"o":"m 309 239 q 275 242 289 239 q 235 254 261 244 l 235 246 q 264 191 231 211 q 335 170 296 170 q 421 188 391 170 q 481 230 452 206 q 491 235 487 235 q 519 212 506 235 q 533 156 533 189 q 511 86 533 115 q 456 38 489 57 q 381 9 422 19 q 304 0 341 0 q 94 70 170 0 q 17 269 17 141 q 43 395 17 337 q 111 494 69 454 q 211 556 154 535 q 333 572 269 578 q 442 540 400 567 q 502 476 483 513 q 516 397 520 439 q 487 320 511 356 q 418 262 463 285 q 309 239 372 239 m 248 337 q 275 340 259 337 q 305 350 291 343 q 329 368 319 357 q 339 393 339 378 q 330 414 339 407 q 311 420 320 420 q 279 406 296 420 q 248 337 261 393 z "},"f":{"ha":435,"x_min":26,"x_max":433,"o":"m 285 165 q 287 60 285 115 q 280 -40 289 6 q 244 -116 270 -85 q 159 -146 217 -146 q 93 -141 117 -146 q 67 -111 69 -135 l 70 -102 q 74 -93 74 -98 l 83 -76 q 87 7 91 -50 q 81 128 83 65 q 80 276 81 185 q 78 485 78 367 q 57 483 67 485 q 46 480 48 481 l 35 470 q 30 479 31 470 q 27 498 28 487 q 26 519 26 509 q 26 533 26 530 q 41 590 28 570 q 78 615 54 609 q 74 694 76 646 q 77 791 72 743 q 94 881 81 839 q 131 944 106 924 q 170 960 146 954 q 215 969 194 967 q 255 969 235 970 q 285 961 274 969 q 313 935 319 948 q 298 902 307 922 q 282 847 287 881 q 275 774 278 813 q 272 698 272 735 q 272 637 272 661 q 358 651 326 643 q 422 657 391 659 q 430 635 426 657 q 433 602 433 613 q 426 560 431 580 q 404 528 420 541 q 358 506 387 515 q 285 494 330 496 q 283 357 281 494 q 285 165 285 220 z "},"g":{"ha":567,"x_min":17,"x_max":548,"o":"m 319 85 l 313 94 q 256 24 287 48 q 159 0 224 0 q 102 17 128 0 q 58 61 76 33 q 30 125 41 89 q 19 202 19 161 q 42 381 17 298 q 113 511 67 463 q 181 559 144 544 q 254 573 219 574 q 316 559 289 572 q 354 526 343 546 q 356 518 357 520 q 357 520 354 515 q 399 569 374 557 q 449 580 424 581 q 496 566 474 578 q 530 541 519 554 q 545 503 543 526 q 548 463 548 480 q 544 243 544 365 q 539 2 544 120 l 539 -11 q 524 -131 539 -78 q 479 -218 509 -183 q 401 -263 448 -252 q 289 -257 354 -274 q 241 -229 259 -250 q 214 -185 222 -207 q 208 -146 206 -163 q 222 -131 211 -130 q 278 -128 248 -135 q 317 -89 307 -120 q 325 -11 326 -59 q 319 85 324 37 m 287 202 q 307 236 300 202 q 317 311 315 270 q 315 386 319 352 q 306 420 311 420 q 274 404 285 422 q 258 358 263 385 q 254 301 254 331 q 257 250 254 270 q 287 202 263 202 z "},"h":{"ha":598,"x_min":19,"x_max":581,"o":"m 252 374 q 239 303 243 344 q 235 207 235 261 q 239 120 235 159 q 252 61 243 81 q 261 41 257 46 q 269 26 265 35 q 244 -4 269 2 q 178 -9 220 -9 q 118 1 146 -9 q 68 39 89 11 q 33 113 46 67 q 20 231 20 159 l 20 244 q 19 254 20 246 q 19 281 19 261 q 19 337 19 300 q 20 438 19 374 q 25 594 22 502 q 31 819 28 687 q 28 878 31 857 q 24 907 24 898 q 32 917 24 913 q 53 922 41 920 q 77 925 65 924 q 96 926 89 926 q 213 876 180 926 q 246 735 246 826 q 244 635 244 674 q 242 569 243 596 q 241 520 241 541 q 241 478 241 500 q 306 538 267 513 q 402 563 344 563 q 444 559 419 563 q 495 542 470 556 q 539 502 520 528 q 557 431 557 476 l 554 254 q 553 218 554 235 q 552 181 552 200 q 556 115 552 144 q 567 65 561 85 q 581 24 574 41 q 554 4 581 9 q 489 -2 526 -2 q 431 6 459 -2 q 383 40 404 15 q 350 110 363 65 q 337 228 337 156 q 336 331 337 302 q 333 376 335 359 q 319 409 330 400 q 296 417 309 419 q 271 404 283 415 q 252 374 259 393 z "},"i":{"ha":278,"x_min":17,"x_max":261,"o":"m 207 4 q 194 0 204 0 q 176 0 185 0 l 167 0 q 67 34 98 2 q 26 112 35 67 q 20 210 17 157 q 26 307 24 263 q 28 483 31 433 q 24 548 24 533 q 41 569 24 563 q 185 565 130 589 q 244 474 241 541 q 241 331 248 409 q 231 191 233 254 q 244 72 230 119 l 250 52 l 250 54 l 257 31 q 248 13 261 19 q 209 4 235 7 l 207 4 m 137 587 q 81 605 104 587 q 54 646 57 622 q 76 718 44 689 q 150 746 107 746 q 208 728 183 746 q 239 683 233 709 q 214 615 246 643 q 137 587 181 587 z "},"j":{"ha":263,"x_min":-35,"x_max":244,"o":"m 239 -22 q 224 -146 239 -98 q 185 -220 209 -194 q 131 -256 161 -246 q 67 -265 100 -265 q -3 -254 30 -265 q -35 -228 -35 -243 q -29 -214 -35 -222 q -14 -192 -22 -206 q 4 -159 -6 -178 q 17 -113 13 -141 q 25 -34 22 -74 q 29 68 28 6 q 29 225 30 130 q 28 469 28 320 q 23 528 28 507 q 19 557 19 548 q 27 567 19 563 q 47 572 35 570 q 71 575 59 574 q 91 576 83 576 q 208 542 172 576 q 241 417 244 507 q 241 329 241 391 q 241 198 241 267 q 241 70 241 130 q 239 -7 241 11 l 239 -22 m 111 587 q 47 611 69 587 q 26 663 26 635 q 56 723 26 700 q 124 746 85 746 q 187 724 161 746 q 213 670 213 702 q 182 610 213 633 q 111 587 152 587 z "},"k":{"ha":585,"x_min":19,"x_max":570,"o":"m 244 524 q 304 554 270 544 q 372 563 337 563 q 434 555 404 563 q 489 530 465 546 q 528 487 513 513 q 543 426 543 461 q 521 356 543 396 q 433 291 500 317 q 481 254 459 278 q 517 169 502 230 q 537 97 522 128 q 567 46 552 67 q 540 21 570 39 q 456 0 509 4 q 389 14 415 -2 q 346 56 363 30 q 319 112 330 81 q 295 170 307 143 q 268 218 283 198 q 224 241 252 237 q 226 135 224 181 q 243 59 228 89 l 248 50 l 246 50 q 254 24 254 37 q 226 3 254 7 q 165 -2 198 -2 q 113 6 139 -2 q 66 37 87 15 q 31 98 44 59 q 19 198 19 137 q 21 296 19 219 q 29 469 24 374 q 36 651 33 563 q 39 781 39 739 q 34 841 39 820 q 31 870 30 861 q 40 880 31 876 q 60 885 48 883 q 84 888 72 887 q 104 889 96 889 q 220 839 187 889 q 254 698 254 789 l 250 619 q 246 571 248 587 q 244 524 244 556 m 291 461 q 252 434 270 461 q 230 372 233 407 l 226 322 q 303 360 280 339 q 326 419 326 381 q 319 448 326 435 q 291 461 311 461 z "},"l":{"ha":283,"x_min":19,"x_max":267,"o":"m 248 694 q 244 607 246 657 q 239 503 241 557 q 236 395 237 448 q 235 300 235 343 q 238 156 235 222 q 250 61 241 91 l 259 44 q 263 35 259 39 l 267 26 q 243 -4 267 2 q 176 -9 219 -9 q 117 2 144 -9 q 67 40 89 13 q 31 113 44 67 q 19 231 19 159 l 19 244 q 19 269 19 248 q 20 351 19 289 q 26 530 22 413 q 37 844 30 646 q 33 904 37 883 q 30 933 30 924 q 38 943 30 939 q 58 948 46 946 q 82 951 70 950 q 102 952 94 952 q 219 902 185 952 q 252 761 252 852 l 248 694 z "},"m":{"ha":909,"x_min":19,"x_max":891,"o":"m 572 11 q 537 4 556 7 q 498 0 519 0 q 436 9 467 0 q 381 41 406 19 q 343 102 357 63 q 328 202 328 141 q 326 269 326 246 q 327 304 326 291 q 328 325 328 317 q 328 350 328 333 q 328 370 328 357 q 327 394 328 383 q 321 414 326 406 q 307 422 317 422 q 254 363 270 422 q 237 213 237 304 q 240 126 237 169 q 256 59 243 83 q 259 48 259 52 l 265 30 q 236 3 263 11 q 178 -6 209 -6 q 119 5 148 -6 q 69 41 91 15 q 32 110 46 67 q 19 219 19 154 q 21 288 19 252 q 28 365 24 324 l 33 470 q 34 513 35 500 q 32 530 33 526 q 31 532 31 533 q 35 535 31 531 q 94 563 59 557 q 158 559 128 569 q 212 529 189 550 q 239 478 235 507 q 305 540 265 513 q 404 567 344 567 q 436 565 417 567 q 476 554 456 563 q 516 527 496 544 q 548 480 535 509 q 615 539 574 511 q 711 567 656 567 q 746 564 724 567 q 791 551 769 561 q 832 523 813 541 q 861 476 852 506 l 861 478 q 867 453 865 469 q 869 422 869 437 l 863 322 q 862 272 863 296 q 861 224 861 248 q 863 152 861 187 q 870 89 865 117 l 874 78 q 881 57 878 61 q 887 40 883 46 q 891 26 891 33 q 866 5 891 9 q 809 0 841 0 q 748 8 778 0 q 694 41 719 17 q 655 106 670 65 q 637 215 639 148 q 641 275 637 239 q 645 344 644 311 q 642 399 646 376 q 620 422 637 422 q 565 367 578 422 q 552 228 552 311 q 556 131 552 174 q 565 67 559 87 l 580 33 q 581 29 580 30 q 581 26 581 28 q 570 11 581 13 l 572 11 z "},"n":{"ha":596,"x_min":19,"x_max":578,"o":"m 315 419 q 252 376 272 422 q 230 207 231 330 q 234 127 230 163 q 246 65 239 91 l 252 50 q 257 35 252 41 q 263 22 263 30 q 234 3 263 7 q 174 -2 206 -2 q 121 5 148 -2 q 71 31 94 11 q 33 87 48 52 q 19 181 19 122 q 21 329 19 259 q 28 467 24 398 q 31 535 31 507 q 52 567 31 563 q 170 554 131 578 q 235 476 209 530 q 301 537 261 511 q 398 563 341 563 q 441 559 415 563 q 492 542 467 556 q 535 502 517 528 q 554 431 554 476 l 554 420 l 550 254 q 550 121 548 183 q 572 39 552 59 q 578 24 578 28 q 550 4 578 9 q 485 -2 522 -2 q 421 8 448 -2 q 377 44 394 19 q 352 115 359 70 q 344 228 344 159 q 345 281 344 248 q 344 343 346 313 q 336 394 343 372 q 315 419 330 417 z "},"o":{"ha":565,"x_min":17,"x_max":548,"o":"m 298 578 q 411 548 365 574 q 486 483 457 522 q 528 397 515 444 q 544 304 541 350 q 531 181 548 239 q 477 78 513 122 q 389 7 441 33 q 274 -15 337 -19 q 119 40 176 -9 q 37 172 61 89 q 30 318 17 244 q 80 449 43 391 q 173 544 117 507 q 298 578 230 580 m 285 431 q 263 408 272 431 q 249 350 254 385 q 244 275 244 315 q 246 200 243 235 q 258 142 250 165 q 278 119 267 119 q 311 167 296 119 q 329 274 326 215 q 322 382 331 333 q 285 431 313 431 z "},"p":{"ha":578,"x_min":19,"x_max":561,"o":"m 22 200 l 26 478 q 24 502 24 489 q 28 528 24 515 q 42 550 31 541 q 72 563 52 559 q 181 552 137 574 q 228 481 224 530 q 243 501 231 489 q 273 526 254 513 q 319 548 293 539 q 383 557 346 557 q 464 535 430 557 q 519 474 498 513 q 551 383 541 435 q 559 274 561 331 q 545 182 557 230 q 509 96 533 135 q 450 31 485 57 q 369 0 415 4 q 283 10 324 -4 q 230 61 243 24 q 231 -4 230 28 q 231 -70 231 -35 q 234 -143 233 -113 q 241 -198 235 -172 l 256 -235 q 231 -260 259 -252 q 165 -269 204 -269 q 50 -206 83 -269 q 29 -123 35 -178 q 20 -8 22 -69 q 19 108 19 52 q 22 200 20 165 m 296 181 q 314 200 306 181 q 327 247 322 219 q 332 309 331 276 q 330 369 333 343 q 316 409 326 394 q 291 419 306 424 q 260 368 269 409 q 257 287 252 326 q 260 260 257 278 q 269 226 263 243 q 281 195 274 209 q 296 181 287 181 z "},"q":{"ha":581,"x_min":17,"x_max":563,"o":"m 550 524 q 556 468 557 502 q 550 402 554 433 q 549 394 550 398 q 548 385 548 389 q 543 259 544 317 q 540 148 541 202 q 538 43 539 94 q 537 -65 537 -9 q 538 -140 537 -107 q 544 -198 539 -172 l 552 -209 l 552 -207 l 559 -235 q 534 -260 563 -252 q 467 -269 506 -269 q 421 -263 444 -269 q 378 -244 398 -257 q 342 -208 357 -231 q 319 -152 326 -185 q 310 -33 307 -102 q 317 93 313 35 q 261 24 293 48 q 165 0 230 0 q 107 17 133 0 q 63 61 81 33 q 33 125 44 89 q 20 202 22 161 q 38 381 17 298 q 104 511 59 463 q 170 559 133 544 q 242 573 207 574 q 305 559 276 572 q 344 526 333 546 q 346 518 348 520 q 348 520 344 515 q 389 559 359 546 q 452 573 419 572 q 513 561 485 574 q 550 524 541 548 m 265 202 q 287 235 278 202 q 302 309 296 269 q 309 384 307 350 q 311 420 311 419 q 280 392 293 411 q 257 347 267 372 q 244 296 248 322 q 241 250 241 270 q 265 202 244 202 z "},"r":{"ha":541,"x_min":19,"x_max":526,"o":"m 254 502 q 299 545 274 528 q 370 563 324 563 q 426 556 398 563 q 476 533 454 548 q 512 496 498 519 q 526 444 526 474 q 491 341 526 385 q 393 289 456 296 q 349 290 372 287 q 308 299 326 293 q 281 315 291 306 q 278 337 272 324 q 297 374 287 352 q 302 411 307 396 q 287 419 298 422 q 267 406 276 415 l 263 402 q 239 327 246 376 q 231 219 231 278 q 235 127 231 170 q 246 59 239 83 l 254 41 q 261 19 261 26 q 233 -4 261 2 q 174 -9 206 -9 q 119 -1 146 -9 q 69 30 91 7 q 32 90 46 52 q 19 187 19 128 q 23 331 19 263 q 28 467 28 400 q 27 538 28 519 q 39 559 26 557 q 160 549 109 570 q 231 474 211 528 l 254 502 z "},"s":{"ha":517,"x_min":17,"x_max":500,"o":"m 500 165 q 465 61 498 98 q 390 6 431 24 q 310 -14 348 -11 q 261 -17 272 -17 q 137 2 183 -17 q 66 44 91 20 q 33 90 41 67 q 24 122 26 113 q 46 181 17 159 q 114 212 76 204 q 182 215 152 220 q 207 191 213 209 q 206 161 204 178 q 213 131 207 144 q 230 106 219 117 q 257 96 241 96 q 275 106 261 96 q 281 154 289 115 q 242 207 276 180 q 168 267 207 235 q 95 335 128 298 q 63 419 63 372 q 76 481 63 450 q 117 538 89 513 q 190 578 144 563 q 300 593 235 593 q 358 584 330 593 q 410 561 387 576 q 449 525 433 546 q 469 478 465 504 q 457 426 474 443 q 420 407 441 409 q 383 414 400 406 q 370 437 367 422 q 365 467 376 457 q 338 477 354 476 q 308 470 322 478 q 294 450 294 463 q 300 431 294 437 q 331 411 306 426 q 377 374 348 398 q 433 318 406 350 q 481 246 461 285 q 500 165 500 207 z "},"t":{"ha":444,"x_min":17,"x_max":950,"o":"m 402 648 q 394 480 398 572 q 391 300 391 387 q 391 156 391 222 q 404 61 391 89 l 420 26 q 405 -4 430 6 q 330 -9 380 -13 q 271 4 298 -7 q 223 42 244 15 q 190 114 202 69 q 178 231 178 159 l 178 244 q 178 256 178 246 q 179 302 178 267 q 182 407 180 337 q 189 604 185 478 q 114 610 152 600 q 52 646 76 620 q 24 685 31 667 q 19 718 17 704 q 29 737 20 731 q 50 739 37 743 q 105 723 78 730 q 170 724 131 717 q 193 728 181 724 l 191 798 q 188 850 191 831 q 183 880 185 869 q 184 894 181 891 q 200 900 187 898 q 330 891 283 915 q 393 809 376 867 q 555 882 470 848 q 746 917 639 917 q 834 905 798 915 q 893 881 870 894 q 927 850 915 867 q 943 817 939 833 q 947 769 950 794 q 931 722 944 744 q 892 683 917 700 q 830 665 867 667 q 819 670 819 669 q 810 691 815 678 q 792 715 806 704 q 752 735 778 726 q 681 744 726 744 q 544 726 617 748 q 404 676 472 704 l 402 648 z "},"u":{"ha":589,"x_min":19,"x_max":570,"o":"m 561 59 l 567 41 q 570 26 570 33 q 570 15 570 19 q 542 -8 569 -4 q 480 -13 515 -13 q 400 6 441 -13 q 333 85 359 24 q 274 27 313 54 q 185 -11 235 0 q 139 -5 163 -9 q 93 12 115 0 q 53 46 70 24 q 28 106 35 69 q 22 155 24 115 q 22 243 20 194 l 28 459 q 24 526 30 496 q 30 557 19 556 q 194 535 137 569 q 246 407 250 502 q 240 322 244 365 q 235 244 235 280 q 242 187 235 209 q 270 165 248 165 q 318 198 302 165 q 337 311 333 231 l 337 494 q 335 525 337 513 q 332 544 333 537 q 334 554 331 550 q 350 561 337 557 q 431 569 394 570 q 494 554 467 569 q 535 506 520 539 q 550 419 550 472 q 548 330 550 376 q 545 237 546 283 q 547 145 544 191 q 561 59 550 100 z "},"v":{"ha":602,"x_min":17,"x_max":585,"o":"m 361 554 q 424 561 391 561 q 540 522 494 561 q 585 413 585 483 q 560 288 585 361 q 492 148 535 215 q 388 37 448 81 q 257 0 328 -7 q 201 7 231 2 q 144 31 170 13 q 95 88 117 50 q 69 194 74 126 l 50 374 l 44 441 q 39 469 43 452 q 31 500 35 485 q 30 507 31 504 q 21 534 26 519 q 20 550 17 550 q 47 569 26 561 q 94 578 69 578 q 156 569 122 578 q 217 539 189 561 q 262 479 244 517 q 280 381 280 441 q 279 349 280 369 q 274 309 278 330 q 269 261 270 283 q 267 215 267 239 q 268 145 267 172 q 285 119 269 119 q 318 144 304 119 q 340 209 331 170 q 352 296 348 248 q 356 389 356 344 q 355 433 356 409 q 352 474 354 457 l 346 502 q 343 534 343 519 q 361 554 343 550 z "},"w":{"ha":893,"x_min":19,"x_max":876,"o":"m 661 552 q 724 559 691 559 q 835 524 794 559 q 876 419 876 489 q 853 293 876 367 q 788 150 830 219 q 687 36 746 81 q 557 -2 628 -9 q 484 11 524 2 q 413 57 444 20 q 341 12 380 28 q 259 0 302 -4 q 203 7 233 2 q 145 31 172 13 q 97 88 119 50 q 70 194 76 126 l 52 374 l 46 441 q 41 469 44 452 q 33 500 37 485 q 31 507 33 504 q 23 534 28 519 q 22 550 19 550 q 49 569 28 561 q 96 578 70 578 q 157 569 124 578 q 219 539 191 561 q 264 479 246 517 q 281 381 281 441 q 281 349 281 369 q 276 309 280 330 q 270 261 272 283 q 269 215 269 239 q 269 145 269 172 q 287 119 270 119 q 319 144 306 119 q 342 209 333 170 q 354 296 350 248 q 357 389 357 344 q 356 433 357 409 q 354 474 356 457 l 348 502 q 344 534 344 519 q 363 554 344 550 q 426 561 393 561 q 511 536 480 561 q 558 474 543 511 q 577 392 574 437 q 574 307 580 346 q 569 259 570 281 q 567 213 567 237 q 568 144 567 170 q 585 117 569 117 q 618 143 604 117 q 640 207 631 169 q 652 294 648 246 q 656 387 656 343 q 655 431 656 407 q 652 472 654 456 l 646 500 q 643 532 643 517 q 661 552 643 548 z "},"x":{"ha":635,"x_min":17,"x_max":617,"o":"m 606 83 q 609 74 609 80 q 601 49 609 65 q 576 19 593 33 q 534 -5 559 6 q 478 -15 509 -15 q 409 -6 437 -15 q 361 19 381 4 q 326 55 341 33 q 294 98 311 76 l 296 98 q 293 104 293 102 q 289 109 293 106 q 222 31 263 61 q 133 0 181 0 q 106 2 124 0 q 69 13 89 4 q 34 44 50 22 q 17 102 19 65 q 21 110 17 109 q 57 130 26 111 q 89 158 70 141 q 127 195 107 176 q 165 234 146 215 q 198 272 183 254 q 138 391 167 331 q 56 526 109 450 q 54 531 54 528 q 68 548 54 541 q 104 561 81 556 q 152 569 126 567 q 200 572 178 572 q 214 571 207 572 q 226 570 220 570 q 245 565 231 569 q 275 552 259 561 q 308 524 291 543 q 341 476 326 506 q 425 545 387 519 q 500 572 463 572 q 585 549 554 572 q 613 478 617 526 q 567 451 593 472 q 517 405 541 430 q 473 357 493 380 q 444 326 454 335 l 419 293 q 449 234 426 265 q 501 174 472 204 q 558 120 530 144 q 606 83 587 96 z "},"y":{"ha":589,"x_min":17,"x_max":570,"o":"m 328 37 q 269 6 302 17 q 202 -6 237 -6 q 137 5 169 -6 q 82 44 106 15 q 45 123 59 72 q 31 256 31 174 q 34 323 31 287 q 38 395 37 359 q 36 464 39 431 q 24 520 33 496 q 31 549 17 535 q 73 570 46 563 q 131 577 100 578 q 192 560 163 576 q 240 514 220 544 q 259 431 259 483 q 255 326 259 385 q 254 220 250 267 q 267 181 256 194 q 291 165 278 167 q 317 174 304 163 q 335 207 330 185 q 348 321 350 261 q 344 474 346 381 q 335 537 343 522 q 343 556 328 552 q 469 571 422 576 q 541 530 517 567 q 563 460 557 504 q 569 370 569 417 q 569 277 569 330 q 569 168 570 224 q 566 55 569 111 q 557 -50 563 -2 q 540 -156 554 -115 q 505 -220 526 -196 q 456 -256 483 -244 q 400 -269 430 -267 q 331 -265 361 -272 q 281 -246 300 -257 q 257 -222 263 -235 q 263 -204 252 -209 q 304 -178 283 -191 q 331 -119 324 -165 q 341 48 346 -28 l 328 37 z "},"z":{"ha":570,"x_min":19,"x_max":552,"o":"m 419 570 q 489 546 457 574 q 520 448 520 519 q 494 353 520 400 q 432 263 469 306 q 359 184 396 220 q 300 120 322 148 q 415 138 357 130 q 500 141 472 146 q 536 118 524 135 q 550 78 548 100 q 546 32 552 56 q 531 -4 541 9 q 483 3 531 2 q 369 4 435 4 q 232 2 302 4 q 122 0 163 0 q 50 11 80 0 q 20 65 20 22 q 19 81 20 70 q 33 119 19 91 q 87 198 48 146 q 206 339 126 250 l 306 444 q 180 421 222 424 q 128 419 137 419 q 77 438 96 419 q 50 483 57 457 q 46 535 43 509 q 63 572 50 561 q 155 565 113 567 q 237 563 196 563 q 321 565 278 563 q 419 570 365 567 z "}," ":{"ha":272,"x_min":0,"x_max":0,"o":""},"`":{"ha":359,"x_min":74,"x_max":320,"o":"m 193 778 q 257 709 239 735 q 298 670 276 683 l 306 670 q 309 669 307 670 l 313 669 q 319 658 320 665 q 304 635 317 652 q 258 615 285 611 q 203 634 231 619 q 147 671 174 650 q 104 706 120 693 q 87 716 93 715 q 78 719 81 717 q 81 735 74 722 q 93 752 89 748 q 142 793 117 789 q 193 778 167 796 z "},"":{"ha":376,"x_min":48,"x_max":294,"o":"m 176 778 q 227 793 202 796 q 276 752 252 789 q 287 735 280 748 q 291 719 294 722 q 281 716 287 717 q 265 706 276 715 q 221 671 248 693 q 166 634 194 650 q 110 615 137 619 q 65 635 83 611 q 50 658 52 652 q 56 669 48 665 l 59 669 q 63 670 61 670 l 70 670 q 91 687 81 678 q 111 709 100 696 q 137 739 122 722 q 176 778 152 756 z "},"-":{"ha":670,"x_min":54,"x_max":578,"o":"m 428 259 q 344 269 389 261 q 256 281 300 276 q 172 286 213 287 q 96 269 131 285 l 87 261 q 81 257 85 261 l 76 254 q 58 264 61 254 q 54 307 56 274 q 93 396 54 359 q 198 435 131 433 q 210 436 204 435 q 245 438 217 437 q 336 439 274 439 q 513 435 398 439 q 547 441 537 437 q 563 444 557 444 q 569 438 567 444 q 573 422 572 431 q 575 403 574 413 q 576 387 576 393 q 549 288 578 317 q 467 257 520 259 l 428 259 z "},"=":{"ha":565,"x_min":20,"x_max":544,"o":"m 394 381 q 311 391 356 383 q 223 404 267 398 q 139 408 180 409 q 63 391 98 407 l 54 383 q 48 380 52 383 l 43 376 q 25 386 28 376 q 20 430 22 396 q 59 519 20 481 q 165 557 98 556 q 177 558 170 557 q 212 560 183 559 q 303 561 241 561 q 480 557 365 561 q 514 563 504 559 q 530 567 524 567 q 536 560 533 567 q 540 544 539 554 q 542 525 541 535 q 543 509 543 515 q 516 410 544 439 q 433 380 487 381 l 394 381 m 394 172 q 311 181 356 174 q 223 194 267 189 q 139 199 180 200 q 63 181 98 198 l 54 174 q 48 170 52 174 l 43 167 q 25 177 28 167 q 20 220 22 187 q 59 309 20 272 q 165 348 98 346 q 177 349 170 348 q 212 351 183 350 q 303 352 241 352 q 480 348 365 352 q 514 354 504 350 q 530 357 524 357 q 536 351 533 357 q 540 335 539 344 q 542 316 541 326 q 543 300 543 306 q 516 201 544 230 q 433 170 487 172 l 394 172 z "},"<":{"ha":756,"x_min":0,"x_max":563,"o":"m 444 357 q 446 359 446 357 l 444 357 m 106 287 q 81 296 96 289 q 56 307 65 304 q 37 340 46 317 q 19 393 28 363 q 4 452 7 422 q 4 491 0 481 q 44 509 19 504 q 92 525 69 519 q 141 539 115 531 l 157 543 q 225 561 191 552 q 289 581 259 570 q 340 602 319 591 q 370 624 361 613 q 378 639 372 637 q 405 628 385 648 q 443 585 424 607 q 469 554 457 570 q 483 522 480 537 q 484 493 487 507 q 467 463 481 478 q 449 449 461 454 q 422 441 437 444 l 424 441 l 393 431 l 281 400 q 321 387 304 393 q 356 378 339 381 l 411 365 l 409 365 q 429 358 417 361 q 444 357 441 356 l 443 354 l 457 348 q 483 340 470 344 q 511 326 496 335 q 559 269 550 302 q 562 240 563 254 q 557 217 561 226 q 543 171 552 193 q 524 157 533 150 q 513 161 513 165 l 493 180 q 461 194 485 185 q 404 212 437 202 q 333 231 370 222 q 265 248 296 241 l 219 259 l 107 287 l 106 287 z "},">":{"ha":776,"x_min":-20,"x_max":543,"o":"m 437 509 q 460 500 444 507 q 485 489 476 493 q 508 452 494 478 q 531 396 522 426 l 531 398 q 541 344 539 370 q 539 306 543 317 q 502 287 524 293 q 453 270 478 278 q 400 257 428 263 l 369 248 q 307 230 339 239 q 248 210 276 220 q 200 190 220 200 q 172 170 180 180 q 166 157 170 163 q 157 148 161 152 q 139 162 154 144 q 109 198 124 180 q 78 237 91 217 q 59 274 65 257 q 76 337 50 309 q 90 345 80 341 q 111 354 100 350 q 114 355 113 354 q 117 356 115 356 l 146 365 l 252 394 l 250 402 q 222 409 235 406 q 194 417 209 413 q 165 424 180 420 q 131 431 150 428 q 96 437 111 437 l 98 441 q 65 452 80 446 q 31 470 50 457 q 2 497 13 481 q -13 528 -9 513 q -11 578 -20 554 q 4 624 -6 602 q 22 639 13 646 q 33 632 31 635 q 39 628 35 630 q 42 625 41 628 q 44 622 43 622 l 43 622 q 85 600 56 611 q 154 578 115 589 q 236 556 193 567 q 322 537 280 546 q 381 524 352 530 q 435 509 409 519 l 437 509 m 96 437 q 94 433 91 435 l 96 437 z "},".":{"ha":419,"x_min":122,"x_max":304,"o":"m 219 -56 q 167 -44 191 -59 q 135 -9 143 -30 q 144 54 122 28 q 206 85 167 80 q 259 73 237 87 q 289 39 281 59 q 281 -23 304 6 q 219 -56 259 -52 z "},",":{"ha":457,"x_min":141,"x_max":326,"o":"m 146 57 q 144 80 141 74 q 165 89 148 85 q 269 65 224 94 q 320 -24 313 35 q 312 -117 326 -74 q 250 -165 298 -159 q 178 -152 209 -169 q 144 -126 146 -135 l 144 -124 l 143 -122 q 163 -74 157 -98 q 167 -28 169 -50 q 159 16 165 -6 q 146 57 154 37 z "},"":{"ha":391,"x_min":9,"x_max":363,"o":"m 252 678 q 194 684 217 678 q 149 695 170 691 q 106 699 128 700 q 50 685 83 698 l 41 680 q 37 679 37 680 q 35 678 37 678 l 31 674 q 14 682 17 674 q 9 717 11 691 q 36 783 9 759 q 126 796 63 807 q 180 782 159 791 q 221 771 200 774 q 269 776 243 769 q 343 806 296 783 q 356 791 350 809 q 361 763 361 772 q 333 693 363 707 q 252 678 304 678 z "},"":{"ha":335,"x_min":15,"x_max":322,"o":"m 111 665 q 66 661 89 656 q 33 685 43 667 q 27 743 15 713 q 70 787 39 772 q 111 790 91 796 q 144 763 131 783 q 151 706 165 733 q 111 665 137 680 m 270 674 q 224 666 246 659 q 193 693 202 672 q 188 749 176 720 q 226 793 200 778 q 271 794 250 800 q 302 769 293 789 q 309 715 322 743 q 270 674 296 687 z "},"/":{"ha":576,"x_min":9,"x_max":278,"o":"m 261 643 q 253 506 257 578 q 244 362 248 433 q 239 224 241 291 q 237 102 237 157 q 239 14 237 50 q 246 -41 241 -22 l 246 -39 q 254 -59 250 -56 q 256 -65 254 -63 q 259 -70 257 -69 q 261 -74 261 -72 q 235 -104 265 -96 q 169 -111 206 -111 q 82 -88 126 -111 q 19 4 39 -65 l 19 2 q 11 44 13 24 q 9 85 9 65 q 9 112 9 98 q 11 141 9 126 q 13 160 13 146 q 13 181 13 174 l 59 952 q 58 957 59 956 q 57 963 57 959 q 54 979 56 969 q 52 991 52 989 q 43 1004 48 996 q 30 1020 37 1011 q 25 1024 26 1022 q 22 1028 24 1026 q 31 1043 22 1037 q 50 1048 41 1048 q 194 1029 139 1048 q 265 956 250 1009 q 274 867 278 924 l 261 643 z "},"\\":{"ha":576,"x_min":-76,"x_max":781,"o":"m 33 750 q -23 840 2 802 q -62 907 -48 878 q -73 963 -76 937 q -44 1019 -70 989 q -23 1038 -39 1026 q 10 1061 -7 1050 q 44 1078 28 1072 q 63 1076 59 1083 q 106 1002 72 1061 q 191 855 141 943 q 301 660 241 767 q 423 445 361 554 q 544 234 485 337 q 652 51 604 131 q 731 -79 700 -30 q 769 -128 763 -128 q 777 -142 781 -130 q 757 -171 772 -154 q 720 -206 743 -189 q 674 -235 698 -224 q 629 -246 650 -246 q 596 -228 607 -246 q 524 -112 567 -183 q 432 46 481 -41 q 330 229 383 133 q 223 419 276 324 q 121 598 170 513 q 33 750 72 683 z "},"+":{"ha":557,"x_min":17,"x_max":541,"o":"m 185 302 q 186 327 185 315 q 189 354 187 339 q 120 354 154 357 q 59 337 87 350 l 50 330 q 44 326 48 330 l 39 322 q 21 332 24 322 q 17 376 19 343 q 56 465 17 428 q 161 504 94 502 q 174 505 165 504 q 211 507 183 506 q 211 573 215 541 q 194 633 207 606 l 189 643 q 185 648 189 644 l 180 654 q 190 671 180 669 q 233 678 200 674 q 322 643 285 680 q 363 539 359 606 q 363 530 361 535 q 365 506 365 524 q 417 505 389 506 q 476 504 444 504 q 510 509 500 506 q 526 513 520 513 q 532 506 530 513 q 536 491 535 500 q 538 471 537 481 q 539 456 539 461 q 512 356 541 385 q 430 326 483 328 l 391 328 q 365 330 374 328 q 364 281 365 306 q 363 224 363 256 q 369 190 365 200 q 372 174 372 180 q 366 168 372 170 q 350 163 359 165 q 331 160 341 161 q 315 159 320 159 q 216 182 244 156 q 185 263 187 209 l 185 302 z "},":":{"ha":483,"x_min":63,"x_max":259,"o":"m 159 356 q 107 367 131 352 q 76 402 83 381 q 85 465 63 439 q 146 496 107 491 q 200 484 178 498 q 230 450 222 470 q 222 388 244 417 q 159 356 200 359 m 174 70 q 122 81 146 67 q 91 117 98 96 q 100 180 78 154 q 161 211 122 206 q 215 199 193 213 q 244 165 237 185 q 237 103 259 131 q 174 70 215 74 z "},";":{"ha":500,"x_min":76,"x_max":278,"o":"m 104 209 q 100 219 102 215 q 98 224 98 222 q 98 247 96 243 q 117 256 100 252 q 220 231 176 261 q 272 143 265 202 q 264 50 278 93 q 202 2 250 7 q 130 15 161 -2 q 96 41 98 31 l 96 43 l 94 44 q 104 86 98 67 q 113 125 109 106 q 115 165 117 144 q 104 209 113 185 m 172 356 q 120 367 144 352 q 89 402 96 381 q 98 465 76 439 q 159 496 120 491 q 213 484 191 498 q 243 450 235 470 q 235 388 257 417 q 172 356 213 359 z "},"*":{"ha":533,"x_min":19,"x_max":511,"o":"m 72 831 q 62 814 63 817 q 57 807 61 811 q 37 814 43 809 q 28 843 31 819 q 55 911 19 880 q 152 946 91 943 q 126 966 139 957 q 100 981 113 974 q 79 980 81 981 q 72 978 76 978 q 61 996 61 989 q 76 1024 61 1004 q 135 1056 96 1056 q 215 1019 174 1056 q 202 1072 211 1050 l 194 1080 q 195 1082 196 1083 q 194 1083 194 1081 l 191 1085 q 196 1106 191 1100 q 226 1115 202 1111 q 288 1097 263 1124 q 317 1009 313 1070 q 318 1003 317 1006 q 320 987 319 1000 q 374 1054 356 1019 q 377 1065 378 1063 q 378 1070 376 1067 q 394 1081 389 1080 q 419 1069 400 1083 q 406 946 476 1022 l 435 946 q 465 949 456 946 q 478 952 474 952 q 492 936 487 954 q 500 909 496 919 q 488 845 511 859 q 417 830 465 831 l 413 830 l 435 807 q 456 790 450 793 q 467 783 463 787 q 467 761 476 778 q 454 735 457 744 q 398 697 428 693 q 333 735 369 702 l 333 717 q 343 686 335 696 q 350 672 350 676 q 335 657 352 663 q 309 648 319 652 q 238 656 259 633 q 213 728 217 680 l 211 759 l 181 733 q 168 703 167 719 q 165 683 169 687 q 144 685 159 676 q 119 698 128 694 q 79 759 76 728 q 119 824 81 791 l 141 844 q 72 831 100 841 z "},"":{"ha":509,"x_min":74,"x_max":407,"o":"m 194 774 q 246 796 217 800 q 287 774 270 793 q 346 711 330 735 q 385 674 363 687 l 393 674 q 396 672 394 674 l 400 672 q 406 662 407 669 q 391 639 404 656 q 358 619 376 622 q 320 623 341 617 q 280 642 300 630 q 241 669 259 654 q 202 642 222 654 q 161 623 181 630 q 122 619 141 617 q 91 639 104 622 q 76 662 78 656 q 81 672 74 669 l 85 672 q 89 674 87 674 l 96 674 q 135 711 119 687 q 194 774 152 735 z "},"":{"ha":228,"x_min":0,"x_max":224,"o":"m 117 591 q 50 614 80 591 q 11 672 20 637 q 31 756 0 719 q 117 793 63 793 q 176 769 148 793 q 215 713 204 746 l 215 715 q 194 629 224 667 q 117 591 163 591 m 113 639 q 135 653 126 639 q 141 687 144 667 q 130 705 137 696 q 111 713 122 713 q 87 701 96 713 q 81 669 78 689 q 113 639 83 639 z "},"_":{"ha":1087,"x_min":20,"x_max":1067,"o":"m 769 -265 q 601 -255 689 -263 q 426 -241 513 -246 q 256 -236 339 -235 q 106 -254 174 -237 l 87 -263 q 81 -264 81 -263 q 76 -267 80 -265 l 65 -270 q 30 -260 37 -270 q 20 -213 22 -250 q 98 -118 20 -157 q 307 -76 176 -78 q 319 -75 313 -76 q 345 -73 326 -74 q 402 -71 365 -72 q 506 -70 439 -70 q 679 -72 574 -70 q 937 -76 783 -74 q 1006 -69 985 -74 q 1037 -65 1026 -65 q 1050 -72 1044 -65 q 1059 -90 1056 -80 q 1064 -110 1063 -100 q 1065 -126 1065 -120 q 1008 -234 1067 -204 q 844 -267 950 -265 l 769 -265 z "},"|":{"ha":261,"x_min":44,"x_max":219,"o":"m 52 893 q 48 1002 52 956 q 47 1081 44 1048 q 65 1137 50 1115 q 117 1170 80 1159 q 137 1173 124 1172 q 162 1172 150 1174 q 182 1165 174 1170 q 191 1152 191 1159 q 193 1063 193 1133 q 192 890 193 993 q 190 662 191 787 q 189 408 189 537 q 189 158 189 280 q 190 -58 189 37 q 194 -213 191 -154 q 202 -276 196 -272 q 197 -299 219 -287 q 144 -314 176 -311 q 83 -306 113 -317 q 52 -261 54 -294 q 47 -121 48 -206 q 47 65 46 -37 q 49 280 48 167 q 52 502 50 393 q 54 712 54 611 q 52 893 54 813 z "},"":{"ha":909,"x_min":113,"x_max":806,"o":"m 194 -65 q 144 -42 163 -61 q 120 2 124 -22 q 144 74 113 48 q 215 96 176 100 q 268 73 246 93 q 293 24 289 54 q 266 -44 298 -19 q 194 -65 233 -69 m 702 -65 q 651 -42 670 -61 q 628 2 631 -22 q 652 74 620 48 q 722 96 683 100 q 775 73 754 93 q 800 24 796 54 q 773 -44 806 -19 q 702 -65 741 -69 m 469 -65 q 418 -42 437 -61 q 394 2 398 -22 q 419 74 387 48 q 489 96 450 100 q 542 73 520 93 q 567 24 563 54 q 540 -44 572 -19 q 469 -65 507 -69 z "},"":{"ha":459,"x_min":135,"x_max":326,"o":"m 146 48 q 150 86 137 76 q 183 96 163 96 q 209 94 196 96 q 233 89 222 93 q 241 87 237 89 q 248 85 244 85 q 290 52 269 74 q 320 9 311 30 q 323 -55 326 -20 q 311 -111 320 -89 q 269 -141 300 -137 q 204 -137 237 -144 q 157 -126 180 -133 q 139 -113 135 -119 q 143 -104 135 -107 q 155 -71 150 -89 q 159 -31 159 -54 q 146 48 159 4 z "},"":{"ha":737,"x_min":135,"x_max":574,"o":"m 146 48 q 150 86 137 76 q 183 96 163 96 q 209 94 196 96 q 233 89 222 93 q 240 87 237 89 q 246 85 243 85 q 289 52 267 74 q 320 9 311 30 q 323 -55 326 -20 q 311 -111 320 -89 q 267 -141 298 -137 q 204 -137 235 -144 q 157 -126 180 -133 q 139 -113 135 -119 q 143 -104 135 -107 q 155 -71 150 -89 q 159 -31 159 -54 q 146 48 159 4 m 393 48 q 397 86 383 76 q 431 96 411 96 q 457 94 444 96 q 481 89 470 93 q 488 87 485 89 q 494 85 491 85 q 537 52 515 74 q 569 9 559 30 q 571 -55 574 -20 q 559 -111 569 -89 q 515 -141 546 -137 q 450 -137 483 -144 q 404 -126 426 -133 q 385 -113 381 -119 q 389 -104 381 -107 q 401 -71 396 -89 q 406 -31 406 -54 q 393 48 406 4 z "},"?":{"ha":1081,"x_min":22,"x_max":637,"o":"m 31 826 q 89 950 41 900 q 203 1025 137 1000 q 343 1050 269 1050 q 481 1025 417 1050 q 588 950 544 1000 q 635 826 631 900 q 610 706 637 770 q 545 581 583 643 q 471 467 507 520 q 419 378 435 413 q 383 269 391 313 q 374 199 376 226 q 369 160 372 172 q 344 148 367 148 q 304 155 328 148 q 256 178 280 161 q 215 222 231 194 q 198 293 198 250 q 223 394 198 341 q 282 505 248 446 q 352 626 317 563 q 409 759 387 689 q 420 811 417 785 q 418 858 424 837 q 393 893 411 880 q 339 906 374 906 q 256 879 285 906 q 222 798 226 852 q 229 759 220 776 q 248 730 237 743 q 269 706 259 717 q 281 691 280 696 q 210 632 257 652 q 122 626 163 613 q 44 696 65 643 q 31 826 22 750 m 331 -56 q 280 -44 304 -59 q 248 -9 256 -30 q 257 54 235 28 q 319 85 280 80 q 372 73 350 87 q 402 39 394 59 q 394 -23 417 6 q 331 -56 372 -52 z "},"#":{"ha":981,"x_min":22,"x_max":954,"o":"m 96 606 l 78 598 q 73 597 74 598 q 69 594 72 596 l 59 591 q 30 601 37 591 q 26 644 22 611 q 97 731 30 694 q 278 769 165 767 q 285 769 281 769 q 298 770 289 769 q 298 852 300 813 q 291 926 296 891 l 285 941 q 284 947 285 946 q 281 952 283 948 l 280 963 l 280 970 q 292 996 281 987 q 331 1006 302 1006 q 398 942 374 1006 q 426 772 422 878 l 578 772 q 573 849 576 813 q 563 919 570 885 l 556 933 q 556 940 557 939 q 556 944 556 941 l 552 954 q 563 989 554 980 q 604 998 572 998 q 678 937 648 998 q 711 770 707 876 q 761 769 735 769 q 815 769 787 769 q 873 775 856 769 q 900 780 891 781 q 911 771 907 780 q 917 752 915 763 q 919 731 919 741 q 919 719 919 720 q 864 622 915 648 q 724 594 813 596 l 711 594 l 706 431 q 797 437 754 433 q 881 454 841 441 l 898 463 q 906 467 902 463 l 915 469 q 946 460 939 469 q 954 417 954 452 q 881 330 950 367 q 702 289 813 293 l 700 289 l 694 169 q 699 106 693 126 q 702 76 706 87 q 691 63 700 67 q 669 56 681 59 q 635 52 654 52 q 556 105 576 54 q 537 248 535 156 l 537 278 q 481 278 511 278 q 413 276 450 278 l 407 169 q 414 106 409 126 q 417 76 419 87 q 394 58 415 63 q 363 52 372 54 l 354 52 q 269 103 293 52 q 248 248 246 154 l 248 276 l 165 276 q 104 269 122 276 q 76 263 85 263 q 65 270 69 263 q 60 287 61 278 q 58 306 59 296 q 57 320 57 315 q 109 419 61 391 q 252 452 157 448 l 263 452 l 287 624 q 187 620 235 624 q 96 606 139 617 m 424 615 q 424 544 424 585 q 420 448 424 502 l 550 437 l 559 602 l 424 615 z "},"%":{"ha":1541,"x_min":139,"x_max":1361,"o":"m 780 102 q 764 -12 770 35 q 741 -89 757 -59 q 693 -132 724 -119 q 604 -146 661 -146 q 563 -130 563 -146 q 578 -25 565 -107 q 608 171 591 57 q 645 416 626 285 q 682 665 665 546 q 711 873 700 783 q 722 998 722 963 q 719 1014 722 1013 q 715 1020 715 1015 q 743 1041 715 1031 q 802 1050 770 1050 q 837 1044 819 1050 q 871 1031 856 1039 q 898 1009 887 1022 q 909 983 909 996 l 909 978 q 888 793 904 896 q 853 574 872 689 q 814 338 833 459 q 780 102 794 217 m 1122 491 q 1146 489 1137 491 q 1157 488 1152 489 q 1169 487 1163 487 q 1248 459 1215 478 q 1293 424 1276 441 l 1306 409 l 1317 394 q 1327 380 1322 387 q 1335 363 1331 372 q 1342 345 1339 354 q 1348 328 1344 337 q 1354 309 1352 319 q 1357 291 1356 300 q 1359 272 1357 278 q 1360 262 1359 267 q 1361 252 1361 257 q 1361 232 1361 243 q 1359 213 1361 222 q 1354 174 1359 193 q 1350 156 1352 165 q 1344 137 1348 146 q 1320 85 1331 107 l 1309 69 q 1292 46 1300 57 q 1272 26 1283 35 q 1243 4 1257 11 q 1225 -6 1233 0 q 1207 -15 1217 -11 l 1189 -20 l 1170 -26 l 1148 -30 q 1138 -31 1143 -30 q 1128 -31 1133 -31 l 1104 -31 q 1081 -28 1096 -31 q 1059 -24 1070 -26 q 1039 -19 1048 -22 q 1030 -16 1035 -17 q 1020 -11 1024 -15 q 985 7 1000 -2 q 930 61 954 30 l 919 76 l 909 94 q 902 112 906 104 q 894 130 898 120 q 886 158 889 144 q 880 187 883 172 q 878 206 878 196 q 878 226 878 217 q 879 266 876 246 q 885 304 881 285 q 892 322 889 313 q 898 341 894 331 q 978 446 924 409 q 1052 481 1009 470 q 1085 488 1069 485 q 1122 491 1102 491 m 385 950 q 522 912 469 950 q 601 817 576 874 q 624 693 626 759 q 595 568 622 626 q 517 469 569 509 q 391 428 465 430 q 254 464 309 426 q 170 559 198 502 q 141 685 143 617 q 166 813 139 754 q 247 911 193 872 q 385 950 302 950 m 389 819 q 376 803 381 819 q 366 763 370 787 q 358 709 361 739 q 356 652 356 680 q 365 573 356 598 q 387 548 374 548 q 401 564 394 548 q 412 603 407 580 q 419 656 417 626 q 422 713 422 685 q 411 794 422 769 l 411 793 q 389 819 406 819 m 1126 359 l 1124 359 l 1117 354 q 1113 346 1117 350 q 1109 337 1113 344 q 1094 256 1100 304 l 1094 244 q 1093 230 1093 237 q 1093 215 1093 222 l 1093 193 q 1093 169 1093 180 q 1094 150 1093 159 l 1094 141 q 1096 131 1096 137 l 1100 119 q 1101 115 1100 117 q 1102 111 1102 113 q 1104 106 1104 109 q 1117 91 1109 93 q 1120 89 1119 89 l 1124 89 q 1130 91 1128 89 q 1131 93 1130 93 q 1131 94 1131 93 q 1135 98 1131 94 l 1139 109 l 1143 117 l 1148 143 q 1153 163 1152 152 q 1156 185 1154 174 q 1158 219 1157 202 q 1159 254 1159 237 q 1159 276 1159 265 q 1157 296 1159 287 q 1156 300 1157 298 q 1156 304 1156 302 l 1156 309 l 1152 322 q 1148 335 1152 328 l 1148 333 q 1146 341 1146 335 q 1144 344 1144 344 q 1143 348 1143 348 q 1141 352 1141 350 q 1137 356 1137 356 q 1133 357 1135 356 q 1131 358 1131 357 q 1130 359 1131 359 l 1126 359 z "},"$":{"ha":1035,"x_min":159,"x_max":856,"o":"m 481 87 q 251 160 339 96 q 159 320 163 224 q 172 384 159 356 q 207 434 185 413 q 259 467 230 456 q 320 478 289 478 q 391 454 363 478 q 419 402 419 430 q 381 370 419 370 q 360 372 372 370 q 339 374 348 374 q 293 335 293 374 q 336 263 294 287 q 443 239 378 239 q 506 245 474 239 q 564 266 539 252 q 604 300 589 280 q 619 348 619 320 q 599 411 619 381 q 545 471 580 441 q 465 535 511 502 q 363 609 419 569 q 300 683 320 646 q 278 757 280 720 q 328 865 276 819 q 478 924 380 911 q 474 952 474 933 q 496 1017 472 994 q 550 1047 520 1039 q 605 1052 580 1056 q 630 1039 630 1048 q 623 1019 630 1033 q 619 954 617 1004 q 619 937 619 944 q 622 920 620 930 q 747 877 691 909 q 807 787 804 844 q 794 749 807 767 q 759 719 780 731 q 715 699 739 706 q 670 693 691 693 q 622 724 624 693 q 623 732 622 728 q 624 741 624 737 q 611 776 624 767 q 580 785 598 785 q 533 771 554 785 q 513 741 513 757 q 526 716 515 726 q 563 691 537 706 q 683 621 630 656 q 774 550 737 587 q 831 470 811 513 q 854 374 852 428 q 808 220 856 283 q 681 122 761 157 q 688 82 687 102 q 689 37 689 63 q 666 -5 691 9 q 610 -21 641 -19 q 554 -17 580 -24 q 528 2 528 -9 q 537 15 528 9 q 544 46 546 20 q 544 63 544 54 q 543 87 543 72 q 527 85 533 85 q 511 85 520 85 q 496 85 504 85 q 481 87 489 85 z "},"!":{"ha":793,"x_min":109,"x_max":374,"o":"m 331 793 q 317 648 328 722 q 297 500 306 574 q 290 356 289 426 q 309 224 291 285 l 319 207 q 322 198 319 202 l 326 189 q 314 158 326 165 q 259 152 302 152 q 155 219 198 152 q 113 402 111 285 q 112 413 113 407 q 110 435 111 419 q 109 483 109 452 q 110 573 109 515 q 113 721 111 631 q 120 943 115 811 q 117 1002 120 981 q 113 1031 113 1022 q 121 1041 113 1037 q 142 1046 130 1044 q 166 1049 154 1048 q 185 1050 178 1050 q 302 1000 269 1050 q 335 859 335 950 l 331 793 m 289 -56 q 237 -44 261 -59 q 206 -9 213 -30 q 215 54 193 28 q 276 85 237 80 q 330 73 307 87 q 359 39 352 59 q 352 -23 374 6 q 289 -56 330 -52 z "},"":{"ha":994,"x_min":19,"x_max":904,"o":"m 709 441 q 665 433 693 433 q 633 438 650 433 q 601 455 617 443 q 575 487 585 467 q 565 539 565 507 q 570 603 565 580 q 576 659 576 626 q 572 687 576 672 q 554 702 569 702 q 519 665 533 702 q 506 569 506 628 q 517 476 506 509 l 519 465 q 524 456 519 461 l 526 450 q 510 433 526 437 q 472 430 494 430 q 404 460 435 430 q 372 572 372 491 q 378 631 372 593 q 387 731 383 669 q 384 773 389 765 q 380 787 380 781 q 400 797 380 793 q 444 798 420 802 q 488 780 469 794 q 506 731 507 765 q 548 773 524 756 q 609 791 572 791 q 651 781 624 791 q 696 730 678 772 q 739 773 715 756 q 796 791 763 791 q 821 788 806 791 q 852 775 837 785 q 878 747 867 765 q 889 700 889 730 l 887 674 q 886 638 887 657 q 885 600 885 619 q 888 504 885 541 q 902 461 891 467 l 900 461 q 903 456 902 457 q 904 450 904 454 q 888 437 904 441 q 854 433 872 433 q 814 439 833 433 q 781 461 794 444 q 758 507 767 478 q 750 585 750 537 q 756 674 754 650 q 741 698 759 698 q 706 664 715 698 q 696 574 696 630 q 706 474 696 506 l 707 467 q 711 456 707 463 q 715 446 715 450 q 711 441 715 441 l 709 441 m 174 931 q 271 923 222 928 q 363 919 320 919 q 468 932 426 919 q 513 989 509 946 q 523 994 513 993 q 541 994 533 994 q 613 971 589 994 q 635 922 637 948 q 582 850 633 885 q 424 815 531 815 q 393 816 409 815 q 357 819 376 817 q 352 750 354 774 q 348 691 350 726 q 346 625 348 663 q 345 548 344 587 q 352 474 346 509 q 370 419 357 439 q 376 404 376 407 q 355 392 374 394 q 324 389 335 389 q 268 397 291 389 q 231 431 244 406 q 213 503 219 456 q 211 626 207 550 q 215 713 213 680 q 219 781 217 746 q 219 809 219 802 q 219 846 220 817 q 167 853 191 850 q 128 856 143 856 q 94 852 111 856 q 52 837 78 848 q 39 833 41 833 q 19 857 19 837 q 65 915 22 898 q 154 931 107 931 l 174 931 z "},"":{"ha":720,"x_min":11,"x_max":911,"o":"m 483 959 q 424 1022 441 998 q 385 1059 407 1046 l 378 1059 q 374 1061 376 1059 l 370 1061 q 365 1071 363 1065 q 380 1094 367 1078 q 411 1114 393 1111 q 450 1110 430 1117 q 491 1091 470 1104 q 530 1065 511 1078 q 569 1091 548 1078 q 609 1110 589 1104 q 647 1114 630 1117 q 680 1094 665 1111 q 694 1071 693 1078 q 689 1061 696 1065 l 685 1061 q 681 1059 683 1059 l 674 1059 q 635 1022 652 1046 q 576 959 619 998 q 535 937 559 941 q 483 959 506 933 m 863 -24 q 902 -33 893 -9 q 900 -93 911 -57 q 858 -161 889 -128 q 778 -198 828 -194 q 684 -192 730 -202 q 580 -169 639 -181 q 405 -125 494 -152 q 237 -69 315 -98 q 103 -10 159 -39 q 28 41 46 19 q 15 66 19 50 q 11 96 11 81 q 14 130 11 115 q 28 170 17 144 l 26 170 l 231 380 q 303 454 261 411 q 390 544 344 496 q 481 638 435 591 q 567 724 526 685 q 504 719 539 722 q 431 715 469 717 q 358 711 394 713 q 294 709 322 709 q 183 742 215 709 q 149 811 152 774 q 162 876 146 848 q 193 896 178 904 q 243 870 213 885 q 343 856 272 856 q 426 862 378 856 q 527 875 474 869 q 630 885 580 881 q 717 883 680 889 q 792 856 763 878 q 824 772 820 835 q 793 684 826 735 q 710 578 759 633 q 607 467 661 522 q 515 365 554 411 l 263 109 q 325 80 280 96 q 431 45 370 63 q 558 11 491 28 q 687 -17 626 -6 q 795 -31 748 -28 q 863 -24 843 -33 z "},"":{"ha":593,"x_min":17,"x_max":550,"o":"m 217 606 q 157 669 174 644 q 119 706 141 693 l 111 706 q 107 707 109 706 l 104 707 q 98 718 96 711 q 113 741 100 724 q 144 760 126 757 q 183 756 163 763 q 224 737 204 750 q 263 711 244 724 q 302 737 281 724 q 343 756 322 750 q 381 760 363 763 q 413 741 398 757 q 428 718 426 724 q 422 707 430 711 l 419 707 q 415 706 417 706 l 407 706 q 369 669 385 693 q 309 606 352 644 q 269 583 293 587 q 217 606 239 580 m 417 570 q 487 546 456 574 q 519 448 519 519 q 493 353 519 400 q 431 263 467 306 q 357 184 394 220 q 298 120 320 148 q 413 138 356 130 q 498 141 470 146 q 534 118 522 135 q 548 78 546 100 q 544 32 550 56 q 530 -4 539 9 q 481 3 530 2 q 367 4 433 4 q 231 2 300 4 q 120 0 161 0 q 48 11 78 0 q 19 65 19 22 q 18 81 19 70 q 31 119 17 91 q 85 198 46 146 q 204 339 124 250 l 304 444 q 178 421 220 424 q 126 419 135 419 q 75 438 94 419 q 48 483 56 457 q 44 535 41 509 q 61 572 48 561 q 153 565 111 567 q 235 563 194 563 q 319 565 276 563 q 417 570 363 567 z "},"":{"ha":807,"x_min":30,"x_max":739,"o":"m 443 998 q 383 1061 400 1037 q 344 1098 367 1085 l 337 1098 q 333 1100 335 1098 l 330 1100 q 324 1110 322 1104 q 339 1133 326 1117 q 370 1153 352 1150 q 409 1149 389 1156 q 450 1130 430 1143 q 489 1104 470 1117 q 528 1130 507 1117 q 569 1149 548 1143 q 606 1153 589 1156 q 639 1133 624 1150 q 654 1110 652 1117 q 648 1100 656 1104 l 644 1100 q 641 1098 643 1098 l 633 1098 q 594 1061 611 1085 q 535 998 578 1037 q 494 976 519 980 q 443 998 465 972 m 350 -109 q 167 -56 246 -104 q 56 67 87 -7 q 39 193 30 131 q 84 296 48 254 q 180 357 120 339 q 313 356 239 376 q 362 321 343 346 q 386 272 381 296 q 378 234 391 248 q 330 237 365 220 q 274 246 298 252 q 234 223 250 241 q 213 179 219 206 q 213 124 207 152 q 251 58 220 80 q 319 34 281 37 q 397 47 357 31 q 464 94 437 63 q 499 169 491 124 q 483 269 507 213 q 397 385 457 330 q 254 517 337 441 q 179 645 194 580 q 187 767 163 711 q 272 858 211 822 q 426 898 333 894 q 519 892 470 900 q 608 864 567 883 q 677 813 650 844 q 707 737 704 781 q 679 668 709 696 q 612 626 648 639 q 546 619 576 613 q 520 652 517 624 q 509 713 526 696 q 469 727 493 730 q 427 707 446 724 q 409 672 407 691 q 420 643 411 657 q 456 613 430 628 q 578 525 526 567 q 665 439 630 483 q 720 329 702 389 q 738 207 739 269 q 715 90 737 146 q 648 -11 693 33 q 513 -90 593 -65 q 350 -109 433 -115 z "},"":{"ha":457,"x_min":170,"x_max":356,"o":"m 176 856 q 174 878 170 872 q 194 887 178 883 q 298 863 254 893 q 350 774 343 833 q 342 681 356 724 q 280 633 328 639 q 207 646 239 630 q 174 672 176 663 l 174 674 l 172 676 q 193 724 187 700 q 196 770 198 748 q 189 814 194 793 q 176 856 183 835 z "},"":{"ha":550,"x_min":109,"x_max":487,"o":"m 307 856 q 306 878 302 872 q 326 887 309 883 q 430 863 385 893 q 481 774 474 833 q 473 681 487 724 q 411 633 459 639 q 339 646 370 630 q 306 672 307 663 l 306 674 l 304 676 q 324 724 319 700 q 328 770 330 748 q 320 814 326 793 q 307 856 315 835 m 115 856 q 113 878 109 872 q 133 887 117 883 q 237 863 193 893 q 289 774 281 833 q 281 681 294 724 q 219 633 267 639 q 146 646 178 630 q 113 672 115 663 l 113 674 l 111 676 q 131 724 126 700 q 135 770 137 748 q 128 814 133 793 q 115 856 122 835 z "},"":{"ha":739,"x_min":54,"x_max":630,"o":"m 465 252 q 372 262 420 254 q 277 276 324 270 q 184 280 230 281 q 100 261 139 278 l 91 254 q 85 250 89 254 l 78 246 q 59 256 63 246 q 54 302 56 267 q 96 394 54 356 q 213 435 139 433 q 226 436 219 435 q 265 438 233 437 q 364 439 296 439 q 559 435 431 439 q 596 441 585 437 q 613 444 607 444 q 621 438 619 444 q 625 421 624 431 q 627 401 626 411 q 628 385 628 391 q 598 282 630 313 q 507 250 567 252 l 465 252 z "},"":{"ha":911,"x_min":54,"x_max":831,"o":"m 609 246 q 485 256 550 248 q 356 270 420 265 q 230 275 291 276 q 117 257 169 274 l 104 248 q 99 247 100 248 q 94 244 98 246 l 87 241 q 61 251 67 241 q 54 298 56 261 q 111 394 54 354 q 267 435 169 433 q 284 437 274 435 q 337 440 294 439 q 471 440 380 441 q 735 435 563 439 q 785 442 770 437 q 809 446 800 446 q 819 439 815 446 q 826 421 824 431 q 829 401 828 411 q 830 385 830 391 q 788 277 831 307 q 667 244 744 246 l 609 246 z "},"":{"ha":544,"x_min":-4,"x_max":480,"o":"m 222 609 q 163 672 180 648 q 124 709 146 696 l 117 709 q 113 711 115 709 l 109 711 q 104 721 102 715 q 119 744 106 728 q 150 764 131 761 q 189 760 169 767 q 230 741 209 754 q 269 715 250 728 q 307 741 287 728 q 348 760 328 754 q 386 764 369 767 q 419 744 404 761 q 433 721 431 728 q 428 711 435 715 l 424 711 q 420 709 422 709 l 413 709 q 374 672 391 696 q 315 609 357 648 q 274 587 298 591 q 222 609 244 583 m 480 146 q 444 43 478 80 q 369 -12 411 6 q 290 -32 328 -30 q 241 -35 252 -35 q 117 -17 163 -35 q 45 25 70 2 q 13 71 20 48 q 4 104 6 94 q 26 163 -4 141 q 94 194 56 185 q 162 196 131 202 q 187 172 193 191 q 185 143 183 159 q 193 112 187 126 q 209 88 198 98 q 237 78 220 78 q 255 87 241 78 q 261 135 269 96 q 221 189 256 161 q 147 248 187 217 q 75 317 107 280 q 43 400 43 354 q 56 463 43 431 q 96 519 69 494 q 169 559 124 544 q 280 574 215 574 q 338 566 309 574 q 390 543 367 557 q 429 506 413 528 q 448 459 444 485 q 437 407 454 424 q 400 389 420 391 q 363 395 380 387 q 350 419 346 404 q 344 448 356 439 q 318 458 333 457 q 288 452 302 459 q 274 431 274 444 q 280 413 274 419 q 311 393 285 407 q 356 356 328 380 q 413 299 385 331 q 460 228 441 267 q 480 146 480 189 z "},"":{"ha":1050,"x_min":133,"x_max":987,"o":"m 330 748 q 302 747 319 759 q 269 714 285 735 q 242 669 254 693 q 228 633 230 644 q 224 632 228 631 q 217 633 220 633 q 157 669 181 641 q 150 744 133 698 q 242 857 181 828 q 376 887 302 887 q 514 831 474 883 q 554 685 554 780 q 544 464 554 567 q 533 256 533 361 q 544 213 533 230 q 569 196 554 196 q 619 241 591 196 q 672 358 646 285 q 718 527 698 431 q 741 724 737 622 q 745 786 743 748 q 739 857 748 824 q 768 882 733 876 q 846 878 802 889 q 928 837 891 867 q 965 757 965 807 q 961 597 965 685 q 953 414 957 509 q 944 223 948 319 q 938 44 941 128 q 937 -109 935 -41 q 946 -217 939 -178 q 962 -262 952 -250 q 980 -278 972 -274 q 986 -285 987 -281 q 967 -307 985 -289 q 917 -337 946 -328 q 856 -344 887 -346 q 798 -329 826 -343 q 754 -291 770 -315 q 719 -181 728 -252 q 713 -32 711 -109 q 721 111 715 44 q 730 209 728 178 q 659 95 698 146 q 567 19 620 44 q 535 0 559 4 q 480 -4 511 -4 q 461 -3 470 -4 q 443 0 452 -2 q 396 15 420 4 q 353 48 372 26 q 320 106 333 70 q 307 191 307 141 q 307 203 307 196 q 308 226 307 209 q 311 276 309 243 q 315 367 313 309 q 320 512 317 424 q 330 728 324 600 q 330 748 333 733 m 561 933 q 516 930 539 924 q 483 954 493 935 q 477 1011 465 981 q 520 1056 489 1041 q 561 1058 541 1065 q 594 1031 581 1052 q 601 975 615 1002 q 561 933 587 948 m 720 943 q 674 934 696 928 q 643 961 652 941 q 638 1018 626 989 q 676 1061 650 1046 q 721 1063 700 1069 q 752 1037 743 1057 q 759 983 772 1011 q 720 943 746 956 z "},"":{"ha":546,"x_min":119,"x_max":383,"o":"m 161 69 q 176 213 165 139 q 195 361 187 287 q 203 506 204 435 q 183 637 202 576 l 174 654 q 170 663 174 659 l 167 672 q 179 703 167 696 q 233 709 191 709 q 338 643 294 709 q 380 459 382 576 q 381 448 380 454 q 382 426 382 443 q 383 378 383 409 q 382 288 383 346 q 380 140 382 230 q 372 -81 378 50 q 376 -141 372 -120 q 380 -170 380 -161 q 371 -179 380 -176 q 351 -185 363 -183 q 327 -188 339 -187 q 307 -189 315 -189 q 191 -139 224 -189 q 157 2 157 -89 l 161 69 m 204 917 q 256 906 232 920 q 287 870 280 891 q 278 807 300 833 q 217 776 256 781 q 163 788 185 774 q 133 822 141 802 q 141 884 119 856 q 204 917 163 913 z "},"":{"ha":800,"x_min":93,"x_max":652,"o":"m 444 109 q 365 145 402 126 q 292 181 328 165 q 218 210 256 198 q 139 222 180 222 q 123 218 130 213 q 113 222 117 222 q 94 276 94 246 q 106 333 93 306 q 145 385 119 361 q 211 424 172 409 q 223 430 217 426 q 260 444 230 433 q 356 474 291 454 q 548 531 422 494 q 587 549 580 541 q 602 557 594 557 q 619 543 611 557 q 631 510 626 528 q 638 475 635 493 q 641 452 641 457 q 617 388 641 413 q 552 348 593 363 l 507 339 q 446 324 478 331 q 383 313 415 317 q 419 302 402 307 q 461 288 437 296 q 516 269 485 280 q 589 244 546 259 q 626 234 613 235 q 644 233 639 233 q 651 231 650 233 q 652 220 652 230 q 641 159 652 185 q 613 117 630 133 q 576 92 596 100 q 537 83 556 83 q 487 93 519 83 l 444 109 z "},"":{"ha":807,"x_min":126,"x_max":685,"o":"m 333 531 q 413 495 376 515 q 486 459 450 476 q 559 431 522 443 q 639 419 596 419 q 655 423 648 428 q 665 419 661 419 q 684 365 683 394 q 672 307 685 335 q 632 255 659 280 q 567 217 606 230 q 555 211 561 215 q 518 197 548 207 q 420 166 487 187 q 230 109 354 144 q 191 92 198 100 q 176 83 183 83 q 159 98 167 83 q 147 131 152 113 q 140 166 143 148 q 137 189 137 183 q 161 253 137 228 q 226 293 185 278 l 270 302 q 331 317 300 309 q 394 328 363 324 q 358 339 376 333 q 317 353 341 344 q 262 371 293 361 q 189 396 231 381 q 152 406 165 404 q 133 407 139 407 q 127 409 128 407 q 126 420 126 411 q 137 481 126 456 q 165 524 148 507 q 202 549 181 541 q 241 557 222 557 q 291 548 259 557 l 333 531 z "},"":{"ha":1352,"x_min":148,"x_max":1219,"o":"m 1011 109 q 931 145 969 126 q 858 181 894 165 q 784 210 822 198 q 706 222 746 222 q 690 218 696 213 q 680 222 683 222 q 660 276 661 246 q 672 333 659 306 q 712 385 685 361 q 778 424 739 409 q 790 430 783 426 q 827 444 796 433 q 923 474 857 454 q 1115 531 989 494 q 1154 549 1146 541 q 1169 557 1161 557 q 1185 543 1178 557 q 1197 510 1193 528 q 1205 475 1202 493 q 1207 452 1207 457 q 1183 388 1207 413 q 1119 348 1159 363 l 1074 339 q 1013 324 1044 331 q 950 313 981 317 q 986 302 969 307 q 1028 288 1004 296 q 1082 269 1052 280 q 1156 244 1113 259 q 1193 234 1180 235 q 1211 233 1206 233 q 1218 231 1217 233 q 1219 220 1219 230 q 1207 159 1219 185 q 1180 117 1196 133 q 1143 92 1163 100 q 1104 83 1122 83 q 1054 93 1085 83 l 1011 109 m 502 78 q 422 114 459 94 q 349 150 385 133 q 275 179 313 167 q 196 191 237 191 q 180 183 187 181 q 169 185 172 185 q 149 240 150 209 q 162 299 148 270 q 203 353 176 328 q 269 393 230 378 q 281 398 274 394 q 318 412 287 402 q 414 443 348 422 q 606 500 480 463 q 644 518 637 509 q 659 526 652 526 q 676 511 669 526 q 688 479 683 496 q 695 444 693 461 q 698 420 698 426 q 674 356 698 381 q 609 317 650 331 l 565 307 q 504 293 535 300 q 441 281 472 285 q 477 270 459 276 q 519 256 494 265 q 573 238 543 248 q 646 213 604 228 q 683 203 670 204 q 702 202 696 202 q 708 200 707 202 q 709 189 709 198 q 698 128 709 154 q 670 85 687 102 q 633 60 654 69 q 594 52 613 52 q 544 61 576 52 l 502 78 z "},"":{"ha":1426,"x_min":120,"x_max":1191,"o":"m 328 500 q 407 464 370 483 q 481 428 444 444 q 554 399 517 411 q 633 387 591 387 q 649 392 643 396 q 659 387 656 387 q 679 333 678 363 q 667 276 680 304 q 627 223 654 248 q 561 185 600 198 q 549 180 556 183 q 512 166 543 176 q 415 134 481 156 q 224 78 348 113 q 185 60 193 69 q 170 52 178 52 q 154 67 161 52 q 142 99 146 81 q 134 134 137 117 q 131 157 131 152 q 156 221 131 196 q 220 261 180 246 l 265 270 q 326 285 294 278 q 389 296 357 293 q 353 307 370 302 q 311 321 335 313 q 256 340 287 330 q 183 365 226 350 q 146 374 159 372 q 128 376 133 376 q 121 378 122 376 q 120 389 120 380 q 131 450 120 424 q 159 493 143 476 q 196 518 176 509 q 235 526 217 526 q 285 517 254 526 l 328 500 m 837 531 q 917 495 880 515 q 990 459 954 476 q 1063 431 1026 443 q 1143 419 1100 419 q 1159 426 1152 428 q 1170 424 1167 424 q 1190 369 1189 400 q 1177 310 1191 339 q 1136 256 1163 281 q 1070 217 1109 230 q 1058 211 1065 215 q 1021 197 1052 207 q 924 166 991 187 q 733 109 857 144 q 694 92 702 100 q 680 83 687 83 q 663 98 670 83 q 651 131 656 113 q 644 166 646 148 q 641 189 641 183 q 665 253 641 228 q 730 293 689 278 l 774 302 q 835 317 804 309 q 898 328 867 324 q 862 339 880 333 q 820 353 844 344 q 766 371 796 361 q 693 396 735 381 q 656 406 669 404 q 637 407 643 407 q 631 409 631 407 q 630 420 630 411 q 641 481 630 456 q 669 524 652 507 q 706 549 685 541 q 744 557 726 557 q 794 548 763 557 l 837 531 z "},"":{"ha":889,"x_min":150,"x_max":765,"o":"m 756 35 q 698 -89 746 -39 q 584 -164 650 -139 q 445 -189 519 -189 q 307 -164 370 -189 q 199 -89 243 -139 q 152 35 156 -39 q 177 155 150 91 q 242 280 204 219 q 316 395 280 341 q 369 483 352 448 q 404 592 396 548 q 413 662 411 635 q 418 701 415 689 q 443 713 420 713 q 483 707 459 713 q 532 683 507 700 q 572 639 556 667 q 589 569 589 611 q 564 468 589 520 q 505 357 539 415 q 435 235 470 298 q 378 102 400 172 q 367 50 370 76 q 370 3 363 24 q 395 -31 376 -18 q 448 -44 413 -44 q 532 -17 502 -44 q 565 63 561 9 q 558 102 567 85 q 539 132 550 119 q 518 155 528 145 q 506 170 507 165 q 577 229 530 209 q 665 235 624 248 q 744 165 722 219 q 756 35 765 111 m 456 917 q 507 906 483 920 q 539 870 532 891 q 530 807 552 833 q 469 776 507 781 q 415 788 437 774 q 385 822 393 802 q 393 884 370 856 q 456 917 415 913 z "},"":{"ha":976,"x_min":26,"x_max":1120,"o":"m 428 720 q 485 796 457 765 q 544 846 513 828 q 613 873 576 865 q 694 881 650 881 q 773 876 733 881 q 844 854 813 870 q 896 808 876 837 q 917 735 917 780 q 915 609 917 663 q 911 496 913 556 q 907 358 909 437 q 906 156 906 280 q 924 -38 906 17 q 969 -98 943 -93 q 1019 -79 994 -104 q 1059 -33 1044 -54 q 1076 -29 1065 -24 q 1096 -46 1087 -33 q 1113 -76 1106 -59 q 1120 -107 1120 -93 q 1105 -156 1120 -137 q 1069 -188 1089 -176 q 1030 -206 1048 -200 q 1006 -211 1011 -211 q 987 -213 996 -213 q 969 -213 978 -213 q 818 -166 874 -213 q 731 -46 761 -119 q 693 112 702 26 q 683 274 683 198 q 684 308 683 291 q 685 341 685 326 q 601 322 643 331 q 515 304 559 313 q 506 254 509 278 q 500 206 502 230 q 504 132 500 174 q 513 59 507 91 l 522 31 q 533 2 526 7 q 506 -19 531 -13 q 448 -24 480 -24 q 381 -12 411 -24 q 331 29 352 0 q 297 106 309 57 q 285 231 285 156 l 285 276 q 246 276 265 276 q 207 280 228 276 q 120 300 154 285 q 67 334 87 315 q 38 374 46 354 q 28 411 30 394 q 33 458 26 433 q 58 503 41 483 q 103 533 76 522 q 169 541 130 544 q 174 537 172 539 q 178 533 176 535 q 181 511 178 524 q 196 484 185 498 q 231 457 207 470 q 298 435 256 444 q 309 433 302 433 q 360 592 330 517 q 428 720 391 667 m 707 678 q 705 728 707 709 q 693 746 702 746 q 664 722 681 746 q 627 657 646 698 q 587 563 607 617 q 548 448 567 509 l 693 467 q 702 577 696 519 q 707 678 707 635 m 646 1094 q 711 1026 693 1052 q 752 987 730 1000 l 759 987 q 763 985 761 987 l 767 985 q 772 975 774 981 q 757 952 770 969 q 712 931 739 928 q 656 951 685 935 q 601 988 628 967 q 557 1022 574 1009 q 541 1032 546 1031 q 531 1035 535 1033 q 535 1052 528 1039 q 546 1069 543 1065 q 595 1109 570 1106 q 646 1094 620 1113 z "},"":{"ha":976,"x_min":26,"x_max":1120,"o":"m 428 720 q 485 796 457 765 q 544 846 513 828 q 613 873 576 865 q 694 881 650 881 q 773 876 733 881 q 844 854 813 870 q 896 808 876 837 q 917 735 917 780 q 915 609 917 663 q 911 496 913 556 q 907 358 909 437 q 906 156 906 280 q 924 -38 906 17 q 969 -98 943 -93 q 1019 -79 994 -104 q 1059 -33 1044 -54 q 1076 -29 1065 -24 q 1096 -46 1087 -33 q 1113 -76 1106 -59 q 1120 -107 1120 -93 q 1105 -156 1120 -137 q 1069 -188 1089 -176 q 1030 -206 1048 -200 q 1006 -211 1011 -211 q 987 -213 996 -213 q 969 -213 978 -213 q 818 -166 874 -213 q 731 -46 761 -119 q 693 112 702 26 q 683 274 683 198 q 684 308 683 291 q 685 341 685 326 q 601 322 643 331 q 515 304 559 313 q 506 254 509 278 q 500 206 502 230 q 504 132 500 174 q 513 59 507 91 l 522 31 q 533 2 526 7 q 506 -19 531 -13 q 448 -24 480 -24 q 381 -12 411 -24 q 331 29 352 0 q 297 106 309 57 q 285 231 285 156 l 285 276 q 246 276 265 276 q 207 280 228 276 q 120 300 154 285 q 67 334 87 315 q 38 374 46 354 q 28 411 30 394 q 33 458 26 433 q 58 503 41 483 q 103 533 76 522 q 169 541 130 544 q 174 537 172 539 q 178 533 176 535 q 181 511 178 524 q 196 484 185 498 q 231 457 207 470 q 298 435 256 444 q 309 433 302 433 q 360 592 330 517 q 428 720 391 667 m 707 678 q 705 728 707 709 q 693 746 702 746 q 664 722 681 746 q 627 657 646 698 q 587 563 607 617 q 548 448 567 509 l 693 467 q 702 577 696 519 q 707 678 707 635 m 844 1148 q 895 1163 870 1167 q 944 1122 920 1159 q 956 1106 948 1119 q 959 1089 963 1093 q 950 1086 956 1087 q 933 1076 944 1085 q 890 1042 917 1063 q 834 1005 863 1020 q 779 985 806 989 q 733 1006 752 981 q 719 1029 720 1022 q 724 1039 717 1035 l 728 1039 q 731 1041 730 1041 l 739 1041 q 759 1057 750 1048 q 780 1080 769 1067 q 806 1109 791 1093 q 844 1148 820 1126 z "},"":{"ha":976,"x_min":26,"x_max":1120,"o":"m 654 1080 q 706 1102 676 1106 q 746 1080 730 1098 q 806 1017 789 1041 q 844 980 822 993 l 852 980 q 856 978 854 980 l 859 978 q 865 968 867 974 q 850 944 863 961 q 818 925 835 928 q 780 929 800 922 q 739 947 759 935 q 700 974 719 959 q 661 947 681 959 q 620 929 641 935 q 581 925 600 922 q 550 944 563 928 q 535 968 537 961 q 541 978 533 974 l 544 978 q 548 980 546 980 l 556 980 q 594 1017 578 993 q 654 1080 611 1041 m 428 720 q 485 796 457 765 q 544 846 513 828 q 613 873 576 865 q 694 881 650 881 q 773 876 733 881 q 844 854 813 870 q 896 808 876 837 q 917 735 917 780 q 915 609 917 663 q 911 496 913 556 q 907 358 909 437 q 906 156 906 280 q 924 -38 906 17 q 969 -98 943 -93 q 1019 -79 994 -104 q 1059 -33 1044 -54 q 1076 -29 1065 -24 q 1096 -46 1087 -33 q 1113 -76 1106 -59 q 1120 -107 1120 -93 q 1105 -156 1120 -137 q 1069 -188 1089 -176 q 1030 -206 1048 -200 q 1006 -211 1011 -211 q 987 -213 996 -213 q 969 -213 978 -213 q 818 -166 874 -213 q 731 -46 761 -119 q 693 112 702 26 q 683 274 683 198 q 684 308 683 291 q 685 341 685 326 q 601 322 643 331 q 515 304 559 313 q 506 254 509 278 q 500 206 502 230 q 504 132 500 174 q 513 59 507 91 l 522 31 q 533 2 526 7 q 506 -19 531 -13 q 448 -24 480 -24 q 381 -12 411 -24 q 331 29 352 0 q 297 106 309 57 q 285 231 285 156 l 285 276 q 246 276 265 276 q 207 280 228 276 q 120 300 154 285 q 67 334 87 315 q 38 374 46 354 q 28 411 30 394 q 33 458 26 433 q 58 503 41 483 q 103 533 76 522 q 169 541 130 544 q 174 537 172 539 q 178 533 176 535 q 181 511 178 524 q 196 484 185 498 q 231 457 207 470 q 298 435 256 444 q 309 433 302 433 q 360 592 330 517 q 428 720 391 667 m 707 678 q 705 728 707 709 q 693 746 702 746 q 664 722 681 746 q 627 657 646 698 q 587 563 607 617 q 548 448 567 509 l 693 467 q 702 577 696 519 q 707 678 707 635 z "},"":{"ha":976,"x_min":26,"x_max":1120,"o":"m 765 924 q 706 931 730 924 q 662 942 683 937 q 619 945 641 946 q 563 931 596 944 l 554 926 q 550 925 550 926 q 548 924 550 924 l 544 920 q 527 929 530 920 q 522 963 524 937 q 549 1030 522 1006 q 639 1043 576 1054 q 693 1029 672 1037 q 734 1018 713 1020 q 782 1022 756 1015 q 856 1052 809 1030 q 869 1037 863 1056 q 874 1009 874 1019 q 846 939 876 954 q 765 924 817 924 m 428 720 q 485 796 457 765 q 544 846 513 828 q 613 873 576 865 q 694 881 650 881 q 773 876 733 881 q 844 854 813 870 q 896 808 876 837 q 917 735 917 780 q 915 609 917 663 q 911 496 913 556 q 907 358 909 437 q 906 156 906 280 q 924 -38 906 17 q 969 -98 943 -93 q 1019 -79 994 -104 q 1059 -33 1044 -54 q 1076 -29 1065 -24 q 1096 -46 1087 -33 q 1113 -76 1106 -59 q 1120 -107 1120 -93 q 1105 -156 1120 -137 q 1069 -188 1089 -176 q 1030 -206 1048 -200 q 1006 -211 1011 -211 q 987 -213 996 -213 q 969 -213 978 -213 q 818 -166 874 -213 q 731 -46 761 -119 q 693 112 702 26 q 683 274 683 198 q 684 308 683 291 q 685 341 685 326 q 601 322 643 331 q 515 304 559 313 q 506 254 509 278 q 500 206 502 230 q 504 132 500 174 q 513 59 507 91 l 522 31 q 533 2 526 7 q 506 -19 531 -13 q 448 -24 480 -24 q 381 -12 411 -24 q 331 29 352 0 q 297 106 309 57 q 285 231 285 156 l 285 276 q 246 276 265 276 q 207 280 228 276 q 120 300 154 285 q 67 334 87 315 q 38 374 46 354 q 28 411 30 394 q 33 458 26 433 q 58 503 41 483 q 103 533 76 522 q 169 541 130 544 q 174 537 172 539 q 178 533 176 535 q 181 511 178 524 q 196 484 185 498 q 231 457 207 470 q 298 435 256 444 q 309 433 302 433 q 360 592 330 517 q 428 720 391 667 m 707 678 q 705 728 707 709 q 693 746 702 746 q 664 722 681 746 q 627 657 646 698 q 587 563 607 617 q 548 448 567 509 l 693 467 q 702 577 696 519 q 707 678 707 635 z "},"":{"ha":976,"x_min":26,"x_max":1120,"o":"m 652 928 q 606 924 630 919 q 574 948 583 930 q 568 1006 556 976 q 611 1050 580 1035 q 652 1053 631 1059 q 685 1026 672 1046 q 692 969 706 996 q 652 928 678 943 m 811 937 q 765 929 787 922 q 733 956 743 935 q 729 1012 717 983 q 767 1056 741 1041 q 812 1057 791 1063 q 843 1031 833 1052 q 850 978 863 1006 q 811 937 837 950 m 428 720 q 485 796 457 765 q 544 846 513 828 q 613 873 576 865 q 694 881 650 881 q 773 876 733 881 q 844 854 813 870 q 896 808 876 837 q 917 735 917 780 q 915 609 917 663 q 911 496 913 556 q 907 358 909 437 q 906 156 906 280 q 924 -38 906 17 q 969 -98 943 -93 q 1019 -79 994 -104 q 1059 -33 1044 -54 q 1076 -29 1065 -24 q 1096 -46 1087 -33 q 1113 -76 1106 -59 q 1120 -107 1120 -93 q 1105 -156 1120 -137 q 1069 -188 1089 -176 q 1030 -206 1048 -200 q 1006 -211 1011 -211 q 987 -213 996 -213 q 969 -213 978 -213 q 818 -166 874 -213 q 731 -46 761 -119 q 693 112 702 26 q 683 274 683 198 q 684 308 683 291 q 685 341 685 326 q 601 322 643 331 q 515 304 559 313 q 506 254 509 278 q 500 206 502 230 q 504 132 500 174 q 513 59 507 91 l 522 31 q 533 2 526 7 q 506 -19 531 -13 q 448 -24 480 -24 q 381 -12 411 -24 q 331 29 352 0 q 297 106 309 57 q 285 231 285 156 l 285 276 q 246 276 265 276 q 207 280 228 276 q 120 300 154 285 q 67 334 87 315 q 38 374 46 354 q 28 411 30 394 q 33 458 26 433 q 58 503 41 483 q 103 533 76 522 q 169 541 130 544 q 174 537 172 539 q 178 533 176 535 q 181 511 178 524 q 196 484 185 498 q 231 457 207 470 q 298 435 256 444 q 309 433 302 433 q 360 592 330 517 q 428 720 391 667 m 707 678 q 705 728 707 709 q 693 746 702 746 q 664 722 681 746 q 627 657 646 698 q 587 563 607 617 q 548 448 567 509 l 693 467 q 702 577 696 519 q 707 678 707 635 z "},"":{"ha":976,"x_min":26,"x_max":1120,"o":"m 724 935 q 657 958 687 935 q 619 1017 628 981 q 639 1100 607 1063 q 724 1137 670 1137 q 783 1114 756 1137 q 822 1057 811 1091 l 822 1059 q 801 973 831 1011 q 724 935 770 935 m 720 983 q 743 997 733 983 q 748 1031 752 1011 q 737 1049 744 1041 q 719 1057 730 1057 q 694 1045 704 1057 q 689 1013 685 1033 q 720 983 691 983 m 428 720 q 485 796 457 765 q 544 846 513 828 q 613 873 576 865 q 694 881 650 881 q 773 876 733 881 q 844 854 813 870 q 896 808 876 837 q 917 735 917 780 q 915 609 917 663 q 911 496 913 556 q 907 358 909 437 q 906 156 906 280 q 924 -38 906 17 q 969 -98 943 -93 q 1019 -79 994 -104 q 1059 -33 1044 -54 q 1076 -29 1065 -24 q 1096 -46 1087 -33 q 1113 -76 1106 -59 q 1120 -107 1120 -93 q 1105 -156 1120 -137 q 1069 -188 1089 -176 q 1030 -206 1048 -200 q 1006 -211 1011 -211 q 987 -213 996 -213 q 969 -213 978 -213 q 818 -166 874 -213 q 731 -46 761 -119 q 693 112 702 26 q 683 274 683 198 q 684 308 683 291 q 685 341 685 326 q 601 322 643 331 q 515 304 559 313 q 506 254 509 278 q 500 206 502 230 q 504 132 500 174 q 513 59 507 91 l 522 31 q 533 2 526 7 q 506 -19 531 -13 q 448 -24 480 -24 q 381 -12 411 -24 q 331 29 352 0 q 297 106 309 57 q 285 231 285 156 l 285 276 q 246 276 265 276 q 207 280 228 276 q 120 300 154 285 q 67 334 87 315 q 38 374 46 354 q 28 411 30 394 q 33 458 26 433 q 58 503 41 483 q 103 533 76 522 q 169 541 130 544 q 174 537 172 539 q 178 533 176 535 q 181 511 178 524 q 196 484 185 498 q 231 457 207 470 q 298 435 256 444 q 309 433 302 433 q 360 592 330 517 q 428 720 391 667 m 707 678 q 705 728 707 709 q 693 746 702 746 q 664 722 681 746 q 627 657 646 698 q 587 563 607 617 q 548 448 567 509 l 693 467 q 702 577 696 519 q 707 678 707 635 z "},"":{"ha":706,"x_min":0,"x_max":674,"o":"m 381 454 q 394 453 383 454 q 417 452 404 452 q 442 451 430 452 q 459 450 454 450 q 484 437 474 450 q 495 409 494 424 q 488 381 496 394 q 457 367 480 369 q 444 365 454 367 q 421 361 433 363 q 399 357 409 359 q 385 356 389 356 q 292 299 333 341 q 244 204 250 257 q 260 115 239 150 q 317 63 281 80 q 396 46 352 46 q 481 63 441 46 q 549 114 520 80 q 585 198 578 148 q 601 216 587 215 q 631 205 615 217 q 658 167 646 193 q 670 104 670 141 q 653 35 670 70 q 601 -31 635 0 q 513 -83 567 -61 q 387 -113 459 -106 q 232 -103 304 -122 q 108 -42 161 -83 q 28 60 56 0 q 6 196 0 120 q 64 341 13 291 q 198 420 115 391 q 142 450 170 426 q 90 509 113 474 q 56 589 67 544 q 54 680 44 633 q 147 828 72 770 q 348 889 222 885 q 468 879 406 893 q 577 832 530 865 q 649 749 624 800 q 661 626 674 698 q 619 569 652 580 q 552 572 585 557 q 544 574 548 572 q 541 578 541 576 q 540 648 552 620 q 504 691 528 676 q 450 708 480 706 q 394 704 420 711 q 319 652 344 691 q 292 571 293 613 q 313 494 291 530 q 381 454 335 459 m 322 1093 q 387 1024 369 1050 q 428 985 406 998 l 435 985 q 439 983 437 985 l 443 983 q 448 973 450 980 q 433 950 446 967 q 388 930 415 926 q 332 949 361 933 q 277 986 304 965 q 233 1020 250 1007 q 217 1031 222 1030 q 207 1033 211 1031 q 211 1050 204 1037 q 222 1067 219 1063 q 271 1107 246 1104 q 322 1093 296 1111 z "},"":{"ha":693,"x_min":0,"x_max":674,"o":"m 381 454 q 394 453 383 454 q 417 452 404 452 q 442 451 430 452 q 459 450 454 450 q 484 437 474 450 q 495 409 494 424 q 488 381 496 394 q 457 367 480 369 q 444 365 454 367 q 421 361 433 363 q 399 357 409 359 q 385 356 389 356 q 292 299 333 341 q 244 204 250 257 q 260 115 239 150 q 317 63 281 80 q 396 46 352 46 q 481 63 441 46 q 549 114 520 80 q 585 198 578 148 q 601 216 587 215 q 631 205 615 217 q 658 167 646 193 q 670 104 670 141 q 653 35 670 70 q 601 -31 635 0 q 513 -83 567 -61 q 387 -113 459 -106 q 232 -103 304 -122 q 108 -42 161 -83 q 28 60 56 0 q 6 196 0 120 q 64 341 13 291 q 198 420 115 391 q 142 450 170 426 q 90 509 113 474 q 56 589 67 544 q 54 680 44 633 q 147 828 72 770 q 348 889 222 885 q 468 879 406 893 q 577 832 530 865 q 649 749 624 800 q 661 626 674 698 q 619 569 652 580 q 552 572 585 557 q 544 574 548 572 q 541 578 541 576 q 540 648 552 620 q 504 691 528 676 q 450 708 480 706 q 394 704 420 711 q 319 652 344 691 q 292 571 293 613 q 313 494 291 530 q 381 454 335 459 m 433 1094 q 484 1109 459 1113 q 533 1069 509 1106 q 544 1052 537 1065 q 548 1035 552 1039 q 539 1032 544 1033 q 522 1022 533 1031 q 479 988 506 1009 q 423 951 452 967 q 368 931 394 935 q 322 952 341 928 q 307 975 309 969 q 313 985 306 981 l 317 985 q 320 987 319 987 l 328 987 q 348 1004 339 994 q 369 1026 357 1013 q 394 1056 380 1039 q 433 1094 409 1072 z "},"":{"ha":696,"x_min":0,"x_max":674,"o":"m 320 1085 q 372 1107 343 1111 q 413 1085 396 1104 q 472 1022 456 1046 q 511 985 489 998 l 519 985 q 522 983 520 985 l 526 983 q 531 973 533 980 q 517 950 530 967 q 484 931 502 933 q 446 934 467 928 q 406 953 426 941 q 367 980 385 965 q 328 953 348 965 q 287 934 307 941 q 248 931 267 928 q 217 950 230 933 q 202 973 204 967 q 207 983 200 980 l 211 983 q 215 985 213 985 l 222 985 q 261 1022 244 998 q 320 1085 278 1046 m 381 454 q 394 453 383 454 q 417 452 404 452 q 442 451 430 452 q 459 450 454 450 q 484 437 474 450 q 495 409 494 424 q 488 381 496 394 q 457 367 480 369 q 444 365 454 367 q 421 361 433 363 q 399 357 409 359 q 385 356 389 356 q 292 299 333 341 q 244 204 250 257 q 260 115 239 150 q 317 63 281 80 q 396 46 352 46 q 481 63 441 46 q 549 114 520 80 q 585 198 578 148 q 601 216 587 215 q 631 205 615 217 q 658 167 646 193 q 670 104 670 141 q 653 35 670 70 q 601 -31 635 0 q 513 -83 567 -61 q 387 -113 459 -106 q 232 -103 304 -122 q 108 -42 161 -83 q 28 60 56 0 q 6 196 0 120 q 64 341 13 291 q 198 420 115 391 q 142 450 170 426 q 90 509 113 474 q 56 589 67 544 q 54 680 44 633 q 147 828 72 770 q 348 889 222 885 q 468 879 406 893 q 577 832 530 865 q 649 749 624 800 q 661 626 674 698 q 619 569 652 580 q 552 572 585 557 q 544 574 548 572 q 541 578 541 576 q 540 648 552 620 q 504 691 528 676 q 450 708 480 706 q 394 704 420 711 q 319 652 344 691 q 292 571 293 613 q 313 494 291 530 q 381 454 335 459 z "},"":{"ha":696,"x_min":0,"x_max":674,"o":"m 381 454 q 394 453 383 454 q 417 452 404 452 q 442 451 430 452 q 459 450 454 450 q 484 437 474 450 q 495 409 494 424 q 488 381 496 394 q 457 367 480 369 q 444 365 454 367 q 421 361 433 363 q 399 357 409 359 q 385 356 389 356 q 292 299 333 341 q 244 204 250 257 q 260 115 239 150 q 317 63 281 80 q 396 46 352 46 q 481 63 441 46 q 549 114 520 80 q 585 198 578 148 q 601 216 587 215 q 631 205 615 217 q 658 167 646 193 q 670 104 670 141 q 653 35 670 70 q 601 -31 635 0 q 513 -83 567 -61 q 387 -113 459 -106 q 232 -103 304 -122 q 108 -42 161 -83 q 28 60 56 0 q 6 196 0 120 q 64 341 13 291 q 198 420 115 391 q 142 450 170 426 q 90 509 113 474 q 56 589 67 544 q 54 680 44 633 q 147 828 72 770 q 348 889 222 885 q 468 879 406 893 q 577 832 530 865 q 649 749 624 800 q 661 626 674 698 q 619 569 652 580 q 552 572 585 557 q 544 574 548 572 q 541 578 541 576 q 540 648 552 620 q 504 691 528 676 q 450 708 480 706 q 394 704 420 711 q 319 652 344 691 q 292 571 293 613 q 313 494 291 530 q 381 454 335 459 m 298 931 q 253 928 276 922 q 220 952 230 933 q 214 1009 202 980 q 257 1054 226 1039 q 298 1056 278 1063 q 331 1030 319 1050 q 338 973 352 1000 q 298 931 324 946 m 457 941 q 411 932 433 926 q 380 959 389 939 q 375 1016 363 987 q 413 1059 387 1044 q 458 1061 437 1067 q 489 1035 480 1056 q 496 981 509 1009 q 457 941 483 954 z "},"":{"ha":350,"x_min":-122,"x_max":319,"o":"m 74 748 q 46 747 63 759 q 14 714 30 735 q -14 669 -2 693 q -28 635 -26 646 q -31 634 -28 633 q -39 635 -35 635 q -98 671 -74 643 q -106 744 -122 700 q -44 833 -85 796 q 72 881 -2 870 q 240 849 185 898 q 300 687 294 800 q 299 646 300 667 q 298 600 298 626 q 286 259 293 389 q 281 81 280 130 q 283 35 281 59 q 288 -11 285 11 q 297 -51 291 -33 q 313 -76 304 -69 l 317 -81 q 293 -110 319 -104 q 228 -117 267 -117 q 173 -108 202 -117 q 119 -78 144 -100 q 77 -19 94 -56 q 57 76 59 19 q 57 163 56 117 l 74 728 q 74 748 78 733 m 81 1096 q 146 1028 128 1054 q 187 989 165 1002 l 194 989 q 198 987 196 989 l 202 987 q 207 977 209 983 q 193 954 206 970 q 147 933 174 930 q 92 953 120 937 q 36 990 63 969 q -7 1024 9 1011 q -24 1034 -19 1033 q -33 1037 -30 1035 q -30 1054 -37 1041 q -19 1070 -22 1067 q 31 1111 6 1107 q 81 1096 56 1115 z "},"":{"ha":474,"x_min":-6,"x_max":435,"o":"m 191 748 q 163 747 180 759 q 131 714 146 735 q 103 669 115 693 q 89 635 91 646 q 85 634 89 633 q 78 635 81 635 q 19 671 43 643 q 11 744 -6 700 q 73 833 31 796 q 189 881 115 870 q 356 849 302 898 q 417 687 411 800 q 416 646 417 667 q 415 600 415 626 q 403 259 409 389 q 398 81 396 130 q 400 35 398 59 q 405 -11 402 11 q 414 -51 407 -33 q 430 -76 420 -69 l 433 -81 q 409 -110 435 -104 q 344 -117 383 -117 q 290 -108 319 -117 q 236 -78 261 -100 q 194 -19 211 -56 q 174 76 176 19 q 174 163 172 117 l 191 728 q 191 748 194 733 m 298 1094 q 349 1109 324 1113 q 398 1069 374 1106 q 409 1052 402 1065 q 413 1035 417 1039 q 404 1032 409 1033 q 387 1022 398 1031 q 344 988 370 1009 q 288 951 317 967 q 232 931 259 935 q 187 952 206 928 q 172 975 174 969 q 178 985 170 981 l 181 985 q 185 987 183 987 l 193 987 q 213 1004 204 994 q 233 1026 222 1013 q 259 1056 244 1039 q 298 1094 274 1072 z "},"":{"ha":456,"x_min":-20,"x_max":420,"o":"m 170 1085 q 222 1107 193 1111 q 263 1085 246 1104 q 322 1022 306 1046 q 361 985 339 998 l 369 985 q 372 983 370 985 l 376 983 q 381 973 383 980 q 367 950 380 967 q 334 931 352 933 q 296 934 317 928 q 256 953 276 941 q 217 980 235 965 q 178 953 198 965 q 137 934 157 941 q 98 931 117 928 q 67 950 80 933 q 52 973 54 967 q 57 983 50 980 l 61 983 q 65 985 63 985 l 72 985 q 111 1022 94 998 q 170 1085 128 1046 m 176 748 q 148 747 165 759 q 116 714 131 735 q 88 669 100 693 q 74 635 76 646 q 70 634 74 633 q 63 635 67 635 q 4 671 28 643 q -4 744 -20 700 q 58 833 17 796 q 174 881 100 870 q 342 849 287 898 q 402 687 396 800 q 401 646 402 667 q 400 600 400 626 q 388 259 394 389 q 383 81 381 130 q 385 35 383 59 q 390 -11 387 11 q 399 -51 393 -33 q 415 -76 406 -69 l 419 -81 q 394 -110 420 -104 q 330 -117 369 -117 q 275 -108 304 -117 q 221 -78 246 -100 q 179 -19 196 -56 q 159 76 161 19 q 159 163 157 117 l 176 728 q 176 748 180 733 z "},"":{"ha":467,"x_min":-13,"x_max":428,"o":"m 183 748 q 156 747 172 759 q 123 714 139 735 q 95 669 107 693 q 81 635 83 646 q 78 634 81 633 q 70 635 74 635 q 11 671 35 643 q 4 744 -13 700 q 66 833 24 796 q 181 881 107 870 q 349 849 294 898 q 409 687 404 800 q 408 646 409 667 q 407 600 407 626 q 395 259 402 389 q 391 81 389 130 q 393 35 391 59 q 397 -11 394 11 q 406 -51 400 -33 q 422 -76 413 -69 l 426 -81 q 402 -110 428 -104 q 337 -117 376 -117 q 282 -108 311 -117 q 229 -78 254 -100 q 186 -19 204 -56 q 167 76 169 19 q 167 163 165 117 l 183 728 q 183 748 187 733 m 154 930 q 108 926 131 920 q 76 950 85 931 q 69 1007 57 978 q 113 1052 81 1037 q 154 1055 133 1061 q 187 1028 174 1048 q 194 971 207 998 q 154 930 180 944 m 313 939 q 267 931 289 924 q 235 957 244 937 q 231 1014 219 985 q 269 1057 243 1043 q 314 1059 293 1065 q 344 1033 335 1054 q 352 980 365 1007 q 313 939 339 952 z "},"":{"ha":809,"x_min":20,"x_max":746,"o":"m 457 791 q 464 735 463 763 q 461 683 465 707 q 417 623 452 635 q 348 624 381 611 q 339 630 339 630 q 344 673 343 643 q 341 731 344 704 q 332 764 337 756 q 323 770 328 772 q 313 757 319 769 q 300 731 307 746 q 275 644 287 707 q 255 502 263 581 q 246 334 246 422 q 259 174 246 246 q 300 55 272 102 q 376 7 328 7 q 467 61 431 7 q 519 196 502 115 q 540 376 537 278 q 534 565 543 474 q 508 725 526 656 q 470 819 491 794 q 452 842 461 830 q 438 863 443 854 q 437 879 433 872 q 457 885 441 885 q 587 843 530 881 q 687 719 644 804 q 730 569 713 665 q 746 365 746 474 q 717 144 746 233 q 642 0 687 56 q 539 -81 596 -56 q 424 -113 481 -107 q 231 -87 307 -122 q 108 7 154 -52 q 44 141 63 67 q 24 281 26 215 q 34 481 20 374 q 86 679 48 589 q 188 825 124 769 q 348 876 252 881 q 419 858 391 872 q 457 791 446 844 m 344 1093 q 409 1024 391 1050 q 450 985 428 998 l 457 985 q 461 983 459 985 l 465 983 q 470 973 472 980 q 456 950 469 967 q 410 930 437 926 q 355 949 383 933 q 299 986 326 965 q 256 1020 272 1007 q 239 1031 244 1030 q 230 1033 233 1031 q 233 1050 226 1037 q 244 1067 241 1063 q 294 1107 269 1104 q 344 1093 319 1111 z "},"":{"ha":798,"x_min":9,"x_max":735,"o":"m 446 791 q 453 735 452 763 q 450 683 454 707 q 406 623 441 635 q 337 624 370 611 q 328 630 328 630 q 332 673 331 643 q 330 731 333 704 q 321 764 326 756 q 312 770 317 772 q 302 757 307 769 q 289 731 296 746 q 264 644 276 707 q 244 502 252 581 q 235 334 235 422 q 248 174 235 246 q 289 55 261 102 q 365 7 317 7 q 456 61 420 7 q 508 196 491 115 q 529 376 526 278 q 523 565 531 474 q 497 725 515 656 q 459 819 480 794 q 441 842 450 830 q 427 863 431 854 q 426 879 422 872 q 446 885 430 885 q 576 843 519 881 q 676 719 633 804 q 719 569 702 665 q 735 365 735 474 q 706 144 735 233 q 631 0 676 56 q 528 -81 585 -56 q 413 -113 470 -107 q 219 -87 296 -122 q 97 7 143 -52 q 33 141 52 67 q 13 281 15 215 q 23 481 9 374 q 75 679 37 589 q 177 825 113 769 q 337 876 241 881 q 407 858 380 872 q 446 791 435 844 m 452 1094 q 503 1109 478 1113 q 552 1069 528 1106 q 563 1052 556 1065 q 567 1035 570 1039 q 557 1032 563 1033 q 541 1022 552 1031 q 497 988 524 1009 q 442 951 470 967 q 386 931 413 935 q 341 952 359 928 q 326 975 328 969 q 331 985 324 981 l 335 985 q 339 987 337 987 l 346 987 q 367 1004 357 994 q 387 1026 376 1013 q 413 1056 398 1039 q 452 1094 428 1072 z "},"":{"ha":809,"x_min":20,"x_max":746,"o":"m 359 1087 q 411 1109 381 1113 q 452 1087 435 1106 q 511 1024 494 1048 q 550 987 528 1000 l 557 987 q 561 985 559 987 l 565 985 q 570 975 572 981 q 556 952 569 969 q 523 932 541 935 q 485 936 506 930 q 444 955 465 943 q 406 981 424 967 q 367 955 387 967 q 326 936 346 943 q 287 932 306 930 q 256 952 269 935 q 241 975 243 969 q 246 985 239 981 l 250 985 q 254 987 252 987 l 261 987 q 300 1024 283 1000 q 359 1087 317 1048 m 457 791 q 464 735 463 763 q 461 683 465 707 q 417 623 452 635 q 348 624 381 611 q 339 630 339 630 q 344 673 343 643 q 341 731 344 704 q 332 764 337 756 q 323 770 328 772 q 313 757 319 769 q 300 731 307 746 q 275 644 287 707 q 255 502 263 581 q 246 334 246 422 q 259 174 246 246 q 300 55 272 102 q 376 7 328 7 q 467 61 431 7 q 519 196 502 115 q 540 376 537 278 q 534 565 543 474 q 508 725 526 656 q 470 819 491 794 q 452 842 461 830 q 438 863 443 854 q 437 879 433 872 q 457 885 441 885 q 587 843 530 881 q 687 719 644 804 q 730 569 713 665 q 746 365 746 474 q 717 144 746 233 q 642 0 687 56 q 539 -81 596 -56 q 424 -113 481 -107 q 231 -87 307 -122 q 108 7 154 -52 q 44 141 63 67 q 24 281 26 215 q 34 481 20 374 q 86 679 48 589 q 188 825 124 769 q 348 876 252 881 q 419 858 391 872 q 457 791 446 844 z "},"":{"ha":915,"x_min":126,"x_max":852,"o":"m 563 791 q 569 735 569 763 q 567 683 570 707 q 522 623 557 635 q 454 624 487 611 q 444 630 444 630 q 449 673 448 643 q 446 731 450 704 q 438 764 443 756 q 429 770 433 772 q 419 757 424 769 q 406 731 413 746 q 381 644 393 707 q 360 502 369 581 q 352 334 352 422 q 365 174 352 246 q 406 55 378 102 q 481 7 433 7 q 572 61 537 7 q 625 196 607 115 q 645 376 643 278 q 640 565 648 474 q 614 725 631 656 q 576 819 596 794 q 557 842 567 830 q 544 863 548 854 q 543 879 539 872 q 563 885 546 885 q 693 843 635 881 q 793 719 750 804 q 835 569 819 665 q 852 365 852 474 q 822 144 852 233 q 747 0 793 56 q 644 -81 702 -56 q 530 -113 587 -107 q 336 -87 413 -122 q 214 7 259 -52 q 150 141 169 67 q 130 281 131 215 q 140 481 126 374 q 192 679 154 589 q 294 825 230 769 q 454 876 357 881 q 524 858 496 872 q 563 791 552 844 m 557 930 q 499 936 522 930 q 455 947 476 943 q 411 951 433 952 q 356 937 389 950 l 346 931 q 343 931 343 931 q 341 930 343 930 l 337 926 q 319 934 322 926 q 315 969 317 943 q 342 1035 315 1011 q 431 1048 369 1059 q 485 1034 465 1043 q 527 1023 506 1026 q 575 1028 548 1020 q 648 1057 602 1035 q 661 1043 656 1061 q 667 1015 667 1024 q 639 944 669 959 q 557 930 609 930 z "},"":{"ha":794,"x_min":6,"x_max":731,"o":"m 443 791 q 449 735 448 763 q 446 683 450 707 q 402 623 437 635 q 333 624 367 611 q 324 630 324 630 q 329 673 328 643 q 326 731 330 704 q 318 764 322 756 q 308 770 313 772 q 298 757 304 769 q 285 731 293 746 q 260 644 272 707 q 240 502 248 581 q 231 334 231 422 q 244 174 231 246 q 285 55 257 102 q 361 7 313 7 q 452 61 417 7 q 505 196 487 115 q 525 376 522 278 q 519 565 528 474 q 494 725 511 656 q 456 819 476 794 q 437 842 446 830 q 423 863 428 854 q 422 879 419 872 q 443 885 426 885 q 572 843 515 881 q 672 719 630 804 q 715 569 698 665 q 731 365 731 474 q 702 144 731 233 q 627 0 672 56 q 524 -81 581 -56 q 409 -113 467 -107 q 216 -87 293 -122 q 94 7 139 -52 q 30 141 48 67 q 9 281 11 215 q 19 481 6 374 q 71 679 33 589 q 173 825 109 769 q 333 876 237 881 q 404 858 376 872 q 443 791 431 844 m 317 941 q 271 937 294 931 q 239 961 248 943 q 232 1019 220 989 q 276 1063 244 1048 q 317 1066 296 1072 q 350 1039 337 1059 q 356 982 370 1009 q 317 941 343 956 m 476 950 q 430 942 452 935 q 398 969 407 948 q 394 1025 381 996 q 431 1069 406 1054 q 477 1070 456 1076 q 507 1044 498 1065 q 515 991 528 1019 q 476 950 502 963 z "},"":{"ha":889,"x_min":-2,"x_max":869,"o":"m 194 748 q 167 747 183 759 q 134 714 150 735 q 106 669 119 693 q 93 633 94 644 q 89 632 93 631 q 81 633 85 633 q 22 669 46 641 q 15 744 -2 698 q 106 857 46 828 q 241 887 167 887 q 379 831 339 883 q 419 685 419 780 q 408 464 419 567 q 398 256 398 361 q 408 213 398 230 q 433 196 419 196 q 483 241 456 196 q 539 358 511 285 q 588 527 567 431 q 617 724 609 622 q 625 786 620 748 q 620 857 630 824 q 632 878 617 870 q 673 885 648 885 q 729 878 698 885 q 785 855 759 870 q 828 815 811 839 q 843 757 844 791 q 831 543 839 650 q 817 337 822 435 q 811 155 811 239 q 826 11 811 70 q 844 -34 833 -22 q 862 -50 856 -46 q 868 -57 869 -54 q 850 -80 867 -61 q 801 -108 830 -100 q 743 -117 772 -117 q 687 -108 713 -117 q 648 -89 661 -100 q 596 -19 611 -57 q 579 61 581 20 q 580 140 576 102 q 587 209 583 178 q 541 124 563 167 q 487 50 519 81 q 386 -3 441 2 q 284 19 331 -7 q 206 97 237 46 q 174 209 174 148 q 174 219 174 215 q 175 240 174 224 q 177 285 176 256 q 180 371 178 315 q 185 514 181 428 q 194 728 189 600 q 194 748 198 733 m 402 1098 q 467 1030 448 1056 q 507 991 485 1004 l 515 991 q 519 989 517 991 l 522 989 q 528 979 530 985 q 513 956 526 972 q 468 935 494 931 q 412 955 441 939 q 356 992 383 970 q 313 1026 330 1013 q 296 1036 302 1035 q 287 1039 291 1037 q 291 1056 283 1043 q 302 1072 298 1069 q 351 1113 326 1109 q 402 1098 376 1117 z "},"":{"ha":878,"x_min":-13,"x_max":857,"o":"m 183 748 q 156 747 172 759 q 123 714 139 735 q 95 669 107 693 q 81 633 83 644 q 78 632 81 631 q 70 633 74 633 q 11 669 35 641 q 4 744 -13 698 q 95 857 35 828 q 230 887 156 887 q 368 831 328 883 q 407 685 407 780 q 397 464 407 567 q 387 256 387 361 q 397 213 387 230 q 422 196 407 196 q 472 241 444 196 q 528 358 500 285 q 577 527 556 431 q 606 724 598 622 q 614 786 609 748 q 609 857 619 824 q 621 878 606 870 q 662 885 637 885 q 718 878 687 885 q 774 855 748 870 q 817 815 800 839 q 831 757 833 791 q 819 543 828 650 q 806 337 811 435 q 800 155 800 239 q 815 11 800 70 q 833 -34 822 -22 q 851 -50 844 -46 q 856 -57 857 -54 q 839 -80 856 -61 q 790 -108 819 -100 q 731 -117 761 -117 q 676 -108 702 -117 q 637 -89 650 -100 q 585 -19 600 -57 q 568 61 570 20 q 569 140 565 102 q 576 209 572 178 q 530 124 552 167 q 476 50 507 81 q 375 -3 430 2 q 273 19 320 -7 q 194 97 226 46 q 163 209 163 148 q 163 219 163 215 q 164 240 163 224 q 166 285 165 256 q 169 371 167 315 q 174 514 170 428 q 183 728 178 600 q 183 748 187 733 m 489 1093 q 540 1107 515 1111 q 589 1067 565 1104 q 600 1050 593 1063 q 604 1033 607 1037 q 594 1031 600 1031 q 578 1020 589 1030 q 534 986 561 1007 q 479 949 507 965 q 423 930 450 933 q 378 950 396 926 q 363 973 365 967 q 369 983 361 980 l 372 983 q 376 985 374 985 l 383 985 q 404 1002 394 993 q 424 1024 413 1011 q 450 1054 435 1037 q 489 1093 465 1070 z "},"":{"ha":878,"x_min":-13,"x_max":857,"o":"m 417 1083 q 469 1106 439 1109 q 509 1083 493 1102 q 569 1020 552 1044 q 607 983 585 996 l 615 983 q 619 981 617 983 l 622 981 q 628 971 630 978 q 613 948 626 965 q 581 929 598 931 q 543 932 563 926 q 502 951 522 939 q 463 978 481 963 q 424 951 444 963 q 383 932 404 939 q 344 929 363 926 q 313 948 326 931 q 298 971 300 965 q 304 981 296 978 l 307 981 q 311 983 309 983 l 319 983 q 357 1020 341 996 q 417 1083 374 1044 m 183 748 q 156 747 172 759 q 123 714 139 735 q 95 669 107 693 q 81 633 83 644 q 78 632 81 631 q 70 633 74 633 q 11 669 35 641 q 4 744 -13 698 q 95 857 35 828 q 230 887 156 887 q 368 831 328 883 q 407 685 407 780 q 397 464 407 567 q 387 256 387 361 q 397 213 387 230 q 422 196 407 196 q 472 241 444 196 q 528 358 500 285 q 577 527 556 431 q 606 724 598 622 q 614 786 609 748 q 609 857 619 824 q 621 878 606 870 q 662 885 637 885 q 718 878 687 885 q 774 855 748 870 q 817 815 800 839 q 831 757 833 791 q 819 543 828 650 q 806 337 811 435 q 800 155 800 239 q 815 11 800 70 q 833 -34 822 -22 q 851 -50 844 -46 q 856 -57 857 -54 q 839 -80 856 -61 q 790 -108 819 -100 q 731 -117 761 -117 q 676 -108 702 -117 q 637 -89 650 -100 q 585 -19 600 -57 q 568 61 570 20 q 569 140 565 102 q 576 209 572 178 q 530 124 552 167 q 476 50 507 81 q 375 -3 430 2 q 273 19 320 -7 q 194 97 226 46 q 163 209 163 148 q 163 219 163 215 q 164 240 163 224 q 166 285 165 256 q 169 371 167 315 q 174 514 170 428 q 183 728 178 600 q 183 748 187 733 z "},"":{"ha":881,"x_min":-9,"x_max":861,"o":"m 187 748 q 159 747 176 759 q 127 714 143 735 q 99 669 111 693 q 85 633 87 644 q 81 632 85 631 q 74 633 78 633 q 15 669 39 641 q 7 744 -9 698 q 99 857 39 828 q 233 887 159 887 q 371 831 331 883 q 411 685 411 780 q 401 464 411 567 q 391 256 391 361 q 401 213 391 230 q 426 196 411 196 q 476 241 448 196 q 531 358 504 285 q 581 527 559 431 q 609 724 602 622 q 618 786 613 748 q 613 857 622 824 q 625 878 609 870 q 666 885 641 885 q 721 878 691 885 q 778 855 752 870 q 820 815 804 839 q 835 757 837 791 q 823 543 831 650 q 809 337 815 435 q 804 155 804 239 q 819 11 804 70 q 837 -34 826 -22 q 855 -50 848 -46 q 860 -57 861 -54 q 843 -80 859 -61 q 794 -108 822 -100 q 735 -117 765 -117 q 680 -108 706 -117 q 641 -89 654 -100 q 589 -19 604 -57 q 571 61 574 20 q 572 140 569 102 q 580 209 576 178 q 533 124 556 167 q 480 50 511 81 q 379 -3 433 2 q 277 19 324 -7 q 198 97 230 46 q 167 209 167 148 q 167 219 167 215 q 168 240 167 224 q 169 285 169 256 q 172 371 170 315 q 178 514 174 428 q 187 728 181 600 q 187 748 191 733 m 402 928 q 356 924 380 919 q 324 948 333 930 q 318 1006 306 976 q 361 1050 330 1035 q 402 1053 381 1059 q 435 1026 422 1046 q 442 969 456 996 q 402 928 428 943 m 561 937 q 515 929 537 922 q 483 956 493 935 q 479 1012 467 983 q 517 1056 491 1041 q 562 1057 541 1063 q 593 1031 583 1052 q 600 978 613 1006 q 561 937 587 950 z "},"":{"ha":915,"x_min":-2,"x_max":852,"o":"m 194 748 q 167 747 183 759 q 134 714 150 735 q 106 669 119 693 q 93 633 94 644 q 89 632 93 631 q 81 633 85 633 q 22 669 46 641 q 15 744 -2 698 q 106 857 46 828 q 241 887 167 887 q 379 831 339 883 q 419 685 419 780 q 408 464 419 567 q 398 256 398 361 q 408 213 398 230 q 433 196 419 196 q 483 241 456 196 q 537 358 511 285 q 582 527 563 431 q 606 724 602 622 q 610 786 607 748 q 604 857 613 824 q 632 882 598 876 q 711 878 667 889 q 793 837 756 867 q 830 757 830 807 q 826 597 830 685 q 818 414 822 509 q 809 223 813 319 q 803 44 806 128 q 802 -109 800 -41 q 811 -217 804 -178 q 827 -262 817 -250 q 844 -278 837 -274 q 851 -285 852 -281 q 831 -307 850 -289 q 781 -337 811 -328 q 721 -344 752 -346 q 663 -329 691 -343 q 619 -291 635 -315 q 584 -181 593 -252 q 578 -32 576 -109 q 586 111 580 44 q 594 209 593 178 q 524 95 563 146 q 431 19 485 44 q 400 0 424 4 q 344 -4 376 -4 q 326 -3 335 -4 q 307 0 317 -2 q 261 15 285 4 q 218 48 237 26 q 185 106 198 70 q 172 191 172 141 q 172 203 172 196 q 173 226 172 209 q 176 276 174 243 q 180 367 178 309 q 185 512 181 424 q 194 728 189 600 q 194 748 198 733 m 530 1100 q 581 1115 556 1119 q 630 1074 606 1111 q 641 1057 633 1070 q 644 1041 648 1044 q 635 1038 641 1039 q 619 1028 630 1037 q 575 994 602 1015 q 519 956 548 972 q 464 937 491 941 q 419 957 437 933 q 404 981 406 974 q 409 991 402 987 l 413 991 q 417 993 415 993 l 424 993 q 444 1009 435 1000 q 465 1031 454 1019 q 491 1061 476 1044 q 530 1100 506 1078 z "},"":{"ha":537,"x_min":-13,"x_max":561,"o":"m 294 109 q 233 23 269 56 q 133 0 198 -9 q 33 65 70 9 q -7 202 -4 120 q 14 387 -13 311 q 87 511 41 463 q 156 559 119 544 q 228 573 193 574 q 290 559 263 572 q 328 526 317 546 q 330 518 331 520 q 331 520 328 515 q 376 567 348 557 q 431 570 404 576 q 483 550 459 565 q 519 522 507 535 q 534 493 531 507 q 535 461 537 478 q 528 347 531 419 q 524 211 524 276 q 531 109 524 157 q 552 30 537 61 q 532 3 561 9 q 461 -4 504 -4 q 356 26 402 -4 q 294 109 309 56 m 263 200 q 280 225 274 202 q 287 280 285 248 q 289 344 289 311 q 287 398 289 378 q 274 424 285 420 q 250 411 263 428 q 227 327 231 378 q 231 241 222 276 q 263 200 241 194 m 224 748 q 289 680 270 706 q 330 641 307 654 l 337 641 q 341 639 339 641 l 344 639 q 350 629 352 635 q 335 606 348 622 q 290 585 317 581 q 234 605 263 589 q 179 642 206 620 q 135 676 152 663 q 119 686 124 685 q 109 689 113 687 q 113 706 106 693 q 124 722 120 719 q 173 763 148 759 q 224 748 198 767 z "},"":{"ha":539,"x_min":-13,"x_max":561,"o":"m 294 109 q 233 23 269 56 q 133 0 198 -9 q 33 65 70 9 q -7 202 -4 120 q 14 387 -13 311 q 87 511 41 463 q 156 559 119 544 q 228 573 193 574 q 290 559 263 572 q 328 526 317 546 q 330 518 331 520 q 331 520 328 515 q 376 567 348 557 q 431 570 404 576 q 483 550 459 565 q 519 522 507 535 q 534 493 531 507 q 535 461 537 478 q 528 347 531 419 q 524 211 524 276 q 531 109 524 157 q 552 30 537 61 q 532 3 561 9 q 461 -4 504 -4 q 356 26 402 -4 q 294 109 309 56 m 263 200 q 280 225 274 202 q 287 280 285 248 q 289 344 289 311 q 287 398 289 378 q 274 424 285 420 q 250 411 263 428 q 227 327 231 378 q 231 241 222 276 q 263 200 241 194 m 315 750 q 366 765 341 769 q 415 724 391 761 q 426 707 419 720 q 430 691 433 694 q 420 688 426 689 q 404 678 415 687 q 360 644 387 665 q 305 606 333 622 q 249 587 276 591 q 204 607 222 583 q 189 631 191 624 q 194 641 187 637 l 198 641 q 202 643 200 643 l 209 643 q 230 659 220 650 q 250 681 239 669 q 276 711 261 694 q 315 750 291 728 z "},"":{"ha":539,"x_min":-13,"x_max":561,"o":"m 294 109 q 233 23 269 56 q 133 0 198 -9 q 33 65 70 9 q -7 202 -4 120 q 14 387 -13 311 q 87 511 41 463 q 156 559 119 544 q 228 573 193 574 q 290 559 263 572 q 328 526 317 546 q 330 518 331 520 q 331 520 328 515 q 376 567 348 557 q 431 570 404 576 q 483 550 459 565 q 519 522 507 535 q 534 493 531 507 q 535 461 537 478 q 528 347 531 419 q 524 211 524 276 q 531 109 524 157 q 552 30 537 61 q 532 3 561 9 q 461 -4 504 -4 q 356 26 402 -4 q 294 109 309 56 m 263 200 q 280 225 274 202 q 287 280 285 248 q 289 344 289 311 q 287 398 289 378 q 274 424 285 420 q 250 411 263 428 q 227 327 231 378 q 231 241 222 276 q 263 200 241 194 m 320 587 q 262 594 285 587 q 218 605 239 600 q 174 608 196 609 q 119 594 152 607 l 109 589 q 106 588 106 589 q 104 587 106 587 l 100 583 q 82 592 85 583 q 78 626 80 600 q 105 693 78 669 q 194 706 131 717 q 248 692 228 700 q 290 681 269 683 q 338 685 311 678 q 411 715 365 693 q 424 700 419 719 q 430 672 430 681 q 402 602 431 617 q 320 587 372 587 z "},"":{"ha":574,"x_min":-13,"x_max":561,"o":"m 294 109 q 233 23 269 56 q 133 0 198 -9 q 33 65 70 9 q -7 202 -4 120 q 14 387 -13 311 q 87 511 41 463 q 156 559 119 544 q 228 573 193 574 q 290 559 263 572 q 328 526 317 546 q 330 518 331 520 q 331 520 328 515 q 376 567 348 557 q 431 570 404 576 q 483 550 459 565 q 519 522 507 535 q 534 493 531 507 q 535 461 537 478 q 528 347 531 419 q 524 211 524 276 q 531 109 524 157 q 552 30 537 61 q 532 3 561 9 q 461 -4 504 -4 q 356 26 402 -4 q 294 109 309 56 m 263 200 q 280 225 274 202 q 287 280 285 248 q 289 344 289 311 q 287 398 289 378 q 274 424 285 420 q 250 411 263 428 q 227 327 231 378 q 231 241 222 276 q 263 200 241 194 m 185 591 q 140 587 163 581 q 107 611 117 593 q 101 669 89 639 q 144 713 113 698 q 185 716 165 722 q 219 689 206 709 q 225 632 239 659 q 185 591 211 606 m 344 600 q 298 592 320 585 q 267 619 276 598 q 262 675 250 646 q 300 719 274 704 q 345 720 324 726 q 376 694 367 715 q 383 641 396 669 q 344 600 370 613 z "},"":{"ha":528,"x_min":11,"x_max":528,"o":"m 304 239 q 269 242 283 239 q 230 254 256 244 l 230 246 q 258 191 226 211 q 330 170 291 170 q 416 188 385 170 q 476 230 446 206 q 485 235 481 235 q 514 212 500 235 q 528 156 528 189 q 506 86 528 115 q 450 38 483 57 q 376 9 417 19 q 298 0 335 0 q 88 70 165 0 q 11 269 11 141 q 37 395 11 337 q 106 494 63 454 q 206 556 148 535 q 328 572 263 578 q 436 540 394 567 q 496 476 478 513 q 510 397 515 439 q 481 320 506 356 q 412 262 457 285 q 304 239 367 239 m 243 337 q 269 340 254 337 q 299 350 285 343 q 323 368 313 357 q 333 393 333 378 q 324 414 333 407 q 306 420 315 420 q 273 406 291 420 q 243 337 256 393 m 233 750 q 298 681 280 707 q 339 643 317 656 l 346 643 q 350 641 348 643 l 354 641 q 359 631 361 637 q 344 607 357 624 q 299 587 326 583 q 244 606 272 591 q 188 644 215 622 q 144 678 161 665 q 128 688 133 687 q 119 691 122 689 q 122 707 115 694 q 133 724 130 720 q 182 765 157 761 q 233 750 207 769 z "},"":{"ha":517,"x_min":6,"x_max":522,"o":"m 298 239 q 264 242 278 239 q 224 254 250 244 l 224 246 q 253 191 220 211 q 324 170 285 170 q 410 188 380 170 q 470 230 441 206 q 480 235 476 235 q 508 212 494 235 q 522 156 522 189 q 500 86 522 115 q 444 38 478 57 q 370 9 411 19 q 293 0 330 0 q 82 70 159 0 q 6 269 6 141 q 31 395 6 337 q 100 494 57 454 q 200 556 143 535 q 322 572 257 578 q 431 540 389 567 q 491 476 472 513 q 505 397 509 439 q 476 320 500 356 q 406 262 452 285 q 298 239 361 239 m 237 337 q 264 340 248 337 q 294 350 280 343 q 318 368 307 357 q 328 393 328 378 q 319 414 328 407 q 300 420 309 420 q 268 406 285 420 q 237 337 250 393 m 304 748 q 355 763 330 767 q 404 722 380 759 q 415 706 407 719 q 419 689 422 693 q 409 686 415 687 q 393 676 404 685 q 349 642 376 663 q 294 605 322 620 q 238 585 265 589 q 193 606 211 581 q 178 629 180 622 q 183 639 176 635 l 187 639 q 191 641 189 641 l 198 641 q 219 657 209 648 q 239 680 228 667 q 265 709 250 693 q 304 748 280 726 z "},"":{"ha":528,"x_min":11,"x_max":528,"o":"m 304 239 q 269 242 283 239 q 230 254 256 244 l 230 246 q 258 191 226 211 q 330 170 291 170 q 416 188 385 170 q 476 230 446 206 q 485 235 481 235 q 514 212 500 235 q 528 156 528 189 q 506 86 528 115 q 450 38 483 57 q 376 9 417 19 q 298 0 335 0 q 88 70 165 0 q 11 269 11 141 q 37 395 11 337 q 106 494 63 454 q 206 556 148 535 q 328 572 263 578 q 436 540 394 567 q 496 476 478 513 q 510 397 515 439 q 481 320 506 356 q 412 262 457 285 q 304 239 367 239 m 243 337 q 269 340 254 337 q 299 350 285 343 q 323 368 313 357 q 333 393 333 378 q 324 414 333 407 q 306 420 315 420 q 273 406 291 420 q 243 337 256 393 m 200 587 q 155 583 178 578 q 122 607 131 589 q 116 665 104 635 q 159 709 128 694 q 200 712 180 719 q 233 685 220 706 q 240 629 254 656 q 200 587 226 602 m 359 596 q 313 588 335 581 q 281 615 291 594 q 277 671 265 643 q 315 715 289 700 q 360 717 339 722 q 391 691 381 711 q 398 637 411 665 q 359 596 385 609 z "},"":{"ha":583,"x_min":33,"x_max":593,"o":"m 330 419 q 267 376 287 422 q 244 207 246 330 q 249 127 244 163 q 261 65 254 91 l 267 50 q 272 35 267 41 q 278 22 278 30 q 249 3 278 7 q 189 -2 220 -2 q 136 5 163 -2 q 86 31 109 11 q 48 87 63 52 q 33 181 33 122 q 36 329 33 259 q 43 467 39 398 q 46 535 46 507 q 67 567 46 563 q 185 554 146 578 q 250 476 224 530 q 316 537 276 511 q 413 563 356 563 q 456 559 430 563 q 506 542 481 556 q 550 502 531 528 q 569 431 569 476 l 569 420 l 565 254 q 565 121 563 183 q 587 39 567 59 q 593 24 593 28 q 565 4 593 9 q 500 -2 537 -2 q 436 8 463 -2 q 392 44 409 19 q 367 115 374 70 q 359 228 359 159 q 360 281 359 248 q 359 343 361 313 q 351 394 357 372 q 330 419 344 417 m 320 585 q 262 592 285 585 q 218 603 239 598 q 174 606 196 607 q 119 593 152 606 l 109 587 q 106 586 106 587 q 104 585 106 585 l 100 581 q 82 590 85 581 q 78 624 80 598 q 105 691 78 667 q 194 704 131 715 q 248 690 228 698 q 290 679 269 681 q 338 683 311 676 q 411 713 365 691 q 424 698 419 717 q 430 670 430 680 q 402 600 431 615 q 320 585 372 585 z "},"":{"ha":583,"x_min":35,"x_max":587,"o":"m 578 59 l 583 41 q 587 26 587 33 q 587 15 587 19 q 558 -8 585 -4 q 496 -13 531 -13 q 417 6 457 -13 q 350 85 376 24 q 291 27 330 54 q 202 -11 252 0 q 156 -5 180 -9 q 109 12 131 0 q 69 46 87 24 q 44 106 52 69 q 39 155 41 115 q 39 243 37 194 l 44 459 q 41 526 46 496 q 46 557 35 556 q 210 535 154 569 q 263 407 267 502 q 256 322 261 365 q 252 244 252 280 q 258 187 252 209 q 287 165 265 165 q 334 198 319 165 q 354 311 350 231 l 354 494 q 352 525 354 513 q 349 544 350 537 q 351 554 348 550 q 367 561 354 557 q 447 569 411 570 q 510 554 483 569 q 552 506 537 539 q 567 419 567 472 q 565 330 567 376 q 562 237 563 283 q 564 145 561 191 q 578 59 567 100 m 204 748 q 269 680 250 706 q 309 641 287 654 l 317 641 q 320 639 319 641 l 324 639 q 330 629 331 635 q 315 606 328 622 q 269 585 296 581 q 214 605 243 589 q 158 642 185 620 q 115 676 131 663 q 98 686 104 685 q 89 689 93 687 q 93 706 85 693 q 104 722 100 719 q 153 763 128 759 q 204 748 178 767 z "},"":{"ha":587,"x_min":31,"x_max":583,"o":"m 574 59 l 580 41 q 583 26 583 33 q 583 15 583 19 q 555 -8 581 -4 q 493 -13 528 -13 q 413 6 454 -13 q 346 85 372 24 q 287 27 326 54 q 198 -11 248 0 q 152 -5 176 -9 q 106 12 128 0 q 66 46 83 24 q 41 106 48 69 q 35 155 37 115 q 35 243 33 194 l 41 459 q 37 526 43 496 q 43 557 31 556 q 206 535 150 569 q 259 407 263 502 q 253 322 257 365 q 248 244 248 280 q 255 187 248 209 q 283 165 261 165 q 331 198 315 165 q 350 311 346 231 l 350 494 q 348 525 350 513 q 345 544 346 537 q 347 554 344 550 q 363 561 350 557 q 444 569 407 570 q 506 554 480 569 q 548 506 533 539 q 563 419 563 472 q 561 330 563 376 q 558 237 559 283 q 560 145 557 191 q 574 59 563 100 m 283 746 q 334 761 309 765 q 383 720 359 757 q 394 704 387 717 q 398 687 402 691 q 389 684 394 685 q 372 674 383 683 q 329 640 356 661 q 273 603 302 619 q 218 583 244 587 q 172 604 191 580 q 157 627 159 620 q 163 637 156 633 l 167 637 q 170 639 169 639 l 178 639 q 198 656 189 646 q 219 678 207 665 q 244 707 230 691 q 283 746 259 724 z "},"":{"ha":580,"x_min":35,"x_max":587,"o":"m 578 59 l 583 41 q 587 26 587 33 q 587 15 587 19 q 558 -8 585 -4 q 496 -13 531 -13 q 417 6 457 -13 q 350 85 376 24 q 291 27 330 54 q 202 -11 252 0 q 156 -5 180 -9 q 109 12 131 0 q 69 46 87 24 q 44 106 52 69 q 39 155 41 115 q 39 243 37 194 l 44 459 q 41 526 46 496 q 46 557 35 556 q 210 535 154 569 q 263 407 267 502 q 256 322 261 365 q 252 244 252 280 q 258 187 252 209 q 287 165 265 165 q 334 198 319 165 q 354 311 350 231 l 354 494 q 352 525 354 513 q 349 544 350 537 q 351 554 348 550 q 367 561 354 557 q 447 569 411 570 q 510 554 483 569 q 552 506 537 539 q 567 419 567 472 q 565 330 567 376 q 562 237 563 283 q 564 145 561 191 q 578 59 567 100 m 196 589 q 151 585 174 580 q 119 609 128 591 q 112 667 100 637 q 156 711 124 696 q 196 714 176 720 q 230 687 217 707 q 236 631 250 657 q 196 589 222 604 m 356 598 q 309 590 331 583 q 278 617 287 596 q 273 673 261 644 q 311 717 285 702 q 356 719 335 724 q 387 693 378 713 q 394 639 407 667 q 356 598 381 611 z "},"":{"ha":550,"x_min":-7,"x_max":546,"o":"m 304 37 q 245 6 278 17 q 178 -6 213 -6 q 113 5 144 -6 q 58 44 81 15 q 21 123 35 72 q 7 256 7 174 q 10 323 7 287 q 14 395 13 359 q 12 464 15 431 q 0 520 9 496 q 7 549 -7 535 q 49 570 22 563 q 107 577 76 578 q 168 560 139 576 q 216 514 196 544 q 235 431 235 483 q 231 326 235 385 q 230 220 226 267 q 243 181 231 194 q 267 165 254 167 q 293 174 280 163 q 311 207 306 185 q 324 321 326 261 q 320 474 322 381 q 311 537 319 522 q 319 556 304 552 q 445 571 398 576 q 517 530 493 567 q 539 460 533 504 q 544 370 544 417 q 545 277 544 330 q 545 168 546 224 q 542 55 544 111 q 533 -50 539 -2 q 516 -156 530 -115 q 481 -220 502 -196 q 432 -256 459 -244 q 376 -269 406 -267 q 306 -265 337 -272 q 257 -246 276 -257 q 233 -222 239 -235 q 239 -204 228 -209 q 280 -178 259 -191 q 307 -119 300 -165 q 317 48 322 -28 l 304 37 m 274 750 q 325 765 300 769 q 374 724 350 761 q 385 707 378 720 q 389 691 393 694 q 380 688 385 689 q 363 678 374 687 q 319 644 346 665 q 264 606 293 622 q 208 587 235 591 q 163 607 181 583 q 148 631 150 624 q 154 641 146 637 l 157 641 q 161 643 159 643 l 169 643 q 189 659 180 650 q 209 681 198 669 q 235 711 220 694 q 274 750 250 728 z "},"":{"ha":565,"x_min":17,"x_max":570,"o":"m 328 37 q 269 6 302 17 q 202 -6 237 -6 q 137 5 169 -6 q 82 44 106 15 q 45 123 59 72 q 31 256 31 174 q 34 323 31 287 q 38 395 37 359 q 36 464 39 431 q 24 520 33 496 q 31 549 17 535 q 73 570 46 563 q 131 577 100 578 q 192 560 163 576 q 240 514 220 544 q 259 431 259 483 q 255 326 259 385 q 254 220 250 267 q 267 181 256 194 q 291 165 278 167 q 317 174 304 163 q 335 207 330 185 q 348 321 350 261 q 344 474 346 381 q 335 537 343 522 q 343 556 328 552 q 469 571 422 576 q 541 530 517 567 q 563 460 557 504 q 569 370 569 417 q 569 277 569 330 q 569 168 570 224 q 566 55 569 111 q 557 -50 563 -2 q 540 -156 554 -115 q 505 -220 526 -196 q 456 -256 483 -244 q 400 -269 430 -267 q 331 -265 361 -272 q 281 -246 300 -257 q 257 -222 263 -235 q 263 -204 252 -209 q 304 -178 283 -191 q 331 -119 324 -165 q 341 48 346 -28 l 328 37 m 183 589 q 138 585 161 580 q 106 609 115 591 q 99 667 87 637 q 143 711 111 696 q 183 714 163 720 q 217 687 204 707 q 223 631 237 657 q 183 589 209 604 m 343 598 q 296 590 319 583 q 265 617 274 596 q 260 673 248 644 q 298 717 272 702 q 344 719 322 724 q 374 693 365 713 q 381 639 394 667 q 343 598 369 611 z "},"":{"ha":330,"x_min":15,"x_max":294,"o":"m 163 -272 q 82 -261 113 -276 q 37 -224 52 -246 q 19 -178 22 -202 q 19 -137 15 -154 q 37 -100 22 -113 q 67 -81 52 -87 q 92 -79 81 -76 q 96 -89 102 -81 q 93 -124 83 -111 q 119 -141 102 -137 q 152 -138 135 -144 q 172 -115 169 -131 q 173 -94 176 -100 q 167 -83 170 -89 l 159 -76 q 131 -18 131 -37 q 135 11 131 2 q 147 22 139 20 q 165 24 156 24 q 200 9 180 24 q 198 6 198 6 q 213 -41 198 -24 q 246 -74 228 -57 q 280 -112 265 -91 q 294 -174 294 -133 q 263 -237 294 -206 q 163 -272 231 -269 z "},"":{"ha":1498,"x_min":4,"x_max":1494,"o":"m 1198 454 q 1210 453 1200 454 q 1233 452 1220 452 q 1258 451 1246 452 q 1276 450 1270 450 q 1301 437 1291 450 q 1312 409 1311 424 q 1305 381 1313 394 q 1274 367 1296 369 q 1260 365 1270 367 q 1238 361 1250 363 q 1216 357 1226 359 q 1202 356 1206 356 q 1152 331 1176 348 q 1108 290 1128 313 q 1078 240 1089 267 q 1067 187 1067 213 q 1087 94 1067 130 q 1140 41 1107 57 q 1212 25 1172 24 q 1289 43 1252 26 q 1356 90 1326 59 q 1398 161 1385 120 q 1416 181 1402 176 q 1443 187 1430 187 q 1482 160 1472 189 q 1491 109 1493 131 q 1469 40 1487 76 q 1418 -28 1452 4 q 1330 -82 1383 -59 q 1204 -113 1276 -106 q 1035 -100 1113 -122 q 902 -33 957 -78 q 934 -104 915 -85 q 974 -123 954 -122 q 1013 -117 994 -124 q 1041 -109 1031 -109 q 1095 -131 1080 -109 q 1103 -181 1111 -154 q 1059 -230 1094 -207 q 963 -252 1024 -252 q 804 -196 863 -250 q 713 -64 744 -143 q 671 106 681 15 q 661 274 661 198 q 662 308 661 291 q 663 341 663 326 q 579 322 620 331 q 493 304 537 313 q 483 254 487 278 q 478 206 480 230 q 481 132 478 174 q 491 59 485 91 l 500 31 q 511 2 504 7 q 483 -19 509 -13 q 426 -24 457 -24 q 359 -12 389 -24 q 308 29 330 0 q 275 106 287 57 q 263 231 263 156 l 263 276 q 224 276 243 276 q 185 280 206 276 q 98 300 131 285 q 44 334 65 315 q 16 374 24 354 q 6 411 7 394 q 11 458 4 433 q 36 503 19 483 q 81 533 54 522 q 146 541 107 544 q 152 537 150 539 q 156 533 154 535 q 159 511 156 524 q 174 484 163 498 q 209 457 185 470 q 276 435 233 444 q 287 433 280 433 q 338 592 307 517 q 406 720 369 667 q 463 796 435 765 q 522 846 491 828 q 591 873 554 865 q 672 881 628 881 q 748 876 709 881 q 819 856 787 870 q 870 814 850 841 q 894 746 891 787 q 996 847 928 809 q 1165 889 1065 885 q 1285 879 1222 893 q 1396 831 1348 865 q 1469 746 1444 798 q 1478 626 1494 694 q 1435 569 1469 580 q 1369 572 1402 557 q 1361 574 1365 572 q 1357 578 1357 576 q 1359 647 1369 620 q 1329 689 1350 674 q 1276 706 1307 704 q 1211 704 1244 709 q 1135 656 1161 694 q 1107 574 1109 617 q 1129 495 1106 531 q 1198 454 1152 459 m 685 678 q 682 728 685 709 q 670 746 680 746 q 642 722 659 746 q 605 657 624 698 q 565 563 585 617 q 526 448 544 509 l 670 467 q 680 577 674 519 q 685 678 685 635 m 883 344 q 1015 420 928 389 q 948 460 983 428 q 891 541 913 493 q 887 453 889 498 q 883 344 885 407 z "},"":{"ha":670,"x_min":-31,"x_max":652,"o":"m 278 -113 q 130 -54 191 -102 q 32 64 69 -6 q -18 219 -4 133 q -23 394 -31 306 q 14 569 -15 483 q 91 721 43 654 q 204 833 139 789 q 350 885 269 878 q 481 873 428 893 q 567 818 533 854 q 616 734 600 781 q 631 637 631 687 q 599 493 630 541 q 520 435 569 444 q 478 436 502 431 q 434 456 454 441 q 406 495 415 470 q 407 559 396 520 q 463 549 437 541 q 502 580 489 557 q 517 639 520 613 q 498 684 513 665 q 459 714 483 704 q 413 724 435 724 q 335 686 372 724 q 267 594 298 648 q 225 499 241 550 q 202 404 209 448 q 196 249 191 324 q 228 122 202 174 q 303 54 252 74 q 409 40 354 33 q 515 80 465 46 q 587 174 565 113 q 605 202 594 198 q 624 194 615 206 q 640 162 633 183 q 648 113 646 141 q 628 26 652 70 q 556 -54 604 -19 q 437 -106 507 -89 q 278 -113 367 -124 m 289 -324 q 208 -313 239 -328 q 163 -276 178 -298 q 144 -230 148 -254 q 144 -189 141 -206 q 163 -152 148 -165 q 193 -133 178 -139 q 218 -131 207 -128 q 222 -141 228 -133 q 219 -176 209 -163 q 244 -193 228 -189 q 278 -190 261 -196 q 298 -167 294 -183 q 299 -146 302 -152 q 293 -135 296 -141 l 285 -128 q 257 -69 257 -89 q 261 -41 257 -50 q 273 -30 265 -31 q 291 -28 281 -28 q 326 -43 306 -28 q 324 -46 324 -46 q 339 -93 324 -76 q 372 -126 354 -109 q 406 -164 391 -143 q 420 -226 420 -185 q 389 -289 420 -257 q 289 -324 357 -320 z "},"":{"ha":939,"x_min":19,"x_max":898,"o":"m 437 306 l 419 306 l 419 296 q 433 148 419 204 l 439 133 l 439 130 q 441 128 439 128 q 444 118 441 124 q 450 107 448 111 q 420 83 448 91 q 361 76 393 76 q 270 100 315 76 q 206 193 226 124 q 195 263 196 230 q 196 331 194 296 q 148 328 170 331 q 106 315 126 324 l 96 307 q 91 304 94 307 l 85 300 q 68 310 70 300 q 63 354 65 320 q 102 443 63 406 q 207 481 141 480 l 224 709 l 200 698 q 172 664 185 687 q 150 617 159 641 q 135 571 141 593 q 130 539 130 550 q 126 537 130 537 q 119 537 122 537 q 50 564 81 535 q 24 641 19 593 q 65 744 30 698 q 153 819 100 789 q 270 867 206 850 q 402 883 335 883 q 598 852 507 883 q 756 761 689 820 q 860 619 822 702 q 898 433 898 535 q 860 227 898 326 q 752 51 822 128 q 583 -71 681 -26 q 363 -117 485 -117 q 239 -98 294 -117 q 143 -53 183 -80 q 77 3 102 -26 q 46 54 52 31 q 50 109 35 87 q 93 131 65 131 q 124 120 107 131 q 160 79 141 98 q 206 44 180 59 q 268 20 231 30 q 352 11 304 11 q 470 42 417 11 q 564 122 524 72 q 631 237 604 172 q 669 369 657 302 q 673 405 672 385 q 674 441 674 424 q 663 530 674 487 q 609 623 644 589 q 539 675 574 657 q 476 697 504 693 q 444 702 448 702 q 444 695 443 698 q 444 689 444 693 l 426 483 q 470 482 446 483 q 522 481 494 481 q 556 487 546 483 q 572 491 567 491 q 579 484 576 491 q 582 469 581 478 q 584 449 583 459 q 585 433 585 439 q 558 334 587 363 q 476 304 530 306 l 437 306 z "},"":{"ha":859,"x_min":-6,"x_max":846,"o":"m 478 570 q 406 381 441 491 q 372 156 372 272 q 374 116 372 137 q 379 75 376 94 q 386 40 381 56 q 398 17 391 24 l 402 11 q 375 -18 402 -11 q 311 -24 348 -24 q 256 -16 285 -24 q 204 14 228 -7 q 164 72 180 35 q 148 165 148 109 q 150 207 148 178 q 154 270 152 237 q 157 335 156 304 q 161 381 159 367 q 170 512 167 448 q 175 628 174 576 q 175 713 176 680 q 169 754 174 746 q 138 735 154 754 q 108 694 122 717 q 85 654 94 672 q 76 635 76 635 q 19 658 44 635 q -6 713 -6 681 q 8 771 -6 743 q 47 824 22 800 q 106 864 72 848 q 178 883 139 880 q 345 849 285 893 q 406 709 406 806 q 406 689 406 700 q 404 669 406 678 l 409 674 q 411 676 409 676 q 442 732 426 707 q 474 781 457 757 q 568 867 520 846 q 669 887 615 887 q 711 882 687 887 q 756 861 735 878 q 791 814 776 844 q 806 733 806 783 q 802 618 806 680 q 794 495 798 556 q 785 381 789 435 q 781 291 781 328 q 781 206 781 257 q 783 101 780 154 q 798 3 787 48 q 831 -63 809 -43 q 831 -92 846 -76 q 782 -115 815 -107 q 707 -116 750 -122 q 628 -80 665 -109 q 585 -20 600 -57 q 563 57 570 17 q 554 136 556 98 q 552 196 552 174 q 556 352 552 285 q 565 469 559 419 q 574 555 570 519 q 578 622 578 591 q 569 681 578 670 q 546 680 559 691 q 520 646 533 669 q 500 609 507 624 l 478 570 m 565 939 q 506 945 530 939 q 462 956 483 952 q 419 960 441 961 q 363 946 396 959 l 354 941 q 350 940 350 941 q 348 939 350 939 l 344 935 q 327 944 330 935 q 322 978 324 952 q 349 1044 322 1020 q 439 1057 376 1069 q 493 1044 472 1052 q 534 1032 513 1035 q 582 1037 556 1030 q 656 1067 609 1044 q 669 1052 663 1070 q 674 1024 674 1033 q 646 954 676 969 q 565 939 617 939 z "},"":{"ha":561,"x_min":-15,"x_max":559,"o":"m 291 583 q 224 606 254 583 q 185 665 194 630 q 206 748 174 711 q 291 785 237 785 q 350 762 322 785 q 389 706 378 739 l 389 707 q 368 621 398 659 q 291 583 337 583 m 287 631 q 309 645 300 631 q 315 680 319 659 q 304 697 311 689 q 285 706 296 706 q 261 694 270 706 q 256 661 252 681 q 287 631 257 631 m 293 109 q 231 23 267 56 q 131 0 196 -9 q 31 65 69 9 q -9 202 -6 120 q 12 387 -15 311 q 85 511 39 463 q 154 559 117 544 q 226 573 191 574 q 288 559 261 572 q 326 526 315 546 q 328 518 330 520 q 330 520 326 515 q 374 567 346 557 q 430 570 402 576 q 481 550 457 565 q 517 522 506 535 q 532 493 530 507 q 533 461 535 478 q 526 347 530 419 q 522 211 522 276 q 529 109 522 157 q 550 30 535 61 q 531 3 559 9 q 459 -4 502 -4 q 354 26 400 -4 q 293 109 307 56 m 259 200 q 276 225 270 202 q 284 280 281 248 q 287 344 287 311 q 285 398 287 378 q 272 424 283 420 q 248 411 261 428 q 225 327 230 378 q 228 241 220 276 q 259 200 237 194 z "},"":{"ha":844,"x_min":-11,"x_max":826,"o":"m 602 239 q 568 242 581 239 q 528 254 554 244 l 528 246 q 556 191 524 211 q 628 170 589 170 q 714 188 683 170 q 774 230 744 206 q 783 235 780 235 q 812 212 798 235 q 826 156 826 189 q 804 86 826 115 q 748 38 781 57 q 674 9 715 19 q 596 0 633 0 q 443 31 509 0 l 448 19 q 445 -7 457 -2 q 420 -13 433 -13 q 293 109 315 -13 q 234 28 267 56 q 131 0 202 0 q 74 17 100 0 q 31 61 48 33 q 2 125 13 89 q -9 202 -9 161 q 14 381 -11 298 q 85 511 39 463 q 154 559 117 544 q 226 573 191 574 q 288 559 261 572 q 326 526 315 546 q 328 518 330 520 q 330 520 326 515 q 366 572 346 557 q 403 589 385 587 q 436 581 420 591 q 463 559 452 572 q 469 541 469 550 q 626 570 537 576 q 734 538 693 565 q 794 474 776 511 q 808 396 813 437 q 780 320 804 356 q 710 262 756 285 q 602 239 665 239 m 237 202 q 259 223 248 202 q 279 275 270 244 q 294 337 287 306 q 302 391 300 369 q 295 419 306 413 q 270 411 285 426 q 230 334 244 383 q 215 250 215 285 q 237 202 215 202 m 541 337 q 568 340 552 337 q 597 350 583 343 q 621 368 611 357 q 631 393 631 378 q 622 414 631 407 q 604 420 613 420 q 571 406 589 420 q 541 337 554 393 z "},"":{"ha":522,"x_min":17,"x_max":535,"o":"m 337 326 q 369 379 363 352 q 354 415 374 406 q 265 391 306 433 q 221 287 224 348 q 251 194 219 226 q 343 163 283 161 q 424 186 396 167 q 481 230 452 206 q 491 235 487 235 q 519 212 506 235 q 533 156 533 189 q 511 86 533 115 q 456 38 489 57 q 381 9 422 19 q 304 0 341 0 q 94 70 170 0 q 17 269 17 141 q 40 395 17 337 q 105 494 63 454 q 206 556 146 535 q 337 570 265 576 q 430 545 389 567 q 494 492 470 524 q 527 421 519 459 q 524 346 535 383 q 499 305 517 324 q 458 273 481 285 q 406 258 435 261 q 350 269 378 256 q 320 296 320 281 q 337 326 320 311 m 209 -215 q 129 -204 159 -219 q 83 -167 98 -189 q 65 -120 69 -144 q 65 -80 61 -96 q 83 -43 69 -56 q 113 -24 98 -30 q 138 -21 128 -19 q 143 -31 148 -24 q 139 -67 130 -54 q 165 -83 148 -80 q 198 -81 181 -87 q 219 -57 215 -74 q 219 -37 222 -43 q 213 -26 217 -31 l 206 -19 q 178 40 178 20 q 181 69 178 59 q 194 80 185 78 q 211 81 202 81 q 246 67 226 81 q 244 63 244 63 q 259 17 244 33 q 293 -17 274 0 q 326 -55 311 -33 q 341 -117 341 -76 q 309 -180 341 -148 q 209 -215 278 -211 z "},"":{"ha":241,"x_min":-46,"x_max":231,"o":"m 178 4 q 165 0 174 0 q 146 0 156 0 l 137 0 q 37 34 69 2 q -4 112 6 67 q -9 210 -13 157 q -4 307 -6 263 q -2 483 2 433 q -6 548 -6 533 q 11 569 -6 563 q 156 565 100 589 q 215 474 213 541 q 209 338 217 417 q 202 191 202 259 q 205 123 202 154 q 215 72 207 93 l 220 52 l 220 54 l 228 31 q 219 13 231 19 q 180 4 206 7 l 178 4 m 72 752 q 137 683 119 709 q 178 644 156 657 l 185 644 q 189 643 187 644 l 193 643 q 198 632 200 639 q 183 609 196 626 q 138 589 165 585 q 82 608 111 593 q 27 645 54 624 q -17 680 0 667 q -33 690 -28 689 q -43 693 -39 691 q -39 709 -46 696 q -28 726 -31 722 q 21 767 -4 763 q 72 752 46 770 z "},"":{"ha":241,"x_min":-13,"x_max":244,"o":"m 178 4 q 165 0 174 0 q 146 0 156 0 l 137 0 q 37 34 69 2 q -4 112 6 67 q -9 210 -13 157 q -4 307 -6 263 q -2 483 2 433 q -6 548 -6 533 q 11 569 -6 563 q 156 565 100 589 q 215 474 211 541 q 210 336 219 413 q 202 191 202 259 q 205 123 202 154 q 215 72 207 93 l 220 52 l 220 54 l 228 31 q 219 13 231 19 q 180 4 206 7 l 178 4 m 126 748 q 177 763 152 767 q 226 722 202 759 q 237 706 230 719 q 241 689 244 693 q 231 686 237 687 q 215 676 226 685 q 171 642 198 663 q 116 605 144 620 q 60 585 87 589 q 15 606 33 581 q 0 629 2 622 q 6 639 -2 635 l 9 639 q 13 641 11 641 l 20 641 q 41 657 31 648 q 61 680 50 667 q 87 709 72 693 q 126 748 102 726 z "},"":{"ha":241,"x_min":-78,"x_max":256,"o":"m 178 4 q 165 0 174 0 q 146 0 156 0 l 137 0 q 37 34 69 2 q -4 112 6 67 q -9 210 -13 157 q -4 307 -6 263 q -2 483 2 433 q -6 548 -6 533 q 11 569 -6 563 q 156 565 100 589 q 215 474 213 541 q 209 336 217 413 q 202 191 202 259 q 205 123 202 154 q 215 72 207 93 l 220 52 l 220 54 l 228 31 q 219 13 231 19 q 180 4 206 7 l 178 4 m 43 741 q 94 763 65 767 q 135 741 119 759 q 194 678 178 702 q 233 641 211 654 l 241 641 q 244 639 243 641 l 248 639 q 254 629 256 635 q 239 606 252 622 q 206 586 224 589 q 169 590 189 583 q 128 608 148 596 q 89 635 107 620 q 50 608 70 620 q 9 590 30 596 q -30 586 -11 583 q -61 606 -48 589 q -76 629 -74 622 q -70 639 -78 635 l -67 639 q -63 641 -65 641 l -56 641 q -17 678 -33 654 q 43 741 0 702 z "},"":{"ha":241,"x_min":-65,"x_max":243,"o":"m 178 4 q 165 0 174 0 q 146 0 156 0 l 137 0 q 37 34 69 2 q -4 112 6 67 q -9 210 -13 157 q -4 307 -6 263 q -2 483 2 433 q -6 548 -6 533 q 11 569 -6 563 q 156 565 100 589 q 215 474 211 541 q 210 336 219 413 q 202 191 202 259 q 205 123 202 154 q 215 72 207 93 l 220 52 l 220 54 l 228 31 q 219 13 231 19 q 180 4 206 7 l 178 4 m 31 591 q -14 587 9 581 q -46 611 -37 593 q -53 669 -65 639 q -9 713 -41 698 q 31 716 11 722 q 65 689 52 709 q 71 632 85 659 q 31 591 57 606 m 191 600 q 144 592 167 585 q 113 619 122 598 q 108 675 96 646 q 146 719 120 704 q 192 720 170 726 q 222 694 213 715 q 230 641 243 669 q 191 600 217 613 z "},"":{"ha":841,"x_min":17,"x_max":859,"o":"m 298 578 q 411 548 365 574 q 486 483 457 522 q 528 397 515 444 q 544 304 541 350 q 531 181 548 239 q 477 78 513 122 q 389 7 441 33 q 274 -15 337 -19 q 119 40 176 -9 q 37 172 61 89 q 30 318 17 244 q 80 449 43 391 q 173 544 117 507 q 298 578 230 580 m 285 431 q 263 408 272 431 q 249 350 254 385 q 244 275 244 315 q 246 200 243 235 q 258 142 250 165 q 278 119 267 119 q 311 167 296 119 q 329 274 326 215 q 322 382 331 333 q 285 431 313 431 m 635 239 q 601 242 615 239 q 561 254 587 244 l 561 246 q 590 191 557 211 q 661 170 622 170 q 747 188 717 170 q 807 230 778 206 q 817 235 813 235 q 845 212 831 235 q 859 156 859 189 q 837 86 859 115 q 781 38 815 57 q 707 9 748 19 q 630 0 667 0 q 419 70 496 0 q 343 269 343 141 q 369 395 343 337 q 437 494 394 454 q 537 556 480 535 q 659 572 594 578 q 768 540 726 567 q 828 476 809 513 q 842 397 846 439 q 813 320 837 356 q 744 262 789 285 q 635 239 698 239 m 574 337 q 601 340 585 337 q 631 350 617 343 q 655 368 644 357 q 665 393 665 378 q 656 414 665 407 q 637 420 646 420 q 605 406 622 420 q 574 337 587 393 z "},"":{"ha":1306,"x_min":13,"x_max":1278,"o":"m 450 791 q 456 735 456 763 q 454 683 457 707 q 409 623 444 635 q 341 624 374 611 q 331 630 331 630 q 336 673 335 643 q 333 731 337 704 q 325 764 330 756 q 316 770 320 772 q 306 757 311 769 q 293 731 300 746 q 268 644 280 707 q 247 502 256 581 q 239 334 239 422 q 252 174 239 246 q 293 55 265 102 q 369 7 320 7 q 459 61 424 7 q 512 196 494 115 q 532 376 530 278 q 527 565 535 474 q 501 725 519 656 q 463 819 483 794 q 444 842 454 830 q 431 863 435 854 q 430 879 426 872 q 450 885 433 885 q 580 843 522 881 q 680 719 637 804 q 722 569 706 665 q 739 365 739 474 q 709 144 739 233 q 634 0 680 56 q 531 -81 589 -56 q 417 -113 474 -107 q 223 -87 300 -122 q 101 7 146 -52 q 37 141 56 67 q 17 281 19 215 q 27 481 13 374 q 79 679 41 589 q 181 825 117 769 q 341 876 244 881 q 411 858 383 872 q 450 791 439 844 m 985 454 q 997 453 987 454 q 1020 452 1007 452 q 1045 451 1033 452 q 1063 450 1057 450 q 1088 437 1078 450 q 1099 409 1098 424 q 1092 381 1100 394 q 1061 367 1083 369 q 1047 365 1057 367 q 1025 361 1037 363 q 1003 357 1013 359 q 989 356 993 356 q 895 299 937 341 q 848 204 854 257 q 864 115 843 150 q 920 63 885 80 q 1000 46 956 46 q 1084 63 1044 46 q 1153 114 1124 80 q 1189 198 1181 148 q 1205 216 1191 215 q 1234 205 1219 217 q 1262 167 1250 193 q 1274 104 1274 141 q 1256 35 1274 70 q 1205 -31 1239 0 q 1117 -83 1170 -61 q 991 -113 1063 -106 q 836 -103 907 -122 q 712 -42 765 -83 q 631 60 659 0 q 609 196 604 120 q 668 341 617 291 q 802 420 719 391 q 745 450 774 426 q 694 509 717 474 q 659 589 670 544 q 657 680 648 633 q 751 828 676 770 q 952 889 826 885 q 1071 879 1009 893 q 1181 832 1133 865 q 1253 749 1228 800 q 1265 626 1278 698 q 1222 569 1256 580 q 1156 572 1189 557 q 1148 574 1152 572 q 1144 578 1144 576 q 1144 648 1156 620 q 1107 691 1131 676 q 1054 708 1083 706 q 998 704 1024 711 q 922 652 948 691 q 895 571 896 613 q 917 494 894 530 q 985 454 939 459 z "},"":{"ha":565,"x_min":17,"x_max":541,"o":"m 391 328 q 307 337 352 330 q 219 350 263 344 q 135 355 176 356 q 59 337 94 354 l 50 330 q 44 326 48 330 l 39 322 q 21 332 24 322 q 17 376 19 343 q 56 465 17 428 q 161 504 94 502 q 173 505 167 504 q 208 506 180 506 q 299 507 237 507 q 476 504 361 507 q 510 509 500 506 q 526 513 520 513 q 532 506 530 513 q 536 491 535 500 q 538 471 537 481 q 539 456 539 461 q 512 356 541 385 q 430 326 483 328 l 391 328 z "},"":{"ha":557,"x_min":17,"x_max":541,"o":"m 391 294 q 307 304 352 296 q 219 317 263 311 q 135 321 176 322 q 59 304 94 320 l 50 296 q 44 293 48 296 l 39 289 q 21 299 24 289 q 17 343 19 309 q 56 431 17 394 q 161 470 94 469 q 173 471 167 470 q 208 473 180 472 q 299 474 237 474 q 476 470 361 474 q 510 476 500 472 q 526 480 520 480 q 532 473 530 480 q 536 457 535 467 q 538 438 537 448 q 539 422 539 428 q 512 323 541 352 q 430 293 483 294 l 391 294 m 298 524 q 246 535 270 520 q 215 570 222 550 q 224 633 202 607 q 285 665 246 659 q 339 653 317 667 q 369 619 361 639 q 361 556 383 585 q 298 524 339 528 m 285 111 q 233 122 257 107 q 202 157 209 137 q 211 220 189 194 q 272 252 233 246 q 326 240 304 254 q 356 206 348 226 q 348 144 370 172 q 285 111 326 115 z "},"(":{"ha":735,"x_min":196,"x_max":669,"o":"m 585 1046 q 623 1045 602 1052 q 656 1026 644 1039 q 659 997 667 1013 q 613 967 652 981 q 550 905 580 956 q 496 777 520 854 q 456 606 472 700 q 436 411 441 511 q 438 212 431 311 q 466 30 444 113 q 524 -116 487 -54 q 617 -204 561 -178 q 652 -232 637 -213 q 668 -269 667 -252 q 654 -296 669 -285 q 600 -300 639 -307 q 413 -218 491 -281 q 287 -60 335 -154 q 218 147 239 33 q 201 380 196 261 q 234 611 206 498 q 312 816 263 724 q 431 969 361 907 q 585 1046 500 1031 z "},")":{"ha":744,"x_min":89,"x_max":574,"o":"m 206 1046 q 358 969 291 1031 q 472 816 426 907 q 544 611 519 724 q 572 380 570 498 q 550 147 574 261 q 475 -60 526 33 q 345 -218 424 -154 q 156 -300 267 -281 q 103 -296 117 -307 q 91 -269 89 -285 q 107 -232 93 -252 q 143 -204 122 -213 q 237 -116 198 -178 q 299 30 276 -54 q 331 212 322 113 q 338 411 341 311 q 322 606 335 511 q 287 777 309 700 q 236 905 265 854 q 174 967 207 956 q 129 997 135 981 q 133 1026 122 1013 q 166 1045 144 1039 q 206 1046 187 1052 z "},"":{"ha":767,"x_min":13,"x_max":739,"o":"m 324 730 q 325 843 326 793 q 330 929 324 893 q 350 985 335 965 q 396 1007 365 1006 q 417 1008 404 1007 q 442 1007 430 1009 q 462 1001 454 1006 q 470 989 470 996 q 469 911 470 970 q 465 768 469 852 q 457 581 461 683 q 451 376 454 480 q 445 173 448 272 q 442 -3 443 74 q 442 -128 441 -80 q 448 -180 443 -176 q 443 -203 463 -191 q 390 -218 422 -215 q 329 -209 357 -220 q 298 -165 300 -198 q 298 24 294 -81 q 307 246 302 130 q 319 487 313 363 q 324 730 324 611 m 450 791 q 456 735 456 763 q 454 683 457 707 q 409 623 444 635 q 341 624 374 611 q 331 630 331 630 q 336 673 335 643 q 333 731 337 704 q 325 764 330 756 q 316 770 320 772 q 306 757 311 769 q 293 731 300 746 q 268 644 280 707 q 247 502 256 581 q 239 334 239 422 q 252 174 239 246 q 293 55 265 102 q 369 7 320 7 q 459 61 424 7 q 512 196 494 115 q 532 376 530 278 q 527 565 535 474 q 501 725 519 656 q 463 819 483 794 q 444 842 454 830 q 431 863 435 854 q 430 879 426 872 q 450 885 433 885 q 580 843 522 881 q 680 719 637 804 q 722 569 706 665 q 739 365 739 474 q 709 144 739 233 q 634 0 680 56 q 531 -81 589 -56 q 417 -113 474 -107 q 223 -87 300 -122 q 101 7 146 -52 q 37 141 56 67 q 17 281 19 215 q 27 481 13 374 q 79 679 41 589 q 181 825 117 769 q 341 876 244 881 q 411 858 383 872 q 450 791 439 844 z "},"":{"ha":530,"x_min":-19,"x_max":507,"o":"m 265 813 q 285 814 272 813 q 310 813 298 815 q 331 806 322 811 q 341 794 341 802 q 341 709 341 772 q 339 557 341 646 q 416 515 385 543 q 466 452 446 487 q 494 376 485 417 q 504 296 502 335 q 462 114 507 196 q 333 -4 417 31 q 336 -127 333 -78 q 344 -180 339 -176 q 339 -203 359 -191 q 287 -218 319 -215 q 226 -209 256 -220 q 194 -165 196 -198 q 191 -90 191 -126 q 191 -19 191 -54 q 61 42 107 -6 q -2 165 15 89 q -9 290 -19 226 q 28 409 0 354 q 99 506 56 465 q 198 561 143 546 q 197 664 198 619 q 201 743 196 709 q 220 794 206 776 q 265 813 235 811 m 198 380 q 173 327 181 357 q 165 264 165 296 q 171 200 165 231 q 193 146 178 169 l 198 380 m 333 180 q 352 233 344 204 q 360 292 359 263 q 356 345 361 320 q 335 389 350 370 q 333 283 333 335 q 333 180 333 231 z "},"":{"ha":706,"x_min":130,"x_max":507,"o":"m 309 856 q 296 814 302 835 q 289 770 291 793 q 293 724 287 748 q 313 676 298 700 l 311 674 l 311 672 q 278 646 309 663 q 206 633 246 630 q 144 681 157 639 q 135 774 130 724 q 187 863 143 833 q 291 887 231 893 q 311 878 307 883 q 309 856 315 872 m 502 856 q 489 814 494 835 q 481 770 483 793 q 485 724 480 748 q 506 676 491 700 l 504 674 l 504 672 q 470 646 502 663 q 398 633 439 630 q 336 681 350 639 q 328 774 322 724 q 380 863 335 833 q 483 887 424 893 q 504 878 500 883 q 502 856 507 872 z "},"":{"ha":226,"x_min":20,"x_max":206,"o":"m 200 856 q 187 814 193 835 q 180 770 181 793 q 183 724 178 748 q 204 676 189 700 l 202 674 l 202 672 q 169 646 200 663 q 96 633 137 630 q 34 681 48 639 q 26 774 20 724 q 78 863 33 833 q 181 887 122 893 q 202 878 198 883 q 200 856 206 872 z "},"'":{"ha":559,"x_min":170,"x_max":356,"o":"m 176 856 q 174 878 170 872 q 194 887 178 883 q 298 863 254 893 q 350 774 343 833 q 342 681 356 724 q 280 633 328 639 q 207 646 239 630 q 174 672 176 663 l 174 674 l 172 676 q 193 724 187 700 q 196 770 198 748 q 189 814 194 793 q 176 856 183 835 z "},"@":{"ha":1183,"x_min":2,"x_max":1167,"o":"m 481 0 q 422 18 448 0 q 379 64 396 35 q 351 131 361 93 q 341 211 341 169 q 357 356 341 289 q 405 470 374 422 q 478 545 435 519 q 570 572 520 572 q 612 565 593 572 q 646 548 631 557 q 669 530 661 539 q 678 519 678 520 l 680 520 q 714 561 694 550 q 756 572 733 572 q 811 562 787 572 q 851 536 835 552 q 875 504 867 520 q 883 474 883 487 q 875 379 883 426 q 867 261 867 331 q 871 144 867 178 q 904 109 876 109 q 948 135 928 109 q 981 201 969 161 q 1002 287 994 241 q 1009 372 1009 333 q 979 540 1009 472 q 900 648 948 607 q 792 706 852 689 q 674 722 731 722 q 517 694 593 722 q 381 606 441 665 q 284 461 320 548 q 248 256 248 374 q 283 80 248 152 q 376 -40 319 7 q 508 -108 433 -87 q 661 -130 583 -130 q 776 -118 713 -130 q 895 -85 839 -106 q 996 -37 952 -65 q 1057 24 1041 -9 q 1089 52 1070 52 q 1115 35 1104 52 q 1126 -7 1126 19 q 1109 -65 1126 -37 q 1028 -156 1078 -119 q 915 -219 978 -194 q 778 -256 852 -244 q 624 -267 704 -267 q 352 -220 469 -267 q 157 -95 235 -174 q 41 85 80 -17 q 2 298 2 187 q 49 540 2 428 q 181 734 96 652 q 380 864 265 817 q 628 911 494 911 q 822 880 726 911 q 995 784 919 848 q 1119 626 1072 720 q 1167 407 1167 531 q 1143 240 1167 317 q 1077 107 1119 163 q 979 21 1035 52 q 856 -9 922 -9 q 731 13 791 -9 q 628 91 670 35 q 572 25 606 50 q 481 0 539 0 m 587 202 q 609 225 598 202 q 630 281 620 248 q 645 345 639 313 q 652 398 652 378 q 639 420 652 420 q 610 400 624 420 q 586 352 596 380 q 570 295 576 324 q 565 250 565 267 q 587 202 565 202 z "},"":{"ha":1100,"x_min":165,"x_max":917,"o":"m 530 387 q 369 413 437 387 q 255 481 300 439 q 187 575 209 522 q 165 683 165 628 q 187 800 165 744 q 256 899 209 856 q 371 969 302 943 q 533 996 441 994 q 681 980 611 998 q 805 922 752 961 q 887 825 857 883 q 911 687 917 767 q 875 559 906 615 q 794 466 844 504 q 675 407 743 428 q 530 387 607 387 m 781 700 q 757 786 781 750 q 697 844 733 822 q 619 873 661 865 q 541 876 576 881 q 447 848 485 869 q 387 799 409 828 q 356 737 365 770 q 346 670 346 704 q 357 613 346 646 q 391 548 369 580 q 447 494 413 517 q 530 469 481 470 q 653 485 604 465 q 731 538 702 506 q 770 611 759 570 q 781 693 781 652 l 781 700 m 463 772 q 464 798 461 791 q 470 809 467 806 q 512 824 485 819 q 554 831 539 830 q 669 819 624 837 q 722 759 713 800 q 722 711 728 735 q 703 668 717 687 q 669 634 689 648 q 628 617 648 620 q 663 573 643 594 q 709 552 683 552 q 699 522 711 537 q 666 503 687 507 q 618 508 644 498 q 565 557 591 519 l 559 567 l 559 550 q 544 513 559 533 q 487 491 530 493 q 468 493 480 491 q 452 498 456 494 l 450 500 q 455 505 452 500 q 460 532 457 509 q 465 601 463 556 q 465 726 467 646 l 463 772 m 567 667 q 578 667 570 665 q 622 696 604 669 q 631 757 641 724 q 607 778 626 772 q 569 776 589 783 q 565 741 565 761 q 567 667 565 720 z "},"":{"ha":1109,"x_min":165,"x_max":917,"o":"m 594 687 q 613 717 609 702 q 604 737 617 731 q 580 741 598 741 q 546 717 559 741 q 532 664 533 693 q 546 612 531 635 q 598 591 561 589 q 645 604 630 593 q 678 630 661 615 q 681 633 681 633 l 683 633 q 701 619 693 633 q 709 585 709 606 q 696 546 709 563 q 664 519 683 530 q 621 502 644 507 q 576 496 598 496 q 454 537 498 496 q 409 652 409 578 q 422 725 409 691 q 460 783 435 759 q 519 819 485 807 q 594 828 552 831 q 686 781 656 822 q 704 698 717 741 q 665 655 694 672 q 602 652 635 637 q 594 687 572 665 m 530 387 q 369 413 437 387 q 255 481 300 439 q 187 575 209 522 q 165 683 165 628 q 187 800 165 744 q 256 899 209 856 q 371 969 302 943 q 533 996 441 994 q 681 980 611 998 q 805 922 752 961 q 887 825 857 883 q 911 687 917 767 q 875 559 906 615 q 794 466 844 504 q 675 407 743 428 q 530 387 607 387 m 781 700 q 757 786 781 750 q 697 844 733 822 q 619 873 661 865 q 541 876 576 881 q 447 848 485 869 q 387 799 409 828 q 356 737 365 770 q 346 670 346 704 q 357 613 346 646 q 391 548 369 580 q 447 494 413 517 q 530 469 481 470 q 653 485 604 465 q 731 538 702 506 q 770 611 759 570 q 781 693 781 652 l 781 700 z "},"":{"ha":1846,"x_min":78,"x_max":1770,"o":"m 1530 491 q 1667 453 1613 491 q 1745 357 1720 415 q 1769 233 1770 300 q 1740 108 1767 167 q 1661 10 1713 50 q 1535 -31 1609 -30 q 1442 -18 1483 -33 q 1369 25 1400 -2 q 1319 89 1339 52 q 1291 167 1300 126 q 1216 31 1272 89 q 1067 -31 1159 -28 q 930 5 985 -33 q 846 100 874 43 q 817 226 819 157 q 842 354 815 294 q 923 452 869 413 q 1061 491 978 491 q 1220 436 1163 491 q 1293 304 1278 381 q 1371 436 1313 381 q 1530 491 1430 491 m 719 102 q 703 -12 709 35 q 680 -89 696 -59 q 631 -132 663 -119 q 543 -146 600 -146 q 502 -130 502 -146 q 517 -25 504 -107 q 547 171 530 57 q 584 416 565 285 q 621 665 604 546 q 650 873 639 783 q 661 998 661 963 q 657 1014 661 1013 q 654 1020 654 1015 q 681 1041 654 1031 q 741 1050 709 1050 q 776 1044 757 1050 q 810 1031 794 1039 q 837 1009 826 1022 q 848 983 848 996 l 848 978 q 827 793 843 896 q 792 574 811 689 q 753 338 772 459 q 719 102 733 217 m 324 950 q 461 912 407 950 q 540 817 515 874 q 563 693 565 759 q 534 568 561 626 q 456 469 507 509 q 330 428 404 430 q 193 464 248 426 q 109 559 137 502 q 80 685 81 617 q 105 813 78 754 q 186 911 131 872 q 324 950 241 950 m 1533 359 q 1520 344 1526 359 q 1510 304 1515 328 q 1503 250 1506 280 q 1500 193 1500 220 q 1509 114 1500 139 q 1531 89 1519 89 q 1545 105 1539 89 q 1556 144 1552 120 q 1564 196 1561 167 q 1567 254 1567 226 q 1556 335 1567 309 l 1556 333 q 1533 359 1550 359 m 328 819 q 315 803 320 819 q 305 763 309 787 q 297 709 300 739 q 294 652 294 680 q 304 573 294 598 q 326 548 313 548 q 340 564 333 548 q 351 603 346 580 q 358 656 356 626 q 361 713 361 685 q 350 794 361 769 l 350 793 q 328 819 344 819 m 1065 359 q 1052 344 1057 359 q 1042 304 1046 328 q 1034 250 1037 280 q 1031 193 1031 220 q 1041 114 1031 139 q 1063 89 1050 89 q 1077 105 1070 89 q 1088 144 1083 120 q 1095 196 1093 167 q 1098 254 1098 226 q 1087 335 1098 309 l 1087 333 q 1065 359 1081 359 z "},"":{"ha":365,"x_min":-93,"x_max":431,"o":"m 281 535 q 260 536 270 535 q 239 539 250 537 q 238 251 239 394 q 239 -8 237 107 q 244 -198 241 -124 q 252 -276 246 -272 q 247 -299 269 -287 q 194 -314 226 -311 q 133 -306 163 -317 q 102 -261 104 -294 q 97 -109 98 -202 q 97 94 96 -17 q 100 324 98 204 q 102 559 102 444 q 21 561 59 563 q -50 544 -17 559 l -59 537 q -65 533 -61 537 l -70 530 q -88 540 -85 530 q -93 583 -91 550 q -54 672 -93 635 q 52 711 -15 709 q 65 712 56 711 q 104 715 74 713 q 103 808 104 763 q 102 893 102 854 q 98 1002 102 956 q 97 1081 94 1048 q 115 1137 100 1115 q 167 1170 130 1159 q 187 1173 174 1172 q 212 1172 200 1174 q 232 1165 224 1170 q 241 1152 241 1159 q 241 1100 241 1139 q 241 1004 241 1061 q 240 872 241 946 q 239 715 239 798 l 367 711 q 401 717 391 713 q 417 720 411 720 q 423 714 420 720 q 427 698 426 707 q 429 679 428 689 q 430 663 430 669 q 403 564 431 593 q 320 533 374 535 l 281 535 z "},"":{"ha":365,"x_min":-91,"x_max":444,"o":"m 294 619 q 239 624 267 619 q 237 333 237 480 q 239 59 237 187 l 369 56 q 403 61 393 57 q 419 65 413 65 q 425 58 422 65 q 429 43 428 52 q 431 23 430 33 q 431 7 431 13 q 405 -92 433 -63 q 322 -122 376 -120 l 283 -120 l 241 -117 q 245 -230 243 -187 q 252 -276 248 -272 q 247 -299 269 -287 q 194 -314 226 -311 q 133 -306 163 -317 q 102 -261 104 -294 q 96 -94 96 -198 q 20 -94 57 -91 q -48 -111 -17 -96 l -57 -119 q -63 -122 -59 -119 l -69 -126 q -86 -116 -83 -126 q -91 -72 -89 -106 q -52 17 -91 -20 q 54 56 -13 54 q 64 56 57 56 q 96 59 70 57 q 99 349 96 196 q 104 643 102 502 q 30 644 65 646 q -37 628 -6 643 l -46 620 q -52 617 -48 620 l -57 613 q -75 623 -72 613 q -80 667 -78 633 q -41 756 -80 719 q 65 794 -2 793 q 74 795 69 794 q 104 798 80 796 q 103 847 104 824 q 102 893 102 870 q 98 1002 102 956 q 97 1081 94 1048 q 115 1137 100 1115 q 167 1170 130 1159 q 187 1173 174 1172 q 212 1172 200 1174 q 232 1165 224 1170 q 241 1152 241 1159 q 242 1032 243 1130 q 241 798 241 935 l 380 794 q 414 800 404 796 q 430 804 424 804 q 436 797 433 804 q 440 781 439 791 q 442 762 441 772 q 443 746 443 752 q 416 647 444 676 q 333 617 387 619 l 294 619 z "},"\"":{"ha":565,"x_min":109,"x_max":487,"o":"m 307 856 q 306 878 302 872 q 326 887 309 883 q 430 863 385 893 q 481 774 474 833 q 473 681 487 724 q 411 633 459 639 q 339 646 370 630 q 306 672 307 663 l 306 674 l 304 676 q 324 724 319 700 q 328 770 330 748 q 320 814 326 793 q 307 856 315 835 m 115 856 q 113 878 109 872 q 133 887 117 883 q 237 863 193 893 q 289 774 281 833 q 281 681 294 724 q 219 633 267 639 q 146 646 178 630 q 113 672 115 663 l 113 674 l 111 676 q 131 724 126 700 q 135 770 137 748 q 128 814 133 793 q 115 856 122 835 z "},"":{"ha":785,"x_min":117,"x_max":691,"o":"m 472 572 q 508 638 502 604 q 489 685 515 672 q 443 693 474 696 q 381 662 407 689 q 341 596 356 635 q 325 513 326 557 q 337 431 324 469 q 380 367 350 393 q 457 341 409 341 q 522 351 496 341 q 568 377 548 361 q 602 411 587 393 q 631 444 617 430 q 643 452 637 452 q 675 423 659 452 q 691 348 691 394 q 676 277 691 309 q 636 221 661 244 q 579 181 611 198 q 513 157 546 165 q 519 111 515 131 q 513 56 522 91 q 474 5 504 17 q 415 -3 444 -7 q 368 16 385 2 q 365 41 350 30 q 371 66 369 44 q 372 152 374 87 q 183 260 250 172 q 117 496 117 348 q 182 746 117 643 q 363 878 248 850 q 360 926 361 906 q 363 983 359 946 q 380 1025 365 1009 q 416 1048 394 1041 q 459 1055 437 1056 q 497 1049 481 1054 q 520 1037 513 1044 q 517 1022 528 1030 q 508 975 511 1019 q 506 881 506 931 q 594 841 556 870 q 654 771 631 811 q 683 686 676 731 q 680 596 691 641 q 651 543 670 569 q 606 501 631 517 q 548 482 580 485 q 485 496 517 480 q 453 531 454 511 q 472 572 452 552 z "},"[":{"ha":598,"x_min":24,"x_max":578,"o":"m 469 -137 q 550 -163 522 -139 q 578 -243 578 -187 q 576 -271 578 -254 q 565 -289 574 -289 q 549 -286 559 -289 q 515 -281 539 -283 q 380 -285 433 -285 q 293 -285 326 -285 q 241 -285 257 -285 q 215 -283 224 -285 q 195 -285 206 -285 q 174 -285 185 -285 q 96 -259 126 -285 q 51 -186 67 -233 q 30 -73 35 -139 q 24 74 24 -7 l 24 91 q 24 102 24 96 q 25 128 24 107 q 28 192 26 148 q 32 317 30 235 q 42 526 35 398 q 56 843 48 654 q 54 886 56 869 q 52 930 52 904 l 52 933 q 49 957 50 948 q 48 974 48 967 q 69 999 48 987 q 123 1019 89 1011 q 203 1032 157 1028 q 298 1037 248 1037 q 384 1035 331 1037 q 515 1033 437 1033 q 547 1037 537 1033 q 563 1041 557 1041 q 576 1018 574 1041 q 578 989 578 994 q 549 913 578 935 q 469 889 520 891 l 428 891 q 338 900 385 893 q 243 911 291 907 q 255 876 250 893 q 262 836 259 859 q 266 778 265 813 q 269 687 267 743 q 257 506 263 602 q 248 316 252 409 q 242 139 244 222 q 239 -6 239 56 q 241 -94 239 -54 q 246 -159 243 -133 q 339 -151 293 -159 q 428 -139 385 -143 l 469 -137 z "},"]":{"ha":594,"x_min":19,"x_max":572,"o":"m 169 -139 q 257 -151 211 -143 q 350 -159 304 -159 q 356 -94 354 -133 q 357 -6 357 -54 q 355 139 357 56 q 348 316 352 222 q 339 506 344 409 q 328 687 333 602 q 331 778 330 743 q 334 836 331 813 q 342 876 337 859 q 354 911 346 893 q 258 900 306 907 q 169 891 211 893 l 128 889 q 47 913 76 891 q 19 989 19 935 q 20 1018 19 994 q 33 1041 22 1041 q 49 1037 39 1041 q 81 1033 59 1033 q 212 1035 159 1033 q 298 1037 265 1037 q 394 1032 348 1037 q 473 1019 439 1028 q 528 999 507 1011 q 548 974 548 987 q 547 957 548 967 q 544 933 546 948 l 544 930 q 543 886 544 904 q 541 843 541 869 q 555 526 548 654 q 564 317 561 398 q 569 192 567 235 q 571 128 570 148 q 572 102 572 107 q 572 91 572 96 l 572 74 q 567 -73 572 -7 q 545 -186 561 -139 q 500 -259 530 -233 q 422 -285 470 -285 q 401 -285 411 -285 q 381 -283 391 -285 q 356 -285 372 -285 q 304 -285 339 -285 q 217 -285 270 -285 q 81 -281 163 -285 q 47 -286 57 -283 q 31 -289 37 -289 q 20 -271 22 -289 q 19 -243 19 -254 q 46 -163 19 -187 q 128 -137 74 -139 l 169 -139 z "},"":{"ha":530,"x_min":17,"x_max":548,"o":"m 298 578 q 411 548 365 574 q 486 483 457 522 q 528 397 515 444 q 544 304 541 350 q 531 181 548 239 q 477 78 513 122 q 389 7 441 33 q 274 -15 337 -19 q 119 40 176 -9 q 37 172 61 89 q 30 318 17 244 q 80 449 43 391 q 173 544 117 507 q 298 578 230 580 m 285 431 q 263 408 272 431 q 249 350 254 385 q 244 275 244 315 q 246 200 243 235 q 258 142 250 165 q 278 119 267 119 q 311 167 296 119 q 329 274 326 215 q 322 382 331 333 q 285 431 313 431 m 217 746 q 281 678 263 704 q 322 639 300 652 l 330 639 q 333 637 331 639 l 337 637 q 343 627 344 633 q 328 604 341 620 q 282 583 309 580 q 227 603 256 587 q 171 640 198 619 q 128 674 144 661 q 111 684 117 683 q 102 687 106 685 q 106 704 98 691 q 117 720 113 717 q 166 761 141 757 q 217 746 191 765 z "},"":{"ha":530,"x_min":17,"x_max":548,"o":"m 298 578 q 411 548 365 574 q 486 483 457 522 q 528 397 515 444 q 544 304 541 350 q 531 181 548 239 q 477 78 513 122 q 389 7 441 33 q 274 -15 337 -19 q 119 40 176 -9 q 37 172 61 89 q 30 318 17 244 q 80 449 43 391 q 173 544 117 507 q 298 578 230 580 m 285 431 q 263 408 272 431 q 249 350 254 385 q 244 275 244 315 q 246 200 243 235 q 258 142 250 165 q 278 119 267 119 q 311 167 296 119 q 329 274 326 215 q 322 382 331 333 q 285 431 313 431 m 317 748 q 368 763 343 767 q 417 722 393 759 q 428 706 420 719 q 431 689 435 693 q 422 686 428 687 q 406 676 417 685 q 362 642 389 663 q 306 605 335 620 q 251 585 278 589 q 206 606 224 581 q 191 629 193 622 q 196 639 189 635 l 200 639 q 204 641 202 641 l 211 641 q 231 657 222 648 q 252 680 241 667 q 278 709 263 693 q 317 748 293 726 z "},"":{"ha":530,"x_min":-22,"x_max":509,"o":"m 311 809 q 370 746 354 770 q 409 709 387 722 l 417 709 q 420 707 419 709 l 424 707 q 430 697 431 704 q 415 674 428 691 q 383 655 402 657 q 344 658 365 652 q 304 678 324 665 q 265 704 283 691 q 226 678 246 691 q 185 658 206 665 q 147 655 165 652 q 115 674 130 657 q 100 697 102 691 q 106 707 98 704 l 109 707 q 113 709 111 709 l 120 709 q 159 746 143 722 q 219 809 176 770 q 259 831 235 828 q 311 809 289 835 m 259 570 q 372 541 326 567 q 447 476 419 515 q 489 390 476 437 q 506 296 502 343 q 492 173 509 231 q 438 70 474 115 q 350 0 402 26 q 235 -22 298 -26 q 80 32 137 -17 q -2 165 22 81 q -9 310 -22 237 q 41 442 4 383 q 134 536 78 500 q 259 570 191 572 m 246 424 q 224 401 233 424 q 210 343 215 378 q 205 268 206 307 q 207 193 204 228 q 219 134 211 157 q 239 111 228 111 q 272 159 257 111 q 290 267 287 207 q 283 375 293 326 q 246 424 274 424 z "},"":{"ha":530,"x_min":17,"x_max":548,"o":"m 298 578 q 411 548 365 574 q 486 483 457 522 q 528 397 515 444 q 544 304 541 350 q 531 181 548 239 q 477 78 513 122 q 389 7 441 33 q 274 -15 337 -19 q 119 40 176 -9 q 37 172 61 89 q 30 318 17 244 q 80 449 43 391 q 173 544 117 507 q 298 578 230 580 m 285 431 q 263 408 272 431 q 249 350 254 385 q 244 275 244 315 q 246 200 243 235 q 258 142 250 165 q 278 119 267 119 q 311 167 296 119 q 329 274 326 215 q 322 382 331 333 q 285 431 313 431 m 333 583 q 275 590 298 583 q 231 601 252 596 q 187 605 209 606 q 131 591 165 604 l 122 585 q 119 584 119 585 q 117 583 119 583 l 113 580 q 95 588 98 580 q 91 622 93 596 q 118 689 91 665 q 207 702 144 713 q 261 688 241 696 q 303 677 281 680 q 351 681 324 674 q 424 711 378 689 q 437 696 431 715 q 443 669 443 678 q 415 598 444 613 q 333 583 385 583 z "},"":{"ha":530,"x_min":17,"x_max":548,"o":"m 298 578 q 411 548 365 574 q 486 483 457 522 q 528 397 515 444 q 544 304 541 350 q 531 181 548 239 q 477 78 513 122 q 389 7 441 33 q 274 -15 337 -19 q 119 40 176 -9 q 37 172 61 89 q 30 318 17 244 q 80 449 43 391 q 173 544 117 507 q 298 578 230 580 m 285 431 q 263 408 272 431 q 249 350 254 385 q 244 275 244 315 q 246 200 243 235 q 258 142 250 165 q 278 119 267 119 q 311 167 296 119 q 329 274 326 215 q 322 382 331 333 q 285 431 313 431 m 204 591 q 158 587 181 581 q 126 611 135 593 q 119 669 107 639 q 163 713 131 698 q 204 716 183 722 q 237 689 224 709 q 244 632 257 659 q 204 591 230 606 m 363 600 q 317 592 339 585 q 285 619 294 598 q 281 675 269 646 q 319 719 293 704 q 364 720 343 726 q 394 694 385 715 q 402 641 415 669 q 363 600 389 613 z "},"{":{"ha":602,"x_min":78,"x_max":578,"o":"m 322 417 q 311 400 309 407 q 314 393 311 396 q 320 385 317 389 q 369 274 359 339 q 379 140 380 209 q 375 2 378 70 q 384 -122 372 -67 q 431 -213 396 -178 q 543 -250 467 -248 q 578 -265 578 -252 q 548 -290 578 -278 q 462 -306 519 -302 q 331 -293 406 -309 q 220 -231 257 -276 q 171 -125 183 -185 q 163 4 159 -65 q 175 137 167 72 q 188 257 183 202 q 180 346 193 313 q 150 366 176 359 q 100 381 124 372 q 82 414 87 396 q 79 445 78 431 q 86 468 80 459 q 102 472 93 476 q 129 468 117 469 q 154 469 141 467 q 196 498 181 474 q 216 559 211 522 q 216 644 220 596 q 202 743 211 693 q 219 926 180 857 q 339 1026 257 994 q 440 1051 396 1048 q 508 1046 483 1054 q 537 1028 533 1039 q 520 1009 541 1017 q 447 950 472 994 q 408 845 422 906 q 389 717 394 785 q 378 587 383 648 q 360 480 372 526 q 322 417 348 433 z "},"}":{"ha":637,"x_min":87,"x_max":598,"o":"m 354 417 q 317 480 328 433 q 300 587 306 526 q 290 717 294 648 q 273 845 285 785 q 235 950 261 906 q 163 1009 209 994 q 146 1028 143 1017 q 175 1046 150 1039 q 243 1051 200 1054 q 344 1026 285 1048 q 463 926 424 994 q 480 743 502 857 q 464 644 469 693 q 463 559 459 596 q 481 498 467 522 q 522 469 494 474 q 547 468 535 467 q 574 472 559 469 q 591 468 585 476 q 597 445 596 459 q 594 414 598 431 q 576 381 589 396 q 524 366 550 372 q 494 346 498 359 q 485 257 481 313 q 496 137 489 202 q 507 4 504 72 q 497 -125 511 -65 q 446 -231 483 -185 q 335 -293 409 -276 q 204 -306 259 -309 q 119 -290 148 -302 q 88 -265 89 -278 q 124 -250 87 -252 q 236 -213 200 -248 q 285 -122 272 -178 q 295 2 298 -67 q 293 140 293 70 q 304 274 293 209 q 356 385 315 339 q 362 393 359 389 q 365 400 365 396 q 354 417 367 407 z "},"":{"ha":757,"x_min":24,"x_max":737,"o":"m 348 406 q 380 411 370 409 q 394 415 389 413 q 406 420 400 417 q 426 431 411 424 q 444 419 437 435 q 452 379 450 402 q 449 334 454 356 q 431 309 444 313 q 417 305 422 306 q 387 302 411 304 l 343 294 q 359 252 346 276 q 461 178 393 187 q 535 186 500 172 q 598 225 570 200 q 643 281 626 250 q 663 339 659 311 q 676 359 665 357 q 698 352 687 361 q 719 324 709 343 q 728 281 728 306 q 711 197 730 243 q 652 113 693 152 q 547 50 611 74 q 398 33 483 26 q 219 115 281 46 q 135 283 156 183 q 106 284 117 283 q 86 287 94 285 q 71 293 78 289 q 54 304 65 296 q 32 334 39 313 q 25 376 26 356 q 28 410 24 396 q 41 420 31 424 q 73 412 56 411 q 124 415 91 413 q 125 436 124 426 q 126 457 126 446 q 82 463 94 459 q 59 478 70 467 q 32 523 39 496 q 27 573 26 550 q 37 609 28 596 q 57 613 46 622 q 74 602 67 606 q 90 596 81 598 q 112 594 98 594 q 148 594 126 594 q 195 723 165 661 q 269 835 226 785 q 371 918 313 885 q 504 957 430 950 q 603 944 559 961 q 676 895 646 928 q 721 821 706 863 q 735 733 737 780 q 725 657 733 689 q 701 605 717 626 q 662 569 685 583 q 607 541 639 554 q 563 537 589 533 q 516 556 537 541 q 487 596 494 570 q 500 661 480 622 q 549 650 526 648 q 589 664 572 652 q 614 695 606 676 q 620 735 622 715 q 588 794 615 780 q 527 797 561 807 q 456 754 493 787 q 393 669 419 720 q 361 585 376 630 q 394 586 383 585 q 408 589 404 587 q 415 594 413 591 q 422 598 417 596 q 444 587 435 604 q 454 547 452 570 q 447 503 456 524 q 419 480 439 481 q 406 479 409 480 q 387 476 404 478 l 337 470 l 331 406 l 348 406 z "},"":{"ha":957,"x_min":0,"x_max":865,"o":"m 657 778 q 636 709 652 741 q 598 655 620 678 q 549 616 576 631 q 494 598 522 600 q 432 609 457 594 q 402 667 407 624 q 411 678 406 676 q 426 685 417 680 q 462 711 443 694 q 491 754 481 728 q 504 804 504 780 q 482 851 504 835 q 431 867 461 867 q 358 838 393 867 q 326 750 324 809 q 333 658 328 704 q 344 569 339 613 l 352 528 l 394 528 q 424 527 409 528 q 456 526 439 526 q 494 531 481 528 q 499 532 498 531 q 502 533 500 533 q 513 516 511 533 q 513 489 515 498 q 479 416 509 439 q 394 393 448 393 l 367 393 q 366 361 367 378 q 363 330 365 344 q 358 258 363 298 q 350 202 354 219 q 348 194 350 198 q 346 187 346 191 q 387 173 361 181 q 445 156 413 165 q 516 144 478 148 q 591 141 554 139 q 721 177 674 144 q 794 246 769 209 q 823 276 813 272 q 850 259 833 280 q 865 204 865 241 q 852 133 865 172 q 810 60 839 94 q 736 1 781 26 q 628 -26 691 -24 q 457 -4 528 -30 q 330 52 387 22 l 285 74 q 223 44 259 56 q 152 31 187 31 q 83 59 104 31 q 72 107 72 72 q 109 176 72 143 l 128 191 q 141 206 131 200 q 153 245 146 220 q 163 300 159 270 q 165 331 163 315 q 167 363 167 348 l 159 411 q 99 410 128 413 q 44 398 70 407 l 33 394 q 31 394 31 394 q 28 393 30 393 l 20 389 q 3 397 6 389 q 2 431 0 406 q 45 495 6 469 q 144 526 85 522 q 131 615 137 570 q 126 706 126 659 q 131 784 126 748 q 152 852 137 820 q 262 973 193 935 q 404 1011 331 1011 q 504 994 456 1011 q 588 945 552 976 q 644 872 624 915 q 657 778 663 830 z "},"":{"ha":531,"x_min":20,"x_max":509,"o":"m 281 270 q 248 309 265 287 q 201 261 222 287 q 169 206 180 235 l 167 194 q 166 191 165 191 q 167 187 167 191 l 165 181 q 146 176 156 172 q 111 204 137 180 q 75 294 74 241 q 122 396 76 348 q 131 406 126 400 q 156 433 135 413 q 108 480 133 459 q 54 511 83 500 l 44 513 q 41 516 41 517 q 37 515 41 515 l 30 515 q 25 534 20 524 q 50 570 30 544 q 140 608 87 607 q 241 563 193 609 q 247 556 243 559 q 265 541 252 554 q 302 577 281 557 q 344 619 322 596 q 366 647 361 637 q 374 661 370 657 q 397 652 380 667 q 424 630 415 637 q 475 540 474 581 q 439 459 476 498 l 409 433 q 401 425 406 430 q 389 417 396 420 q 424 381 406 400 q 463 341 443 363 q 492 320 481 326 q 506 311 502 315 q 506 303 509 309 q 498 288 504 296 q 485 272 493 280 q 474 261 478 265 q 388 206 428 207 q 309 243 348 206 l 281 270 z "},"":{"ha":561,"x_min":19,"x_max":593,"o":"m 326 109 q 265 23 300 56 q 165 0 230 -9 q 65 65 102 9 q 24 202 28 120 q 45 387 19 311 q 119 511 72 463 q 187 559 150 544 q 259 573 224 574 q 321 559 294 572 q 359 526 348 546 q 361 518 363 520 q 363 520 359 515 q 407 567 380 557 q 463 570 435 576 q 515 550 491 565 q 550 522 539 535 q 566 493 563 507 q 567 461 569 478 q 559 347 563 419 q 556 211 556 276 q 562 109 556 157 q 583 30 569 61 q 564 3 593 9 q 493 -4 535 -4 q 387 26 433 -4 q 326 109 341 56 m 294 200 q 311 225 306 202 q 319 280 317 248 q 320 344 320 311 q 319 398 320 378 q 306 424 317 420 q 281 411 294 428 q 258 327 263 378 q 263 241 254 276 q 294 200 272 194 m 233 774 q 285 796 256 800 q 326 774 309 793 q 385 711 369 735 q 424 674 402 687 l 431 674 q 435 672 433 674 l 439 672 q 444 662 446 669 q 430 639 443 656 q 397 619 415 622 q 359 623 380 617 q 319 642 339 630 q 280 669 298 654 q 241 642 261 654 q 200 623 220 630 q 161 619 180 617 q 130 639 143 622 q 115 662 117 656 q 120 672 113 669 l 124 672 q 128 674 126 674 l 135 674 q 174 711 157 687 q 233 774 191 735 z "},"":{"ha":515,"x_min":17,"x_max":533,"o":"m 309 239 q 275 242 289 239 q 235 254 261 244 l 235 246 q 264 191 231 211 q 335 170 296 170 q 421 188 391 170 q 481 230 452 206 q 491 235 487 235 q 519 212 506 235 q 533 156 533 189 q 511 86 533 115 q 456 38 489 57 q 381 9 422 19 q 304 0 341 0 q 94 70 170 0 q 17 269 17 141 q 43 395 17 337 q 111 494 69 454 q 211 556 154 535 q 333 572 269 578 q 442 540 400 567 q 502 476 483 513 q 516 397 520 439 q 487 320 511 356 q 418 262 463 285 q 309 239 372 239 m 248 337 q 275 340 259 337 q 305 350 291 343 q 329 368 319 357 q 339 393 339 378 q 330 414 339 407 q 311 420 320 420 q 279 406 296 420 q 248 337 261 393 m 211 774 q 263 796 233 800 q 304 774 287 793 q 363 711 346 735 q 402 674 380 687 l 409 674 q 413 672 411 674 l 417 672 q 422 662 424 669 q 407 639 420 656 q 375 619 393 622 q 337 623 357 617 q 296 642 317 630 q 257 669 276 654 q 219 642 239 654 q 178 623 198 630 q 139 619 157 617 q 107 639 120 622 q 93 662 94 656 q 98 672 91 669 l 102 672 q 106 674 104 674 l 113 674 q 152 711 135 687 q 211 774 169 735 z "},"":{"ha":589,"x_min":19,"x_max":570,"o":"m 561 59 l 567 41 q 570 26 570 33 q 570 15 570 19 q 542 -8 569 -4 q 480 -13 515 -13 q 400 6 441 -13 q 333 85 359 24 q 274 27 313 54 q 185 -11 235 0 q 139 -5 163 -9 q 93 12 115 0 q 53 46 70 24 q 28 106 35 69 q 22 155 24 115 q 22 243 20 194 l 28 459 q 24 526 30 496 q 30 557 19 556 q 194 535 137 569 q 246 407 250 502 q 240 322 244 365 q 235 244 235 280 q 242 187 235 209 q 270 165 248 165 q 318 198 302 165 q 337 311 333 231 l 337 494 q 335 525 337 513 q 332 544 333 537 q 334 554 331 550 q 350 561 337 557 q 431 569 394 570 q 494 554 467 569 q 535 506 520 539 q 550 419 550 472 q 548 330 550 376 q 545 237 546 283 q 547 145 544 191 q 561 59 550 100 m 248 774 q 300 796 270 800 q 341 774 324 793 q 400 711 383 735 q 439 674 417 687 l 446 674 q 450 672 448 674 l 454 672 q 459 662 461 669 q 444 639 457 656 q 412 619 430 622 q 374 623 394 617 q 333 642 354 630 q 294 669 313 654 q 256 642 276 654 q 215 623 235 630 q 176 619 194 617 q 144 639 157 622 q 130 662 131 656 q 135 672 128 669 l 139 672 q 143 674 141 674 l 150 674 q 189 711 172 687 q 248 774 206 735 z "}}}
